<svg width="1024" height="1024" viewBox="0 0 1024 1024" fill="none" xmlns="http://www.w3.org/2000/svg">
<path d="M512.001 128C535.566 128 554.668 147.103 554.668 170.667C554.668 192.548 538.198 210.582 516.977 213.047L512.001 213.334H298.668C276.787 213.334 258.753 229.805 256.288 251.025L256.001 256.001V768.001C256.001 789.883 272.472 807.916 293.692 810.381L298.668 810.668H490.668C514.233 810.668 533.335 829.77 533.335 853.335C533.335 875.217 516.865 893.25 495.644 895.715L490.668 896.002H298.668C230.5 896.002 174.778 842.717 170.885 775.523L170.668 768.002V256.002C170.668 187.834 223.955 132.112 291.147 128.219L298.668 128.002H512.001V128ZM755.5 361.151L876.183 481.831C892.844 498.492 892.844 525.509 876.183 542.17L755.5 662.848C738.839 679.514 711.826 679.514 695.161 662.848C678.5 646.187 678.5 619.17 695.161 602.509L743.007 554.667H512.001C488.436 554.667 469.334 535.565 469.334 512C469.334 488.435 488.436 469.333 512.001 469.333H743.007L695.161 421.49C678.5 404.828 678.5 377.813 695.161 361.15C711.827 344.487 738.839 344.487 755.5 361.15V361.151Z" fill="#FD8603"/>
</svg>
