<svg width="1001" height="152" viewBox="0 0 1001 152" fill="none" xmlns="http://www.w3.org/2000/svg">
<path d="M945.69 26.6235C946.074 24.1659 946.458 21.0939 947.098 18.1754C947.482 16.6394 948.378 15.4106 949.274 14.3354C950.426 12.7994 951.962 12.0314 953.754 12.4922C960.666 14.1818 967.706 15.7178 974.618 18.0218C976.794 18.7898 978.97 19.0971 981.018 19.0971C983.962 19.0971 986.906 18.3291 989.85 16.4858C991.002 15.8714 992.154 15.1034 993.434 14.7962C993.946 14.6426 994.714 14.7962 995.226 15.257C997.914 18.3291 999.834 21.8619 1000.73 26.1627C1001.37 29.3884 1000.6 32.3068 998.938 34.918C998.682 35.5324 997.914 35.8396 997.274 35.8396C996.378 35.8396 995.354 35.5324 994.458 35.2252C992.794 34.6108 991.13 34.3036 989.594 34.3036C986.394 34.3036 983.322 35.5324 980.378 37.6828C977.562 39.8333 974.618 41.0621 971.29 41.2157C968.73 41.2157 966.17 41.8301 963.482 42.1373C960.666 42.4445 957.722 42.5981 954.778 42.5981C947.098 42.5981 946.074 33.8428 945.69 26.6235ZM990.49 55.6542C991.514 59.0335 992.41 61.0303 992.794 63.3343C993.178 65.6383 993.178 67.9424 992.922 70.2464C992.41 74.8544 988.954 77.6193 985.242 77.6193C974.746 77.9265 964.506 80.2305 954.266 81.9201C953.882 82.0737 953.626 82.0737 953.242 82.0737C948.25 83.4561 944.282 81.1521 941.082 76.8513C937.882 72.704 937.754 69.0176 937.754 63.7951C937.754 56.883 939.418 54.579 945.306 54.8862C948.506 55.1934 951.834 55.0398 955.034 54.8862C960.922 54.579 966.81 54.4254 972.57 56.4222C975.386 57.3438 978.33 57.1902 981.274 56.7294C984.09 56.4222 987.034 56.115 990.49 55.6542ZM978.97 109.722C978.842 110.951 978.714 111.565 978.842 112.333C978.97 113.716 978.458 114.791 977.434 114.944C966.81 116.634 956.058 118.17 945.434 119.706C942.746 120.167 940.186 119.245 937.882 117.863C934.426 115.712 932.25 112.487 932.25 107.572C932.25 104.039 932.506 100.659 932.762 97.1267C933.018 95.1298 935.322 92.9794 937.114 92.9794C938.138 92.9794 939.034 92.8258 940.058 92.9794C945.818 94.0546 951.578 95.2834 957.466 96.205C961.05 96.6658 964.762 97.1267 968.346 97.1267C971.802 97.1267 975.386 96.6658 978.842 95.5906C981.914 94.669 985.242 94.5154 988.57 94.2082C991.386 93.901 994.33 93.7474 997.274 93.4402C998.426 93.4402 999.194 94.2082 999.322 95.437C999.578 96.5122 999.45 97.7411 999.066 98.6627C998.938 99.2771 998.042 99.8915 997.53 99.8915C995.61 99.7379 993.562 99.5843 991.77 99.1235C988.954 98.3555 986.266 97.8947 983.45 97.8947C980.122 97.8947 976.794 98.5091 973.466 99.8915C973.594 102.81 975.258 105.421 977.05 105.268C978.714 105.268 980.378 105.114 981.914 104.807C985.498 103.885 989.082 103.271 992.666 103.885C993.562 104.039 994.458 104.807 995.098 105.575C995.482 106.036 995.61 106.957 995.482 107.725C995.354 108.34 994.842 109.261 994.33 109.261C991.386 109.261 988.442 109.108 985.626 109.108C983.322 109.261 981.018 108.954 978.97 109.722ZM988.186 112.18C988.058 112.333 987.802 112.794 987.546 112.794C987.29 112.794 986.778 112.794 986.65 112.64C986.266 111.872 986.65 111.412 987.546 111.565C987.802 111.719 988.058 112.026 988.186 112.18Z" fill="black"/>
<path d="M859.545 117.873C860.057 117.412 860.441 116.797 860.825 116.644C862.489 116.183 864.025 115.722 865.689 115.261C869.273 114.34 871.833 112.189 872.729 107.735C876.185 101.744 878.105 91.6066 878.617 84.6946C878.745 82.6978 878.745 80.7009 878.873 78.7041C879.897 65.8016 879.257 52.8991 877.209 40.1501C876.953 38.1533 875.289 33.6989 874.905 31.8556C874.137 28.7836 873.241 25.8652 870.809 24.022C869.273 22.7932 868.121 20.6427 866.969 18.7995C866.457 18.0315 866.457 16.6491 866.329 15.5739C866.329 14.6523 867.481 13.1163 868.121 13.1163C871.065 13.2699 873.881 13.1163 876.825 13.5771C879.769 14.1915 883.609 16.4955 884.761 20.0283C888.345 31.702 893.209 45.6798 893.593 58.2751C893.721 59.6575 894.105 61.0399 894.489 62.4224C894.617 63.0368 895.769 63.1904 896.281 62.7296C897.561 61.808 898.329 60.2719 898.841 58.7359C902.937 48.7518 905.497 32.7773 906.265 21.8715C906.393 20.4891 906.137 19.1067 905.113 18.0315C903.705 16.6491 903.705 14.4987 903.577 12.5018C903.577 11.5802 904.601 10.3514 905.369 10.1978C905.625 10.0442 905.881 9.89062 906.137 9.89062C911.001 10.505 920.089 11.8874 920.729 19.4139C920.857 22.3323 921.113 25.2508 920.857 28.0156C920.217 34.1597 917.145 53.9743 913.433 58.4287C912.921 58.8895 912.409 59.6575 912.153 60.4255C911.897 61.1935 911.641 62.1151 911.769 62.8832C911.897 63.8048 912.665 64.112 913.433 64.112C915.097 64.112 916.761 63.8048 918.425 63.9584C919.705 63.9584 920.857 64.2656 922.009 64.5728C922.905 64.88 923.801 66.2624 923.673 67.0304C923.545 68.1056 923.033 68.5664 922.265 68.8736C918.553 70.5632 916.377 71.792 915.481 76.7073C913.305 87.3058 913.945 97.9043 917.145 108.042C919.449 115.108 922.137 121.866 926.361 127.549C927.513 128.932 928.409 130.621 929.305 132.465C930.073 133.847 929.305 136.151 927.769 136.612C926.873 136.919 925.977 137.226 925.081 137.073C919.961 135.69 914.073 130.468 911.129 125.553C903.321 112.804 901.017 102.512 898.073 87.4594C897.817 86.3842 897.561 85.309 897.305 84.2338C897.049 83.005 896.025 82.3906 895.129 82.5442C894.233 82.6978 893.721 83.3122 893.593 84.2338C893.209 86.6914 892.953 89.3026 892.569 91.9138C892.057 95.9075 890.137 103.127 889.625 107.12C888.345 117.412 880.537 120.637 872.985 120.637C871.065 120.637 869.145 120.33 867.225 119.562C865.433 118.794 863.513 118.948 861.593 118.487C860.953 118.487 860.313 118.18 859.545 117.873ZM880.793 85.4626L880.921 86.077L881.177 85.4626H880.793ZM878.233 102.666C878.361 102.512 878.745 102.512 878.745 102.359C879.001 101.284 880.793 96.9827 880.921 95.9075C881.049 95.2931 880.665 94.8323 880.153 94.9859C880.025 94.9859 879.769 95.2931 879.769 95.6003C879.513 96.6755 877.849 100.976 877.849 102.052C877.721 102.205 878.105 102.512 878.233 102.666Z" fill="black"/>
<path d="M801.999 103.433L801.871 103.28C802.383 102.358 802.895 101.436 803.279 100.515C803.919 98.8251 804.815 97.4427 806.223 96.3674V96.0603V96.3674C805.455 99.1323 804.815 101.897 804.175 104.662C804.047 105.123 803.919 105.891 804.047 106.352C804.175 106.812 804.815 107.273 805.071 107.273C805.839 107.12 806.735 106.812 806.991 106.198C809.167 102.512 811.599 98.9787 813.007 94.985C814.671 90.6842 816.719 86.537 818.895 82.6969C819.791 81.1609 820.303 79.6249 820.431 77.7817C820.687 73.788 821.455 70.1016 822.991 66.5688C823.503 65.3399 823.375 63.8039 823.503 62.2679C823.631 61.4999 823.247 61.0391 822.735 61.0391C822.479 61.0391 822.223 61.3463 822.095 61.4999C820.687 67.0296 818.383 71.7912 815.055 76.092C814.671 76.7065 814.287 77.3209 813.903 77.9353V78.2425C812.879 80.7001 811.855 83.1577 810.831 85.6153L810.703 85.3081C810.831 85.0009 810.959 84.8473 811.087 84.5401L811.855 82.6969C811.983 82.3897 812.111 82.0825 812.239 81.7753L813.391 79.1641C813.519 78.8569 813.647 78.5497 813.775 78.2425L813.903 77.9353C814.159 74.7096 815.055 71.7912 815.823 68.7192C817.487 62.4215 819.023 56.1238 820.559 49.8262C820.943 48.1366 821.199 46.4469 821.327 44.6037C821.583 43.3749 820.687 42.1461 819.791 41.9925C818.767 41.9925 817.871 41.8389 816.847 41.9925C813.647 42.2997 811.727 40.3029 810.447 37.0772C810.063 35.6948 809.551 34.1588 809.423 32.7764C809.295 30.4724 809.423 28.0147 809.423 25.7107C809.551 23.8675 810.831 22.1779 812.239 21.8707C814.671 21.4099 817.103 21.1027 819.535 20.6419C821.711 20.3347 822.223 19.5667 822.351 16.341C822.479 13.4226 822.991 12.1938 824.399 12.1938C824.911 12.1938 825.551 12.3474 826.319 12.6546C829.135 14.037 831.823 15.2658 834.639 16.6482C837.071 17.877 839.503 19.2595 841.935 20.6419C843.599 18.9523 844.239 16.6482 845.007 14.4978C846.159 11.2722 847.311 7.89295 848.335 4.51371C848.719 3.5921 850.127 2.8241 850.895 3.1313C851.407 3.2849 851.919 3.2849 852.303 3.5921C856.143 5.89613 859.855 8.04655 863.567 10.5042C864.847 11.4258 866.127 12.1938 867.663 12.501C868.943 12.6546 869.071 13.5762 868.303 15.1122C868.047 15.573 867.663 16.0338 867.407 16.4946C868.047 16.9554 868.815 17.2626 869.327 17.7234C870.607 19.2595 870.095 21.1027 869.711 22.7923C869.455 24.0211 868.559 24.6355 867.535 24.9427C867.279 24.9427 867.023 25.0963 866.895 24.9427C864.591 24.6355 862.287 24.1747 860.367 26.0179C856.911 29.5508 854.735 47.215 854.095 52.4374C853.583 56.7382 853.327 61.1927 852.943 65.6471C852.815 66.8759 852.687 68.1048 852.943 69.3336C853.583 72.252 853.327 75.1704 852.943 78.0889C852.815 79.6249 852.559 81.1609 852.815 82.5433C853.583 87.305 853.711 92.0666 854.223 96.8283C854.735 102.051 856.015 109.424 857.935 114.032C858.319 114.8 858.447 115.568 858.703 116.489C858.959 117.564 858.319 119.1 857.551 119.408C856.655 119.715 855.759 119.868 854.863 119.868C849.103 119.868 845.007 113.11 842.831 107.58C842.447 106.812 841.167 106.659 840.911 107.273C840.527 108.041 840.143 108.809 839.759 109.731C839.119 111.267 838.479 112.803 837.583 114.339C836.175 117.257 834.255 118.025 831.183 117.257C830.799 117.104 830.287 116.796 829.775 116.643C828.367 115.875 824.527 114.8 824.527 112.649C824.399 109.424 824.655 106.659 824.911 103.433C825.167 99.2859 825.679 95.1386 826.191 90.9914C826.575 88.841 830.159 87.305 831.951 87.9194C833.103 88.2266 834.255 88.9946 835.407 89.4554C835.791 89.609 836.303 89.7626 836.815 89.7626C837.839 90.0698 838.991 89.1482 839.119 88.073C839.119 86.0761 839.247 83.9257 839.247 81.7753C839.247 75.0168 839.119 68.1048 838.991 61.3463C838.863 52.591 839.503 43.9893 840.655 35.3876C840.783 34.3124 840.911 33.0836 840.783 31.8548C840.783 31.5476 840.143 30.9332 839.887 30.9332C839.375 30.9332 838.735 31.2404 838.607 31.7012C838.223 32.7764 837.967 33.8516 837.839 35.0804C835.663 59.1959 824.271 95.9066 811.855 115.107C810.063 117.718 807.631 118.179 805.071 117.257C800.463 115.721 797.007 111.267 794.447 106.659C794.191 106.044 794.575 104.508 795.087 104.201C796.751 103.587 798.287 102.819 799.951 102.512C800.591 102.358 801.359 102.972 801.999 103.433ZM825.167 42.9141C825.039 42.7605 824.655 42.9141 824.527 43.0677C824.527 43.6821 824.527 44.2965 824.527 44.7573C824.527 44.9109 824.911 45.0645 825.039 45.0645C825.679 44.6037 825.679 43.2213 825.167 42.9141ZM825.807 56.2774C825.679 54.7414 825.807 53.0518 824.783 51.823C824.527 51.5158 823.759 51.5158 823.503 51.823C822.735 53.0518 822.991 54.5878 824.015 55.5094C824.527 55.8166 825.167 55.9702 825.807 56.2774ZM810.703 85.7689C810.703 86.537 810.703 87.1514 810.575 87.9194C810.447 91.6058 809.039 94.3706 806.351 96.0603C806.479 94.0634 807.247 92.3738 808.143 90.6842C809.039 88.9946 809.807 87.4586 810.703 85.7689Z" fill="black"/>
<path d="M783.42 12.4981C784.188 12.4981 786.62 12.3445 789.052 12.4981C791.996 12.6517 794.172 14.495 795.068 17.8742C795.708 20.0246 796.092 22.3286 796.476 24.4791C796.732 26.3223 795.452 28.4727 793.916 28.7799C791.484 29.0871 789.052 29.3943 786.62 29.5479C784.188 29.7015 781.884 30.0087 779.58 31.2375C776.636 32.9271 773.564 34.156 770.62 35.5384C770.108 35.692 769.468 35.8456 769.084 35.5384C768.06 34.924 767.164 34.7704 766.14 34.7704C764.22 34.7704 762.3 35.5384 760.38 35.5384C760.124 35.3848 759.612 36.3064 759.612 36.9208C759.484 37.3816 759.868 37.996 760.252 38.4568C760.38 38.764 760.636 38.764 760.892 38.9176C766.012 40.7608 771.26 42.7576 776.38 44.6009C777.916 45.2153 778.428 44.4473 778.044 42.2969C778.044 41.9896 777.916 41.3752 778.044 41.3752C778.428 41.2216 779.068 40.9144 779.324 41.068C780.348 41.5288 781.244 42.1432 782.268 42.9112C791.228 49.2089 791.228 49.2089 795.836 59.8074C798.396 65.7979 798.78 72.0955 798.268 78.7004C797.628 83.7693 796.476 89.1453 793.02 92.5246C789.308 96.0574 785.596 99.8974 782.396 104.198C781.5 105.427 780.348 106.349 779.196 106.963C776.508 108.499 773.692 109.882 771.004 111.11C768.444 112.339 765.884 113.107 763.324 114.336C762.044 114.797 760.508 115.411 759.868 116.64C758.332 119.098 756.668 119.866 754.876 119.866C753.724 119.866 752.444 119.558 751.164 119.098C749.884 118.637 748.604 118.176 747.196 117.869C741.18 116.333 737.468 107.731 737.084 100.819C736.572 91.1421 738.748 82.2332 743.1 74.246C743.484 73.3244 744.252 72.8636 744.892 72.2491C745.276 72.0955 746.044 71.9419 746.428 72.0955C746.684 72.4028 747.068 73.1708 747.068 73.7852C746.94 74.7068 746.556 75.6284 746.3 76.3964C744.508 80.5436 743.868 84.9981 743.612 89.4525C743.612 91.4493 743.996 93.4462 745.02 94.9822C747.196 97.747 749.628 99.5902 752.444 99.5902C753.34 99.5902 754.236 99.4366 755.132 99.1294C762.428 96.6718 769.724 94.2142 776.38 89.7597C777.02 89.2989 777.916 88.9917 778.428 88.3773C782.524 84.0765 786.748 80.0828 790.204 75.1676C790.46 74.8604 790.588 74.5532 790.716 74.3996C792.252 71.7883 792.38 68.5627 790.716 66.2587C785.084 56.4282 765.5 47.8265 756.156 47.5193C751.292 47.5193 746.428 47.3657 741.692 46.4441C736.06 45.3689 732.476 38.9176 733.756 32.1591C734.268 29.0871 735.42 26.0151 736.06 22.943C737.084 17.7206 740.412 16.4918 744.38 16.1846H746.812C747.196 16.1846 747.58 16.031 747.964 16.031C751.42 15.7238 755.004 15.1094 758.46 14.8022C766.268 13.8806 773.948 11.8837 783.42 12.4981ZM781.628 16.4918C777.916 16.3382 774.332 17.8742 770.748 18.7958C769.084 19.2566 768.7 21.8678 769.852 23.4039C770.748 24.7863 772.028 25.4007 773.308 25.4007C778.556 25.8615 783.42 24.1719 788.028 21.8678C788.412 21.5606 788.668 20.9462 788.924 20.3318C789.18 19.7174 788.54 18.4886 787.772 18.0278C787.388 17.7206 786.876 17.2598 786.364 17.2598C784.828 16.9526 783.292 16.6454 781.628 16.4918ZM755.132 107.424C758.076 107.27 760.892 106.963 762.812 103.737C759.996 104.198 757.436 105.427 755.132 107.424ZM754.748 107.578C754.364 107.578 753.852 107.578 753.468 107.578C752.7 107.731 752.444 108.038 752.956 108.653C753.084 108.806 753.468 108.653 753.724 108.499C754.108 108.346 754.364 107.885 754.748 107.578Z" fill="black"/>
<path d="M659.303 93.2918V101.586C659.815 100.665 660.455 99.743 660.711 98.8214C662.759 88.9909 664.039 79.1604 663.143 69.0227C662.759 63.8003 662.503 58.4242 662.631 53.2018C662.759 48.4401 661.991 43.8321 660.583 39.3776C659.047 34.3088 658.151 34.1552 654.055 34.9232C650.215 35.8448 646.375 36.92 642.535 38.1488C640.103 38.7632 637.671 38.9168 635.239 38.3024C634.471 38.1488 633.703 37.8416 633.319 37.2272C631.271 34.9232 630.119 32.0048 630.375 28.4719C630.503 27.5503 630.759 26.7823 631.015 25.8607C632.935 17.7198 631.911 17.4126 640.103 16.491C646.119 15.723 652.391 15.5694 658.407 14.0334C659.047 13.7262 659.815 14.0334 660.455 14.0334C660.967 14.6478 660.839 14.8014 660.071 15.1086C658.279 15.8766 658.023 16.6446 658.663 18.027C659.687 20.3311 661.095 22.0207 663.399 21.7135C667.751 21.0991 672.103 20.3311 676.455 19.4094C676.839 19.4094 677.351 18.795 677.351 18.3342C677.351 17.8734 676.839 17.259 676.455 17.1054C675.303 16.9518 674.023 16.9518 672.871 16.7982C671.719 16.7982 671.207 15.5694 671.975 14.3406C672.359 13.5726 672.871 12.651 673.383 12.4974C677.095 12.0366 680.807 12.3438 684.135 14.4942C684.903 14.955 684.775 15.723 684.263 16.6446C683.495 18.027 683.623 18.4878 684.391 18.6414C684.903 18.6414 685.287 18.795 685.799 18.795C688.103 18.4878 690.279 18.795 691.815 21.0991C691.943 21.2527 692.327 21.4063 692.583 21.2527C692.967 21.0991 693.479 20.7919 693.735 20.4847C693.863 20.0238 693.863 19.2558 693.607 18.795C692.711 17.259 690.919 17.5662 689.639 16.491C689.127 16.1838 688.999 14.8014 689.511 14.187C690.407 13.1118 691.431 12.3438 692.711 12.3438C696.167 12.651 699.495 12.8046 702.951 12.4974C704.103 12.4974 705.383 13.1118 706.407 14.0334C708.071 15.2622 709.223 17.259 709.607 19.7166C710.247 22.4815 710.375 25.3999 709.863 28.3183C709.607 29.8543 708.071 30.9296 707.047 30.4688C706.791 30.3152 706.535 30.1615 706.407 30.0079C702.567 26.7823 698.215 26.0143 693.735 26.0143C691.047 25.8607 688.359 25.8607 685.671 26.0143C685.287 26.0143 684.903 26.4751 684.391 26.6287C684.903 26.9359 685.159 27.5503 685.671 27.5503C687.975 27.8575 690.535 26.9359 692.839 28.0111C693.223 28.4719 693.095 29.0863 692.327 29.0863C686.951 29.7007 681.575 30.3152 676.199 30.9296C674.919 31.2368 672.999 30.4688 672.487 32.4656C672.103 33.848 673.511 34.9232 674.407 35.8448C676.583 37.8416 677.351 40.4529 677.223 43.6785C677.223 44.1393 677.223 44.7537 677.223 45.3681C678.503 54.7378 677.735 64.2611 677.095 73.6308C676.327 83.7685 674.279 104.505 668.391 112.338C664.551 118.022 659.687 120.786 653.543 119.558C652.263 119.404 651.111 119.097 649.959 118.79C649.575 118.636 649.191 117.868 649.191 117.407C649.063 116.946 649.191 116.178 649.319 115.718C649.703 114.642 650.087 113.414 650.599 112.492C653.671 106.809 656.231 100.665 658.535 94.5206C658.663 94.0598 659.047 93.7526 659.303 93.2918V93.1382H659.431L659.303 93.2918ZM667.751 12.4974L667.495 12.9582L667.239 12.4974H667.751ZM699.623 19.4094L699.879 20.0238L700.135 19.4094H699.623ZM698.471 23.2495L698.599 22.7887L698.087 22.9423L698.471 23.2495ZM675.943 23.4031L676.455 23.5567L676.327 22.9423L675.943 23.4031ZM672.615 25.8607C671.207 27.0895 669.415 26.6287 667.879 27.2431C667.623 27.2431 667.495 28.0111 667.367 28.4719C667.239 28.6255 667.623 28.9327 667.751 29.0863C670.823 29.7007 673.895 29.3935 676.967 28.9327C677.223 28.9327 677.607 28.0111 677.607 27.7039C677.607 27.2431 677.095 26.7823 676.711 26.4751C675.431 25.7071 674.023 25.7071 672.615 25.8607ZM659.431 92.9846C659.431 91.9094 659.431 90.9878 659.559 89.9126C659.559 89.759 659.815 89.2981 659.815 89.2981C660.455 89.2981 660.583 89.6053 660.583 90.3734C660.455 91.4486 660.199 92.3702 659.431 92.9846ZM659.303 102.047C658.279 103.583 658.023 105.273 657.895 107.116C658.919 105.58 659.303 103.89 659.303 102.047ZM657.767 107.423C656.359 108.652 655.463 110.342 654.951 112.338C656.615 111.417 657.383 109.574 657.767 107.423ZM654.823 112.799L653.671 115.718C654.311 114.95 654.567 113.874 654.823 112.799Z" fill="black"/>
<path d="M576.488 55.1988C576.104 54.5844 575.592 53.8164 575.08 53.0484C574.44 52.1268 573.8 52.434 573.16 53.3556C572.776 53.97 572.136 53.97 571.88 53.3556C571.624 52.434 571.496 51.5124 571.496 50.5908C571.624 47.6724 571.624 44.6003 572.008 41.5283C572.264 38.3027 571.112 36.7667 568.424 35.3843C562.664 32.6194 560.488 27.5506 561.384 20.4849C561.64 18.7953 563.688 16.4913 565.352 16.1841C566.504 16.0304 567.656 16.1841 568.808 16.1841C570.984 16.0304 572.392 15.1088 573.416 12.9584C573.928 11.8832 574.824 10.808 575.848 10.6544C577.768 10.1936 579.688 9.88639 581.608 9.88639C586.216 9.88639 590.44 11.1152 594.024 14.3408C597.992 18.6417 602.856 19.4097 607.976 18.6417C609.768 18.3345 611.176 17.2593 611.816 15.416C612.328 14.0336 612.968 12.6512 613.48 11.2688C613.864 10.5008 615.784 9.88639 616.552 10.5008C617.96 11.4224 619.368 12.344 620.776 13.2656C621.544 13.7264 622.312 14.0336 622.824 14.0336C623.848 14.0336 624.616 13.2656 624.872 11.2688C625 10.5008 625.512 9.57918 626.024 8.96477C626.152 8.65758 627.176 8.65758 627.432 8.96477C629.736 11.7296 630.888 15.1088 631.4 18.6417C631.528 19.1025 631.144 19.8705 630.76 20.1777C629.864 20.7921 628.84 21.2529 627.688 21.8673C628.84 26.4754 629.096 28.7794 629.096 33.541C629.224 36.6131 628.584 39.5315 627.432 42.2963C624.488 49.8228 620.648 56.8885 614.76 62.2645C611.688 65.0294 609.384 68.5622 605.928 70.7126C605.8 70.8662 605.672 71.327 605.8 71.4806C606.184 71.9414 606.568 72.5558 606.952 72.7094C607.976 73.0166 609.128 73.1702 610.152 73.4774V73.3238C610.28 73.3238 610.408 73.3238 610.408 73.3238C611.304 72.863 612.2 72.4022 612.968 72.095C613.224 71.9414 613.608 71.9414 613.736 72.2486C614.248 72.7094 614.12 73.1702 613.352 73.1702C612.328 73.3238 611.432 73.3238 610.28 73.4774H610.152C610.28 73.631 610.408 73.9382 610.664 74.0918C613.096 77.0103 613.992 80.0823 613.736 84.0759C613.352 87.916 613.48 91.9096 613.48 95.9033C613.352 104.812 615.4 113.26 619.24 121.248C623.848 130.771 629.352 141.523 637.928 146.131C638.696 146.592 639.08 148.589 638.696 149.51C638.184 150.125 637.544 151.046 636.904 151.2C636.008 151.507 635.112 151.661 634.216 151.661C632.936 151.661 631.656 151.353 630.376 150.585C623.336 146.899 611.048 136.761 609.256 128.313C605.032 120.019 602.088 111.263 600.04 102.047C599.656 100.204 599.016 98.5145 597.736 97.2857C595.944 95.7497 595.048 93.4456 594.664 91.1416C594.024 88.3768 593.384 85.7656 592.872 83.1543C592.616 82.2327 591.208 81.3111 590.184 81.4647C584.936 81.4647 583.912 85.7656 583.912 91.1416C583.656 97.2857 583.656 103.276 583.528 109.267C583.4 111.724 583.272 114.182 583.016 116.486C583.016 117.407 581.48 118.636 580.584 118.636C578.536 118.943 576.616 118.636 574.824 117.715C571.496 115.871 569.192 112.799 567.016 109.727C566.632 109.113 566.76 107.884 566.888 107.116C566.888 106.041 567.4 105.427 568.424 105.734C569.448 105.887 570.088 105.427 570.472 104.505C570.856 103.123 571.112 101.587 571.496 100.204C571.88 99.1289 572.136 97.7465 572.776 96.9785C574.312 95.1353 574.568 93.292 573.672 91.1416C572.904 89.2984 572.264 87.3016 571.624 85.612C568.936 83.9224 566.376 82.6935 564.072 81.0039C562.024 79.6215 561.256 77.3175 561.384 74.7062C561.512 73.3238 562.664 71.9414 564.072 71.6342C566.248 71.1734 568.424 70.8662 570.6 70.2518C572.904 69.791 574.568 68.1014 575.592 65.7974C576.232 64.4149 576.744 63.0325 576.232 61.4965C575.464 59.3461 575.976 57.3493 576.488 55.1988ZM593.512 64.2613L595.048 60.7285C594.664 59.8069 594.664 58.8853 595.176 58.8853C595.688 58.2709 596.2 57.6565 596.84 57.0421C597.352 56.7349 597.992 56.5813 598.504 57.0421C602.344 55.3525 605.032 52.1268 606.696 48.2868C608.232 44.7539 610.408 41.5283 611.944 37.9955C613.48 34.7698 614.76 31.5442 615.912 28.165C616.424 26.7826 616.296 25.0929 616.168 23.7105C616.168 23.2497 615.4 22.4817 615.144 22.6353C612.84 23.8641 610.152 22.4817 607.72 23.4033C604.008 24.6321 600.296 25.8609 596.584 27.0898C595.816 27.397 595.304 28.0114 594.536 28.6258C596.2 30.3154 598.248 29.3938 599.912 29.8546C597.992 31.5442 596.584 32.1586 594.28 32.9266C591.976 33.8482 590.568 35.6915 590.184 38.3027C589.16 45.0611 588.264 51.9732 587.368 58.7317C587.112 60.8821 588.264 61.9573 590.056 62.5717L590.184 64.2613H593.512ZM608.744 27.8578C608.744 28.0114 608.616 28.0114 608.36 28.0114C605.928 30.0082 603.112 30.0082 600.296 29.701C601.448 28.6258 602.984 28.165 604.52 28.165C605.8 28.0114 607.464 27.8578 608.744 27.8578C609 27.7042 609.256 27.5506 609.512 27.397C609.384 27.5506 609.256 27.7042 609.128 27.8578C609 27.8578 608.872 27.8578 608.744 27.8578ZM600.168 29.8546H599.912L600.04 29.701C600.168 29.701 600.168 29.701 600.296 29.701L600.168 29.8546ZM575.592 45.3684L575.336 44.6003C574.952 44.9075 574.568 45.0611 574.184 45.3684C574.184 45.3684 574.44 45.8292 574.44 45.9828C574.824 45.8292 575.208 45.522 575.592 45.3684ZM577.512 54.738L576.872 55.1988C576.872 55.1988 577 55.1988 577.128 55.1988C577.256 55.0452 577.384 54.8916 577.512 54.738ZM596.84 58.8853L598.376 57.1957H596.84C596.84 57.6565 596.84 58.2709 596.84 58.8853ZM595.176 60.7285L596.712 59.0389C596.2 59.0389 595.688 59.0389 595.176 59.0389V60.7285ZM593.512 64.4149C593.512 65.0293 593.384 65.4902 593.512 65.951C593.64 66.4118 594.024 66.719 594.28 67.0262C594.28 67.0262 594.792 66.719 594.792 66.5654C594.92 66.1046 594.92 65.4902 594.792 65.183C594.408 64.8758 593.896 64.7221 593.512 64.4149Z" fill="black"/>
<path d="M500.124 103.433L499.996 103.28C500.508 102.358 501.02 101.436 501.404 100.515C502.044 98.8251 502.94 97.4427 504.348 96.3674V96.0603V96.3674C503.58 99.1323 502.94 101.897 502.3 104.662C502.172 105.123 502.044 105.891 502.172 106.352C502.3 106.812 502.94 107.273 503.196 107.273C503.964 107.12 504.86 106.812 505.116 106.198C507.292 102.512 509.724 98.9787 511.132 94.985C512.796 90.6842 514.844 86.537 517.02 82.6969C517.916 81.1609 518.428 79.6249 518.556 77.7817C518.812 73.788 519.58 70.1016 521.116 66.5688C521.628 65.3399 521.5 63.8039 521.628 62.2679C521.756 61.4999 521.372 61.0391 520.86 61.0391C520.604 61.0391 520.348 61.3463 520.22 61.4999C518.812 67.0296 516.508 71.7912 513.18 76.092C512.796 76.7065 512.412 77.3209 512.028 77.9353V78.2425C511.004 80.7001 509.98 83.1577 508.956 85.6153L508.828 85.3081C508.956 85.0009 509.084 84.8473 509.212 84.5401L509.98 82.6969C510.108 82.3897 510.236 82.0825 510.364 81.7753L511.516 79.1641C511.644 78.8569 511.772 78.5497 511.9 78.2425L512.028 77.9353C512.284 74.7096 513.18 71.7912 513.948 68.7192C515.612 62.4215 517.148 56.1238 518.684 49.8262C519.068 48.1366 519.324 46.4469 519.452 44.6037C519.708 43.3749 518.812 42.1461 517.916 41.9925C516.892 41.9925 515.996 41.8389 514.972 41.9925C511.772 42.2997 509.852 40.3029 508.572 37.0772C508.188 35.6948 507.676 34.1588 507.548 32.7764C507.42 30.4724 507.548 28.0147 507.548 25.7107C507.676 23.8675 508.956 22.1779 510.364 21.8707C512.796 21.4099 515.228 21.1027 517.66 20.6419C519.836 20.3347 520.348 19.5667 520.476 16.341C520.604 13.4226 521.116 12.1938 522.524 12.1938C523.036 12.1938 523.676 12.3474 524.444 12.6546C527.26 14.037 529.948 15.2658 532.764 16.6482C535.196 17.877 537.628 19.2595 540.06 20.6419C541.724 18.9523 542.364 16.6482 543.132 14.4978C544.284 11.2722 545.436 7.89295 546.46 4.51371C546.844 3.5921 548.252 2.8241 549.02 3.1313C549.532 3.2849 550.044 3.2849 550.428 3.5921C554.268 5.89613 557.98 8.04655 561.692 10.5042C562.972 11.4258 564.252 12.1938 565.788 12.501C567.068 12.6546 567.196 13.5762 566.428 15.1122C566.172 15.573 565.788 16.0338 565.532 16.4946C566.172 16.9554 566.94 17.2626 567.452 17.7234C568.732 19.2595 568.22 21.1027 567.836 22.7923C567.58 24.0211 566.684 24.6355 565.66 24.9427C565.404 24.9427 565.148 25.0963 565.02 24.9427C562.716 24.6355 560.412 24.1747 558.492 26.0179C555.036 29.5508 552.86 47.215 552.22 52.4374C551.708 56.7382 551.452 61.1927 551.068 65.6471C550.94 66.8759 550.812 68.1048 551.068 69.3336C551.708 72.252 551.452 75.1704 551.068 78.0889C550.94 79.6249 550.684 81.1609 550.94 82.5433C551.708 87.305 551.836 92.0666 552.348 96.8283C552.86 102.051 554.14 109.424 556.06 114.032C556.444 114.8 556.572 115.568 556.828 116.489C557.084 117.564 556.444 119.1 555.676 119.408C554.78 119.715 553.884 119.868 552.988 119.868C547.228 119.868 543.132 113.11 540.956 107.58C540.572 106.812 539.292 106.659 539.036 107.273C538.652 108.041 538.268 108.809 537.884 109.731C537.244 111.267 536.604 112.803 535.708 114.339C534.3 117.257 532.38 118.025 529.308 117.257C528.924 117.104 528.412 116.796 527.9 116.643C526.492 115.875 522.652 114.8 522.652 112.649C522.524 109.424 522.78 106.659 523.036 103.433C523.292 99.2859 523.804 95.1386 524.316 90.9914C524.7 88.841 528.284 87.305 530.076 87.9194C531.228 88.2266 532.38 88.9946 533.532 89.4554C533.916 89.609 534.428 89.7626 534.94 89.7626C535.964 90.0698 537.116 89.1482 537.244 88.073C537.244 86.0761 537.372 83.9257 537.372 81.7753C537.372 75.0168 537.244 68.1048 537.116 61.3463C536.988 52.591 537.628 43.9893 538.78 35.3876C538.908 34.3124 539.036 33.0836 538.908 31.8548C538.908 31.5476 538.268 30.9332 538.012 30.9332C537.5 30.9332 536.86 31.2404 536.732 31.7012C536.348 32.7764 536.092 33.8516 535.964 35.0804C533.788 59.1959 522.396 95.9066 509.98 115.107C508.188 117.718 505.756 118.179 503.196 117.257C498.588 115.721 495.132 111.267 492.572 106.659C492.316 106.044 492.7 104.508 493.212 104.201C494.876 103.587 496.412 102.819 498.076 102.512C498.716 102.358 499.484 102.972 500.124 103.433ZM523.292 42.9141C523.164 42.7605 522.78 42.9141 522.652 43.0677C522.652 43.6821 522.652 44.2965 522.652 44.7573C522.652 44.9109 523.036 45.0645 523.164 45.0645C523.804 44.6037 523.804 43.2213 523.292 42.9141ZM523.932 56.2774C523.804 54.7414 523.932 53.0518 522.908 51.823C522.652 51.5158 521.884 51.5158 521.628 51.823C520.86 53.0518 521.116 54.5878 522.14 55.5094C522.652 55.8166 523.292 55.9702 523.932 56.2774ZM508.828 85.7689C508.828 86.537 508.828 87.1514 508.7 87.9194C508.572 91.6058 507.164 94.3706 504.476 96.0603C504.604 94.0634 505.372 92.3738 506.268 90.6842C507.164 88.9946 507.932 87.4586 508.828 85.7689Z" fill="black"/>
<path d="M403.613 55.1988C403.229 54.5844 402.717 53.8164 402.205 53.0484C401.565 52.1268 400.925 52.434 400.285 53.3556C399.901 53.97 399.261 53.97 399.005 53.3556C398.749 52.434 398.621 51.5124 398.621 50.5908C398.749 47.6724 398.749 44.6003 399.133 41.5283C399.389 38.3027 398.237 36.7667 395.549 35.3843C389.789 32.6194 387.613 27.5506 388.509 20.4849C388.765 18.7953 390.813 16.4913 392.477 16.1841C393.629 16.0304 394.781 16.1841 395.933 16.1841C398.109 16.0304 399.517 15.1088 400.541 12.9584C401.053 11.8832 401.949 10.808 402.973 10.6544C404.893 10.1936 406.813 9.88639 408.733 9.88639C413.341 9.88639 417.565 11.1152 421.149 14.3408C425.117 18.6417 429.981 19.4097 435.101 18.6417C436.893 18.3345 438.301 17.2593 438.941 15.416C439.453 14.0336 440.093 12.6512 440.605 11.2688C440.989 10.5008 442.909 9.88639 443.677 10.5008C445.085 11.4224 446.493 12.344 447.901 13.2656C448.669 13.7264 449.437 14.0336 449.949 14.0336C450.973 14.0336 451.741 13.2656 451.997 11.2688C452.125 10.5008 452.637 9.57918 453.149 8.96477C453.277 8.65758 454.301 8.65758 454.557 8.96477C456.861 11.7296 458.013 15.1088 458.525 18.6417C458.653 19.1025 458.269 19.8705 457.885 20.1777C456.989 20.7921 455.965 21.2529 454.813 21.8673C455.965 26.4754 456.221 28.7794 456.221 33.541C456.349 36.6131 455.709 39.5315 454.557 42.2963C451.613 49.8228 447.773 56.8885 441.885 62.2645C438.813 65.0294 436.509 68.5622 433.053 70.7126C432.925 70.8662 432.797 71.327 432.925 71.4806C433.309 71.9414 433.693 72.5558 434.077 72.7094C435.101 73.0166 436.253 73.1702 437.277 73.4774V73.3238C437.405 73.3238 437.533 73.3238 437.533 73.3238C438.429 72.863 439.325 72.4022 440.093 72.095C440.349 71.9414 440.733 71.9414 440.861 72.2486C441.373 72.7094 441.245 73.1702 440.477 73.1702C439.453 73.3238 438.557 73.3238 437.405 73.4774H437.277C437.405 73.631 437.533 73.9382 437.789 74.0918C440.221 77.0103 441.117 80.0823 440.861 84.0759C440.477 87.916 440.605 91.9096 440.605 95.9033C440.477 104.812 442.525 113.26 446.365 121.248C450.973 130.771 456.477 141.523 465.053 146.131C465.821 146.592 466.205 148.589 465.821 149.51C465.309 150.125 464.669 151.046 464.029 151.2C463.133 151.507 462.237 151.661 461.341 151.661C460.061 151.661 458.781 151.353 457.501 150.585C450.461 146.899 438.173 136.761 436.381 128.313C432.157 120.019 429.213 111.263 427.165 102.047C426.781 100.204 426.141 98.5145 424.861 97.2857C423.069 95.7497 422.173 93.4456 421.789 91.1416C421.149 88.3768 420.509 85.7656 419.997 83.1543C419.741 82.2327 418.333 81.3111 417.309 81.4647C412.061 81.4647 411.037 85.7656 411.037 91.1416C410.781 97.2857 410.781 103.276 410.653 109.267C410.525 111.724 410.397 114.182 410.141 116.486C410.141 117.407 408.605 118.636 407.709 118.636C405.661 118.943 403.741 118.636 401.949 117.715C398.621 115.871 396.317 112.799 394.141 109.727C393.757 109.113 393.885 107.884 394.013 107.116C394.013 106.041 394.525 105.427 395.549 105.734C396.573 105.887 397.213 105.427 397.597 104.505C397.981 103.123 398.237 101.587 398.621 100.204C399.005 99.1289 399.261 97.7465 399.901 96.9785C401.437 95.1353 401.693 93.292 400.797 91.1416C400.029 89.2984 399.389 87.3016 398.749 85.612C396.061 83.9224 393.501 82.6935 391.197 81.0039C389.149 79.6215 388.381 77.3175 388.509 74.7062C388.637 73.3238 389.789 71.9414 391.197 71.6342C393.373 71.1734 395.549 70.8662 397.725 70.2518C400.029 69.791 401.693 68.1014 402.717 65.7974C403.357 64.4149 403.869 63.0325 403.357 61.4965C402.589 59.3461 403.101 57.3493 403.613 55.1988ZM420.637 64.2613L422.173 60.7285C421.789 59.8069 421.789 58.8853 422.301 58.8853C422.813 58.2709 423.325 57.6565 423.965 57.0421C424.477 56.7349 425.117 56.5813 425.629 57.0421C429.469 55.3525 432.157 52.1268 433.821 48.2868C435.357 44.7539 437.533 41.5283 439.069 37.9955C440.605 34.7698 441.885 31.5442 443.037 28.165C443.549 26.7826 443.421 25.0929 443.293 23.7105C443.293 23.2497 442.525 22.4817 442.269 22.6353C439.965 23.8641 437.277 22.4817 434.845 23.4033C431.133 24.6321 427.421 25.8609 423.709 27.0898C422.941 27.397 422.429 28.0114 421.661 28.6258C423.325 30.3154 425.373 29.3938 427.037 29.8546C425.117 31.5442 423.709 32.1586 421.405 32.9266C419.101 33.8482 417.693 35.6915 417.309 38.3027C416.285 45.0611 415.389 51.9732 414.493 58.7317C414.237 60.8821 415.389 61.9573 417.181 62.5717L417.309 64.2613H420.637ZM435.869 27.8578C435.869 28.0114 435.741 28.0114 435.485 28.0114C433.053 30.0082 430.237 30.0082 427.421 29.701C428.573 28.6258 430.109 28.165 431.645 28.165C432.925 28.0114 434.589 27.8578 435.869 27.8578C436.125 27.7042 436.381 27.5506 436.637 27.397C436.509 27.5506 436.381 27.7042 436.253 27.8578C436.125 27.8578 435.997 27.8578 435.869 27.8578ZM427.293 29.8546H427.037L427.165 29.701C427.293 29.701 427.293 29.701 427.421 29.701L427.293 29.8546ZM402.717 45.3684L402.461 44.6003C402.077 44.9075 401.693 45.0611 401.309 45.3684C401.309 45.3684 401.565 45.8292 401.565 45.9828C401.949 45.8292 402.333 45.522 402.717 45.3684ZM404.637 54.738L403.997 55.1988C403.997 55.1988 404.125 55.1988 404.253 55.1988C404.381 55.0452 404.509 54.8916 404.637 54.738ZM423.965 58.8853L425.501 57.1957H423.965C423.965 57.6565 423.965 58.2709 423.965 58.8853ZM422.301 60.7285L423.837 59.0389C423.325 59.0389 422.813 59.0389 422.301 59.0389V60.7285ZM420.637 64.4149C420.637 65.0293 420.509 65.4902 420.637 65.951C420.765 66.4118 421.149 66.719 421.405 67.0262C421.405 67.0262 421.917 66.719 421.917 66.5654C422.045 66.1046 422.045 65.4902 421.917 65.183C421.533 64.8758 421.021 64.7221 420.637 64.4149Z" fill="black"/>
<path d="M370.929 98.0552C370.161 99.7448 369.137 101.434 368.753 103.124C367.473 109.422 363.633 113.262 360.049 117.255C358.769 118.638 357.233 119.406 355.441 119.559C348.529 120.635 342.129 118.638 336.625 113.723C330.609 108.193 326.257 100.974 323.569 92.372C320.369 82.3879 320.113 72.0966 321.137 61.8052C322.033 52.8964 326.257 26.7841 332.401 20.64C334.065 18.6432 336.113 17.7216 338.417 18.6432C341.105 19.5648 343.665 20.7936 346.225 22.0224C346.993 22.3296 348.145 21.5616 348.401 20.7936C348.529 20.1792 348.529 19.5648 348.785 18.9504C348.913 17.8752 349.169 16.9536 349.425 16.032C349.937 14.8032 350.833 13.8816 351.857 13.4208C353.905 12.3455 356.209 12.1919 358.385 12.4991C361.073 12.8063 363.889 13.4208 366.577 13.8816C367.089 13.8816 367.729 14.0352 368.241 14.1888C375.665 17.568 382.065 22.7905 386.033 31.2385C387.441 34.157 388.209 37.3826 388.081 40.7618C388.081 44.1411 387.313 45.9843 384.497 45.9843C384.113 45.9843 383.473 45.5235 383.217 45.0627C382.833 44.1411 382.577 43.2195 382.449 42.1442C381.937 39.9938 381.553 37.6898 381.041 35.3858C380.145 32.1601 378.609 29.5489 376.049 28.0129L377.329 35.2322C376.945 36.3074 376.561 36.461 375.921 36.0002C373.873 34.6178 371.697 33.2354 370.673 30.1633C370.033 28.3201 368.753 26.7841 367.729 25.4017C366.065 23.4049 364.273 22.4833 361.713 23.4049C358.897 24.6337 355.825 25.0945 352.625 26.0161C352.497 26.7841 352.113 27.7057 352.113 28.6273C352.113 30.3169 351.729 32.0065 350.577 32.9282C345.201 37.8434 342.769 44.7555 340.337 51.9747C336.881 62.2661 335.601 73.0182 335.985 84.0775C336.241 90.0679 337.777 98.8232 340.721 104.046C341.745 106.196 343.281 107.271 344.945 107.271C350.193 107.271 357.105 96.0584 359.793 91.4504C360.433 90.3751 360.689 88.8391 361.457 88.0711C365.553 83.4631 367.473 77.0118 370.929 71.9429V71.7893L371.057 71.9429H370.929C371.057 73.479 371.057 75.1686 371.185 76.7046C371.441 78.855 372.081 79.4694 373.873 79.1622C374.897 79.0086 376.049 78.7014 377.073 78.855C377.329 78.855 377.841 79.623 377.841 80.2374C377.969 80.8518 377.841 81.4663 377.585 82.0807C376.049 85.9207 375.025 89.9143 375.153 94.2152C375.153 96.5192 374.641 98.8232 373.233 100.513C372.849 100.974 372.209 101.281 371.825 101.127C371.441 100.974 371.185 100.206 370.929 99.7448C370.929 99.284 370.929 98.6696 370.929 98.0552ZM351.601 48.2883C351.985 48.2883 352.497 48.1347 353.009 48.2883C356.081 48.7491 358.769 50.2851 361.457 51.9747C363.249 53.2036 364.657 56.4292 364.273 58.7332C363.249 64.5701 360.433 78.3942 353.905 78.3942C350.321 78.3942 346.097 74.8614 345.841 70.4069C345.329 63.8021 346.353 57.3508 348.273 51.0531C348.657 49.3635 349.937 48.4419 351.601 48.2883ZM384.753 54.7396C385.009 56.4292 384.497 57.8116 383.729 59.0404C383.601 59.3476 383.345 59.5012 383.089 59.3476C382.833 59.3476 382.577 59.194 382.577 58.8868C382.193 57.3508 382.193 55.8148 382.961 54.4324C383.217 53.9716 383.857 53.9716 384.369 53.9716C384.497 53.9716 384.625 54.4324 384.753 54.7396ZM382.193 69.7925C381.937 70.5605 381.553 71.7894 381.041 72.8646C380.657 73.6326 379.377 73.7862 378.993 73.3254C378.737 72.8646 378.481 72.0966 378.609 71.6358C378.737 70.7141 379.121 69.7925 379.377 69.0245C379.889 67.7957 380.785 67.1813 381.297 67.7957C381.553 68.2565 381.809 68.8709 382.193 69.7925ZM371.185 71.4821C371.313 71.1749 371.441 71.0213 371.441 70.7141C371.441 70.8677 371.441 71.0213 371.313 71.1749C371.313 71.3285 371.185 71.4821 371.185 71.4821Z" fill="black"/>
<path d="M254.425 99.5913C252.249 102.971 250.841 106.811 249.305 110.651C248.921 111.726 248.025 112.801 247.257 113.262C245.721 113.876 244.697 115.105 243.673 116.487C242.265 118.177 240.473 118.177 238.681 117.563C238.425 117.409 238.169 117.102 238.169 116.948C238.041 116.334 237.913 115.566 238.169 115.259C240.857 112.494 243.673 109.883 246.489 107.271C247.513 106.196 248.409 105.121 248.921 103.739C253.401 93.4472 255.449 82.6951 257.113 71.3286C257.241 69.7926 257.113 68.2566 256.985 66.7205C256.857 65.0309 255.449 63.3413 254.041 63.0341C251.481 62.5733 248.921 62.8805 246.361 63.6485C244.953 64.1093 243.417 64.2629 242.009 64.2629C239.193 64.2629 236.377 63.4949 233.689 61.9589C233.305 61.8053 233.177 61.0373 233.049 60.5765C233.049 60.4229 233.305 59.9621 233.433 59.8085C235.353 58.8869 237.273 57.5044 239.321 57.5044C239.961 57.5044 240.601 57.658 241.369 57.9653C242.009 58.2725 242.649 57.9653 242.649 57.3508C242.649 56.89 242.137 56.4292 241.753 56.122C240.985 55.6612 240.217 55.5076 239.577 55.0468C239.321 55.0468 239.193 54.7396 239.193 54.4324C239.193 54.2788 239.321 53.818 239.577 53.818C244.569 52.8964 249.689 52.1284 254.681 51.2068C256.857 50.8996 258.393 49.5172 259.161 46.7523C259.545 45.0627 260.441 43.3731 260.825 41.6835C261.081 40.3011 261.337 38.6115 261.209 37.229C260.697 33.389 260.057 31.3922 256.345 32.0066C255.321 32.1602 254.297 32.3138 253.273 32.3138C251.225 32.0066 250.201 28.781 250.201 26.6305C250.201 21.1009 251.481 16.3392 255.577 13.1136C256.985 11.8848 257.497 10.3488 257.625 8.50555C257.625 6.96954 257.625 5.43352 257.753 3.8975C257.881 2.20789 259.417 0.671875 260.953 0.671875C265.817 0.671875 274.905 2.8223 277.081 8.96635C278.105 12.0384 280.281 12.8064 282.713 12.6528C283.993 12.4992 285.273 12.4992 286.553 12.192C290.777 11.1168 295.129 10.8096 299.481 10.8096C303.065 10.8096 306.649 11.1168 310.233 11.424C311.641 11.5776 313.305 11.7312 314.713 11.424C318.425 10.5024 319.065 12.192 319.577 16.3392C319.833 18.6433 320.217 21.1009 320.345 23.5585C320.601 25.4017 320.217 27.2449 319.577 28.9346C318.425 31.6994 316.505 33.2354 314.073 33.0818C313.305 32.9282 312.537 32.9282 311.769 32.7746C302.297 30.317 292.569 29.7026 282.841 29.8562C281.561 29.8562 280.281 29.8562 279.001 30.1634C276.313 30.4706 276.057 34.157 276.057 36.6146C276.185 38.6115 277.465 40.1475 279.001 40.3011C282.073 40.6083 285.145 40.4547 288.089 39.3795C290.649 38.3043 293.081 38.3043 295.641 38.6115C297.305 38.7651 298.841 39.8403 299.225 41.6835C300.121 45.8307 300.889 49.978 301.529 54.1252C301.913 56.4292 299.609 59.6549 297.433 60.2693C296.025 60.5765 294.489 60.7301 292.953 60.7301C289.113 60.7301 285.273 60.4229 281.433 60.5765C273.625 60.8837 273.241 61.8053 272.089 70.407C271.065 78.2407 269.913 86.0743 268.249 93.7544C267.353 97.4408 266.457 100.82 265.689 104.353C264.793 108.654 262.617 112.187 260.441 115.566C258.521 118.331 256.089 119.713 253.017 119.867C251.737 119.867 250.457 119.867 249.689 118.331C249.049 117.255 249.689 116.027 250.073 114.951C252.633 109.268 254.169 106.043 254.425 99.5913ZM291.033 14.496V14.6496C287.449 14.6496 283.865 14.6496 280.409 14.6496C279.641 14.6496 278.873 15.1104 278.105 15.264C277.593 15.4176 277.081 16.9536 277.593 17.568C277.977 18.1824 278.617 18.9505 279.257 19.1041C280.153 19.4113 281.305 19.5649 282.329 19.4113C289.881 18.0288 297.433 16.9536 305.113 17.7216C305.753 17.7216 306.137 17.2608 306.009 16.6464C306.009 16.3392 305.753 15.8784 305.625 15.8784C300.761 15.4176 295.897 14.9568 291.033 14.496ZM281.049 43.3731C279.897 43.6803 278.361 43.9875 276.953 44.4483C276.313 44.6019 276.185 45.3699 276.441 45.9843C276.569 46.2915 276.825 46.5987 276.953 46.5987C279.129 47.2131 280.921 46.2915 282.841 45.3699C282.969 45.2163 283.097 44.9091 283.097 44.6019C283.097 44.4483 282.969 43.9875 282.841 43.9875C282.329 43.6803 281.817 43.6803 281.049 43.3731ZM261.593 67.3349L261.465 66.7205L261.081 67.3349H261.593ZM257.753 82.5415C257.113 85.4599 256.857 86.2279 256.729 87.1495C256.729 87.764 256.857 88.2248 256.985 88.8392C257.369 88.532 258.009 88.532 258.265 88.0712C259.545 85.4599 260.441 82.5415 260.185 79.4695C260.185 79.1623 259.929 78.7015 259.801 78.7015C259.417 78.8551 258.777 79.0087 258.649 79.3159C258.137 81.0055 257.625 82.6951 257.753 82.5415ZM254.553 99.2841C254.809 98.8233 255.065 98.3625 255.193 98.0553C255.577 97.2872 255.449 96.8264 254.809 96.9801C254.681 96.9801 254.681 97.4409 254.681 97.7481C254.553 98.2089 254.553 98.6697 254.553 99.2841Z" fill="black"/>
<path d="M167.428 93.2918V101.586C167.94 100.665 168.58 99.743 168.836 98.8214C170.884 88.9909 172.164 79.1604 171.268 69.0227C170.884 63.8003 170.628 58.4242 170.756 53.2018C170.884 48.4401 170.116 43.8321 168.708 39.3776C167.172 34.3088 166.276 34.1552 162.18 34.9232C158.34 35.8448 154.5 36.92 150.66 38.1488C148.228 38.7632 145.796 38.9168 143.364 38.3024C142.596 38.1488 141.828 37.8416 141.444 37.2272C139.396 34.9232 138.244 32.0048 138.5 28.4719C138.628 27.5503 138.884 26.7823 139.14 25.8607C141.06 17.7198 140.036 17.4126 148.228 16.491C154.244 15.723 160.516 15.5694 166.532 14.0334C167.172 13.7262 167.94 14.0334 168.58 14.0334C169.092 14.6478 168.964 14.8014 168.196 15.1086C166.404 15.8766 166.148 16.6446 166.788 18.027C167.812 20.3311 169.22 22.0207 171.524 21.7135C175.876 21.0991 180.228 20.3311 184.58 19.4094C184.964 19.4094 185.476 18.795 185.476 18.3342C185.476 17.8734 184.964 17.259 184.58 17.1054C183.428 16.9518 182.148 16.9518 180.996 16.7982C179.844 16.7982 179.332 15.5694 180.1 14.3406C180.484 13.5726 180.996 12.651 181.508 12.4974C185.22 12.0366 188.932 12.3438 192.26 14.4942C193.028 14.955 192.9 15.723 192.388 16.6446C191.62 18.027 191.748 18.4878 192.516 18.6414C193.028 18.6414 193.412 18.795 193.924 18.795C196.228 18.4878 198.404 18.795 199.94 21.0991C200.068 21.2527 200.452 21.4063 200.708 21.2527C201.092 21.0991 201.604 20.7919 201.86 20.4847C201.988 20.0238 201.988 19.2558 201.732 18.795C200.836 17.259 199.044 17.5662 197.764 16.491C197.252 16.1838 197.124 14.8014 197.636 14.187C198.532 13.1118 199.556 12.3438 200.836 12.3438C204.292 12.651 207.62 12.8046 211.076 12.4974C212.228 12.4974 213.508 13.1118 214.532 14.0334C216.196 15.2622 217.348 17.259 217.732 19.7166C218.372 22.4815 218.5 25.3999 217.988 28.3183C217.732 29.8543 216.196 30.9296 215.172 30.4688C214.916 30.3152 214.66 30.1615 214.532 30.0079C210.692 26.7823 206.34 26.0143 201.86 26.0143C199.172 25.8607 196.484 25.8607 193.796 26.0143C193.412 26.0143 193.028 26.4751 192.516 26.6287C193.028 26.9359 193.284 27.5503 193.796 27.5503C196.1 27.8575 198.66 26.9359 200.964 28.0111C201.348 28.4719 201.22 29.0863 200.452 29.0863C195.076 29.7007 189.7 30.3152 184.324 30.9296C183.044 31.2368 181.124 30.4688 180.612 32.4656C180.228 33.848 181.636 34.9232 182.532 35.8448C184.708 37.8416 185.476 40.4529 185.348 43.6785C185.348 44.1393 185.348 44.7537 185.348 45.3681C186.628 54.7378 185.86 64.2611 185.22 73.6308C184.452 83.7685 182.404 104.505 176.516 112.338C172.676 118.022 167.812 120.786 161.668 119.558C160.388 119.404 159.236 119.097 158.084 118.79C157.7 118.636 157.316 117.868 157.316 117.407C157.188 116.946 157.316 116.178 157.444 115.718C157.828 114.642 158.212 113.414 158.724 112.492C161.796 106.809 164.356 100.665 166.66 94.5206C166.788 94.0598 167.172 93.7526 167.428 93.2918V93.1382H167.556L167.428 93.2918ZM175.876 12.4974L175.62 12.9582L175.364 12.4974H175.876ZM207.748 19.4094L208.004 20.0238L208.26 19.4094H207.748ZM206.596 23.2495L206.724 22.7887L206.212 22.9423L206.596 23.2495ZM184.068 23.4031L184.58 23.5567L184.452 22.9423L184.068 23.4031ZM180.74 25.8607C179.332 27.0895 177.54 26.6287 176.004 27.2431C175.748 27.2431 175.62 28.0111 175.492 28.4719C175.364 28.6255 175.748 28.9327 175.876 29.0863C178.948 29.7007 182.02 29.3935 185.092 28.9327C185.348 28.9327 185.732 28.0111 185.732 27.7039C185.732 27.2431 185.22 26.7823 184.836 26.4751C183.556 25.7071 182.148 25.7071 180.74 25.8607ZM167.556 92.9846C167.556 91.9094 167.556 90.9878 167.684 89.9126C167.684 89.759 167.94 89.2981 167.94 89.2981C168.58 89.2981 168.708 89.6053 168.708 90.3734C168.58 91.4486 168.324 92.3702 167.556 92.9846ZM167.428 102.047C166.404 103.583 166.148 105.273 166.02 107.116C167.044 105.58 167.428 103.89 167.428 102.047ZM165.892 107.423C164.484 108.652 163.588 110.342 163.076 112.338C164.74 111.417 165.508 109.574 165.892 107.423ZM162.948 112.799L161.796 115.718C162.436 114.95 162.692 113.874 162.948 112.799Z" fill="black"/>
<path d="M84.6129 55.1988C84.2289 54.5844 83.7169 53.8164 83.2049 53.0484C82.5649 52.1268 81.9249 52.434 81.2849 53.3556C80.9009 53.97 80.2609 53.97 80.0049 53.3556C79.7489 52.434 79.6209 51.5124 79.6209 50.5908C79.7489 47.6724 79.7489 44.6003 80.1329 41.5283C80.3889 38.3027 79.2369 36.7667 76.5489 35.3843C70.7889 32.6194 68.6129 27.5506 69.5089 20.4849C69.7649 18.7953 71.8129 16.4913 73.4769 16.1841C74.6289 16.0304 75.7809 16.1841 76.9329 16.1841C79.1089 16.0304 80.5169 15.1088 81.5409 12.9584C82.0529 11.8832 82.9489 10.808 83.9729 10.6544C85.8929 10.1936 87.8129 9.88639 89.7329 9.88639C94.3409 9.88639 98.5649 11.1152 102.149 14.3408C106.117 18.6417 110.981 19.4097 116.101 18.6417C117.893 18.3345 119.301 17.2593 119.941 15.416C120.453 14.0336 121.093 12.6512 121.605 11.2688C121.989 10.5008 123.909 9.88639 124.677 10.5008C126.085 11.4224 127.493 12.344 128.901 13.2656C129.669 13.7264 130.437 14.0336 130.949 14.0336C131.973 14.0336 132.741 13.2656 132.997 11.2688C133.125 10.5008 133.637 9.57918 134.149 8.96477C134.277 8.65758 135.301 8.65758 135.557 8.96477C137.861 11.7296 139.013 15.1088 139.525 18.6417C139.653 19.1025 139.269 19.8705 138.885 20.1777C137.989 20.7921 136.965 21.2529 135.813 21.8673C136.965 26.4754 137.221 28.7794 137.221 33.541C137.349 36.6131 136.709 39.5315 135.557 42.2963C132.613 49.8228 128.773 56.8885 122.885 62.2645C119.813 65.0294 117.509 68.5622 114.053 70.7126C113.925 70.8662 113.797 71.327 113.925 71.4806C114.309 71.9414 114.693 72.5558 115.077 72.7094C116.101 73.0166 117.253 73.1702 118.277 73.4774V73.3238C118.405 73.3238 118.533 73.3238 118.533 73.3238C119.429 72.863 120.325 72.4022 121.093 72.095C121.349 71.9414 121.733 71.9414 121.861 72.2486C122.373 72.7094 122.245 73.1702 121.477 73.1702C120.453 73.3238 119.557 73.3238 118.405 73.4774H118.277C118.405 73.631 118.533 73.9382 118.789 74.0918C121.221 77.0103 122.117 80.0823 121.861 84.0759C121.477 87.916 121.605 91.9096 121.605 95.9033C121.477 104.812 123.525 113.26 127.365 121.248C131.973 130.771 137.477 141.523 146.053 146.131C146.821 146.592 147.205 148.589 146.821 149.51C146.309 150.125 145.669 151.046 145.029 151.2C144.133 151.507 143.237 151.661 142.341 151.661C141.061 151.661 139.781 151.353 138.501 150.585C131.461 146.899 119.173 136.761 117.381 128.313C113.157 120.019 110.213 111.263 108.165 102.047C107.781 100.204 107.141 98.5145 105.861 97.2857C104.069 95.7497 103.173 93.4456 102.789 91.1416C102.149 88.3768 101.509 85.7656 100.997 83.1543C100.741 82.2327 99.3329 81.3111 98.3089 81.4647C93.0609 81.4647 92.0369 85.7656 92.0369 91.1416C91.7809 97.2857 91.7809 103.276 91.6529 109.267C91.5249 111.724 91.3969 114.182 91.1409 116.486C91.1409 117.407 89.6049 118.636 88.7089 118.636C86.6609 118.943 84.7409 118.636 82.9489 117.715C79.6209 115.871 77.3169 112.799 75.1409 109.727C74.7569 109.113 74.8849 107.884 75.0129 107.116C75.0129 106.041 75.5249 105.427 76.5489 105.734C77.5729 105.887 78.2129 105.427 78.5969 104.505C78.9809 103.123 79.2369 101.587 79.6209 100.204C80.0049 99.1289 80.2609 97.7465 80.9009 96.9785C82.4369 95.1353 82.6929 93.292 81.7969 91.1416C81.0289 89.2984 80.3889 87.3016 79.7489 85.612C77.0609 83.9224 74.5009 82.6935 72.1969 81.0039C70.1489 79.6215 69.3809 77.3175 69.5089 74.7062C69.6369 73.3238 70.7889 71.9414 72.1969 71.6342C74.3729 71.1734 76.5489 70.8662 78.7249 70.2518C81.0289 69.791 82.6929 68.1014 83.7169 65.7974C84.3569 64.4149 84.8689 63.0325 84.3569 61.4965C83.5889 59.3461 84.1009 57.3493 84.6129 55.1988ZM101.637 64.2613L103.173 60.7285C102.789 59.8069 102.789 58.8853 103.301 58.8853C103.813 58.2709 104.325 57.6565 104.965 57.0421C105.477 56.7349 106.117 56.5813 106.629 57.0421C110.469 55.3525 113.157 52.1268 114.821 48.2868C116.357 44.7539 118.533 41.5283 120.069 37.9955C121.605 34.7698 122.885 31.5442 124.037 28.165C124.549 26.7826 124.421 25.0929 124.293 23.7105C124.293 23.2497 123.525 22.4817 123.269 22.6353C120.965 23.8641 118.277 22.4817 115.845 23.4033C112.133 24.6321 108.421 25.8609 104.709 27.0898C103.941 27.397 103.429 28.0114 102.661 28.6258C104.325 30.3154 106.373 29.3938 108.037 29.8546C106.117 31.5442 104.709 32.1586 102.405 32.9266C100.101 33.8482 98.6929 35.6915 98.3089 38.3027C97.2849 45.0611 96.3889 51.9732 95.4929 58.7317C95.2369 60.8821 96.3889 61.9573 98.1809 62.5717L98.3089 64.2613H101.637ZM116.869 27.8578C116.869 28.0114 116.741 28.0114 116.485 28.0114C114.053 30.0082 111.237 30.0082 108.421 29.701C109.573 28.6258 111.109 28.165 112.645 28.165C113.925 28.0114 115.589 27.8578 116.869 27.8578C117.125 27.7042 117.381 27.5506 117.637 27.397C117.509 27.5506 117.381 27.7042 117.253 27.8578C117.125 27.8578 116.997 27.8578 116.869 27.8578ZM108.293 29.8546H108.037L108.165 29.701C108.293 29.701 108.293 29.701 108.421 29.701L108.293 29.8546ZM83.7169 45.3684L83.4609 44.6003C83.0769 44.9075 82.6929 45.0611 82.3089 45.3684C82.3089 45.3684 82.5649 45.8292 82.5649 45.9828C82.9489 45.8292 83.3329 45.522 83.7169 45.3684ZM85.6369 54.738L84.9969 55.1988C84.9969 55.1988 85.1249 55.1988 85.2529 55.1988C85.3809 55.0452 85.5089 54.8916 85.6369 54.738ZM104.965 58.8853L106.501 57.1957H104.965C104.965 57.6565 104.965 58.2709 104.965 58.8853ZM103.301 60.7285L104.837 59.0389C104.325 59.0389 103.813 59.0389 103.301 59.0389V60.7285ZM101.637 64.4149C101.637 65.0293 101.509 65.4902 101.637 65.951C101.765 66.4118 102.149 66.719 102.405 67.0262C102.405 67.0262 102.917 66.719 102.917 66.5654C103.045 66.1046 103.045 65.4902 102.917 65.183C102.533 64.8758 102.021 64.7221 101.637 64.4149Z" fill="black"/>
<path d="M8.24872 103.433L8.12072 103.28C8.63272 102.358 9.14472 101.436 9.52872 100.515C10.1687 98.8251 11.0647 97.4427 12.4727 96.3674V96.0603V96.3674C11.7047 99.1323 11.0647 101.897 10.4247 104.662C10.2967 105.123 10.1687 105.891 10.2967 106.352C10.4247 106.812 11.0647 107.273 11.3207 107.273C12.0887 107.12 12.9847 106.812 13.2407 106.198C15.4167 102.512 17.8487 98.9787 19.2567 94.985C20.9207 90.6842 22.9687 86.537 25.1447 82.6969C26.0407 81.1609 26.5527 79.6249 26.6807 77.7817C26.9367 73.788 27.7047 70.1016 29.2407 66.5688C29.7527 65.3399 29.6247 63.8039 29.7527 62.2679C29.8807 61.4999 29.4967 61.0391 28.9847 61.0391C28.7287 61.0391 28.4727 61.3463 28.3447 61.4999C26.9367 67.0296 24.6327 71.7912 21.3047 76.092C20.9207 76.7065 20.5367 77.3209 20.1527 77.9353V78.2425C19.1287 80.7001 18.1047 83.1577 17.0807 85.6153L16.9527 85.3081C17.0807 85.0009 17.2087 84.8473 17.3367 84.5401L18.1047 82.6969C18.2327 82.3897 18.3607 82.0825 18.4887 81.7753L19.6407 79.1641C19.7687 78.8569 19.8967 78.5497 20.0247 78.2425L20.1527 77.9353C20.4087 74.7096 21.3047 71.7912 22.0727 68.7192C23.7367 62.4215 25.2727 56.1238 26.8087 49.8262C27.1927 48.1366 27.4487 46.4469 27.5767 44.6037C27.8327 43.3749 26.9367 42.1461 26.0407 41.9925C25.0167 41.9925 24.1207 41.8389 23.0967 41.9925C19.8967 42.2997 17.9767 40.3029 16.6967 37.0772C16.3127 35.6948 15.8007 34.1588 15.6727 32.7764C15.5447 30.4724 15.6727 28.0147 15.6727 25.7107C15.8007 23.8675 17.0807 22.1779 18.4887 21.8707C20.9207 21.4099 23.3527 21.1027 25.7847 20.6419C27.9607 20.3347 28.4727 19.5667 28.6007 16.341C28.7287 13.4226 29.2407 12.1938 30.6487 12.1938C31.1607 12.1938 31.8007 12.3474 32.5687 12.6546C35.3847 14.037 38.0727 15.2658 40.8887 16.6482C43.3207 17.877 45.7527 19.2595 48.1847 20.6419C49.8487 18.9523 50.4887 16.6482 51.2567 14.4978C52.4087 11.2722 53.5607 7.89295 54.5847 4.51371C54.9687 3.5921 56.3767 2.8241 57.1447 3.1313C57.6567 3.2849 58.1687 3.2849 58.5527 3.5921C62.3927 5.89613 66.1047 8.04655 69.8167 10.5042C71.0967 11.4258 72.3767 12.1938 73.9127 12.501C75.1927 12.6546 75.3207 13.5762 74.5527 15.1122C74.2967 15.573 73.9127 16.0338 73.6567 16.4946C74.2967 16.9554 75.0647 17.2626 75.5767 17.7234C76.8567 19.2595 76.3447 21.1027 75.9607 22.7923C75.7047 24.0211 74.8087 24.6355 73.7847 24.9427C73.5287 24.9427 73.2727 25.0963 73.1447 24.9427C70.8407 24.6355 68.5367 24.1747 66.6167 26.0179C63.1607 29.5508 60.9847 47.215 60.3447 52.4374C59.8327 56.7382 59.5767 61.1927 59.1927 65.6471C59.0647 66.8759 58.9367 68.1048 59.1927 69.3336C59.8327 72.252 59.5767 75.1704 59.1927 78.0889C59.0647 79.6249 58.8087 81.1609 59.0647 82.5433C59.8327 87.305 59.9607 92.0666 60.4727 96.8283C60.9847 102.051 62.2647 109.424 64.1847 114.032C64.5687 114.8 64.6967 115.568 64.9527 116.489C65.2087 117.564 64.5687 119.1 63.8007 119.408C62.9047 119.715 62.0087 119.868 61.1127 119.868C55.3527 119.868 51.2567 113.11 49.0807 107.58C48.6967 106.812 47.4167 106.659 47.1607 107.273C46.7767 108.041 46.3927 108.809 46.0087 109.731C45.3687 111.267 44.7287 112.803 43.8327 114.339C42.4247 117.257 40.5047 118.025 37.4327 117.257C37.0487 117.104 36.5367 116.796 36.0247 116.643C34.6167 115.875 30.7767 114.8 30.7767 112.649C30.6487 109.424 30.9047 106.659 31.1607 103.433C31.4167 99.2859 31.9287 95.1386 32.4407 90.9914C32.8247 88.841 36.4087 87.305 38.2007 87.9194C39.3527 88.2266 40.5047 88.9946 41.6567 89.4554C42.0407 89.609 42.5527 89.7626 43.0647 89.7626C44.0887 90.0698 45.2407 89.1482 45.3687 88.073C45.3687 86.0761 45.4967 83.9257 45.4967 81.7753C45.4967 75.0168 45.3687 68.1048 45.2407 61.3463C45.1127 52.591 45.7527 43.9893 46.9047 35.3876C47.0327 34.3124 47.1607 33.0836 47.0327 31.8548C47.0327 31.5476 46.3927 30.9332 46.1367 30.9332C45.6247 30.9332 44.9847 31.2404 44.8567 31.7012C44.4727 32.7764 44.2167 33.8516 44.0887 35.0804C41.9127 59.1959 30.5207 95.9066 18.1047 115.107C16.3127 117.718 13.8807 118.179 11.3207 117.257C6.71272 115.721 3.25672 111.267 0.696719 106.659C0.440719 106.044 0.824718 104.508 1.33672 104.201C3.00072 103.587 4.53672 102.819 6.20072 102.512C6.84072 102.358 7.60872 102.972 8.24872 103.433ZM31.4167 42.9141C31.2887 42.7605 30.9047 42.9141 30.7767 43.0677C30.7767 43.6821 30.7767 44.2965 30.7767 44.7573C30.7767 44.9109 31.1607 45.0645 31.2887 45.0645C31.9287 44.6037 31.9287 43.2213 31.4167 42.9141ZM32.0567 56.2774C31.9287 54.7414 32.0567 53.0518 31.0327 51.823C30.7767 51.5158 30.0087 51.5158 29.7527 51.823C28.9847 53.0518 29.2407 54.5878 30.2647 55.5094C30.7767 55.8166 31.4167 55.9702 32.0567 56.2774ZM16.9527 85.7689C16.9527 86.537 16.9527 87.1514 16.8247 87.9194C16.6967 91.6058 15.2887 94.3706 12.6007 96.0603C12.7287 94.0634 13.4967 92.3738 14.3927 90.6842C15.2887 88.9946 16.0567 87.4586 16.9527 85.7689Z" fill="black"/>
</svg>
