<svg width="157" height="118" viewBox="0 0 157 118" fill="none" xmlns="http://www.w3.org/2000/svg">
<path d="M69.7578 110.967C71.2938 106.366 73.7258 102.685 77.4378 100.231C78.4618 99.4644 79.3578 97.7773 79.6138 96.2436C81.0218 84.5874 82.3018 72.7778 83.5818 60.9682C83.7098 59.2811 82.5578 57.594 81.1498 57.1339C79.8698 56.6738 78.3338 56.5204 77.0538 56.0603C74.6218 55.1401 72.9578 53.1462 72.0618 50.5389C70.5258 46.7046 70.2698 42.5636 70.9098 38.7293C71.1658 36.8889 72.0618 35.6619 73.4698 35.2018C75.5178 34.4349 77.6938 34.1282 79.8698 33.5147C81.1498 33.208 82.3018 31.5209 82.1738 29.9872C81.7898 25.5394 81.4058 21.245 81.1498 16.7972C81.0218 15.5702 80.8938 14.0365 81.1498 12.8096C81.2778 12.0427 82.0458 11.4292 82.5578 10.6624C82.6858 10.509 82.9418 10.3556 83.1978 10.3556C88.3178 9.28201 93.3098 10.3556 97.9178 14.1899C99.8378 15.877 101.246 18.0242 101.63 20.9382C101.886 22.6253 102.27 24.3124 102.91 25.8461C103.038 26.3062 103.806 26.7664 104.318 26.7664C104.83 26.7664 105.342 26.613 105.726 26.1529C106.11 25.8461 106.366 25.0793 106.494 24.4658C106.75 22.1652 106.878 19.8646 107.134 17.5641C107.39 15.7236 109.182 14.3433 110.846 14.65C113.406 15.2635 115.966 15.877 118.398 16.7972C119.678 17.4107 120.702 18.791 121.854 19.8646C122.75 20.7849 123.39 22.0118 124.286 22.9321C124.542 23.2388 125.054 23.3922 125.438 23.3922C126.334 23.3922 127.486 22.7787 127.614 21.7051C127.614 21.3984 127.614 20.9382 127.742 20.6315L127.998 18.791C127.998 18.4843 127.998 18.0242 128.126 17.7174C128.766 13.5764 129.406 9.43539 130.046 5.14099C130.43 2.53368 131.966 1.61345 134.014 1.15333C137.342 0.386476 140.798 1.3067 144.126 1.61345C146.43 1.92019 148.35 3.76065 149.886 6.06122C150.91 7.44156 151.294 9.12864 151.038 10.8157C150.782 12.6562 150.398 14.65 149.758 16.4905C148.734 20.1714 147.582 23.6989 146.686 26.9197C146.942 31.5209 149.502 35.2018 149.118 39.1894C148.862 39.4962 148.734 39.9563 148.478 39.9563C144.638 41.0299 143.614 44.4041 143.87 48.8518C143.998 54.5266 144.126 60.2013 144.126 65.8761C144.254 66.4895 144.254 67.2564 144.382 67.8699C145.918 77.839 147.198 87.9615 150.142 97.7773C151.422 101.612 152.958 105.293 154.494 109.127C155.006 110.354 155.518 111.581 155.902 112.808C156.67 114.802 155.134 116.949 153.342 116.642C146.814 115.108 141.822 109.894 138.75 102.839C135.55 95.4767 132.35 88.1149 131.838 79.6795C131.71 78.7593 131.71 77.6857 131.326 76.7654C128.766 71.0907 128.638 64.9558 127.742 58.9743C127.358 55.6002 126.974 52.226 126.462 48.8518C126.334 47.9316 126.078 46.858 125.054 46.5513C124.03 46.2445 122.878 47.1647 122.622 48.5451C122.11 50.999 121.598 53.6063 121.342 56.2137C120.83 60.2013 120.702 64.189 120.19 68.0233C119.678 71.5508 118.014 73.8514 115.198 75.0783C113.534 75.8452 111.742 75.0783 110.59 73.3913C109.566 71.7042 108.798 69.8637 108.542 67.7165C108.03 63.1154 107.518 58.3609 107.006 53.7597C106.878 52.3794 106.366 51.1524 105.982 49.7721C105.854 49.6187 105.47 49.3119 105.342 49.3119C104.83 49.3119 104.19 49.1586 103.806 49.4653C103.422 49.7721 103.038 50.3855 102.91 50.999C102.526 52.226 102.014 53.453 102.014 54.6799C101.246 64.9558 99.1978 74.925 98.0458 85.0475C97.2778 91.1823 95.9978 97.3172 95.1018 103.452C94.0778 110.354 88.1898 117.255 82.1738 117.255C77.9498 117.255 73.8538 115.875 70.0138 113.114L69.8858 113.268L69.7578 111.274C69.7578 111.121 69.7578 111.121 69.7578 110.967ZM124.67 31.2141C125.054 30.754 124.926 30.2939 124.286 30.2939C124.158 30.2939 124.158 30.754 124.03 30.9074C124.158 31.0608 124.414 31.2141 124.67 31.2141ZM131.198 68.33L131.326 67.5631L130.814 67.7165L131.198 68.33Z" fill="black"/>
<path d="M6.67981 13.8814C6.42382 14.4948 6.03981 15.2617 5.91181 16.0286C5.52781 17.7156 6.03982 19.2494 6.93582 19.8628C8.08782 20.4763 9.36782 20.6297 10.3918 19.8628C11.1598 19.4027 11.9278 18.4825 12.4398 17.5623C13.8478 15.1083 16.0238 14.3415 18.0718 15.2617C20.1198 16.3353 22.2958 16.642 24.3438 16.642C27.4158 16.642 30.4878 15.8752 33.4318 14.8016C41.1118 12.1943 48.9198 11.274 56.7278 9.74033C57.6238 9.58696 58.5198 9.43359 59.5438 9.43359C63.2558 9.43359 66.3278 12.1943 67.2238 15.8752C67.7358 18.0224 68.6318 20.0162 69.2718 22.1634C69.9118 23.8505 69.7838 25.5376 69.6558 27.2247C69.3998 28.7584 68.2478 29.832 67.0958 29.2185C64.5358 27.8382 62.1038 27.2247 59.5438 27.2247C57.1118 27.2247 54.8078 27.6848 52.3758 28.4516C47.7678 29.6786 43.1598 31.059 38.5518 32.2859C37.7838 32.5927 37.2718 31.6724 37.5278 30.5988C37.7838 30.1387 38.0398 29.832 38.2958 29.3719C36.1198 29.6786 34.0718 29.832 32.0238 30.2921C27.0318 31.3657 23.1918 34.5865 21.0158 40.1079C17.4318 48.5433 14.9998 57.5922 13.9758 67.1012C13.2078 74.7698 13.3358 82.4384 13.8478 90.2603C14.1038 94.8615 16.1518 102.683 19.7358 105.291C20.6318 106.364 21.9118 106.671 23.0638 105.904C24.9838 104.677 26.7758 103.297 28.5678 101.917C30.2318 100.69 31.3838 98.8491 31.7678 96.3952C32.0238 93.7878 33.3038 91.6407 34.5838 89.4935C37.9118 84.1255 39.9598 78.144 41.6238 71.8557C42.1358 69.4018 42.7758 66.7945 43.4158 64.3405C43.6718 63.2669 42.7758 62.04 41.7518 62.04C40.0878 62.1933 38.4238 62.3467 36.7598 62.1933C34.7118 62.1933 33.0478 61.2731 31.6398 59.4327C28.8238 55.9051 27.5438 51.7641 28.6958 46.8562C28.9518 45.7826 29.3358 44.709 29.7198 43.6354C30.1038 42.4084 31.3838 41.6416 32.6638 41.795C34.0718 41.9483 35.4798 42.2551 36.8878 42.5618C39.9598 42.8686 43.1598 43.3287 46.1038 41.6416C46.6158 41.3348 47.5118 41.3348 48.1518 41.4882C50.7118 42.1017 53.2718 42.8686 55.8318 43.7888C56.9838 44.0955 58.1358 44.709 59.1598 45.3225C61.5918 47.0096 62.3598 49.3102 61.7198 52.531C61.4638 53.4512 61.3358 54.218 61.0798 54.9849C57.7518 64.3405 56.9838 74.4631 56.2158 84.4322C55.8318 89.4935 55.8318 94.7081 56.9838 99.7693C58.0078 103.91 58.6478 108.051 59.4158 112.346C59.5438 113.266 58.3918 114.646 57.6238 114.646C56.9838 114.646 56.0878 114.8 55.5758 114.493C52.5038 112.959 50.4558 110.199 48.7918 106.978C48.5358 106.518 48.5358 105.904 48.2798 105.444C45.0798 98.6957 44.5678 91.3339 44.0558 83.8187C44.0558 82.4384 43.9278 81.058 43.9278 79.6777C43.7998 78.9108 43.5438 78.6041 43.0318 78.6041C42.7758 78.6041 42.5198 78.7575 42.3918 78.9108C39.8318 84.4322 37.3998 89.9536 34.8398 95.4749C34.5838 96.2418 34.5838 97.162 34.4558 98.0823C34.3278 99.0025 35.6078 100.383 36.2478 100.076C37.0158 99.9227 37.6558 99.616 38.2958 99.1558C38.9358 98.5424 39.5758 98.389 40.0878 98.389C40.9838 98.389 41.8798 99.0025 42.6478 99.9227C42.1358 108.512 34.9678 116.794 27.5438 116.794C25.8798 116.794 24.0878 116.487 22.2958 115.567C12.0558 110.812 7.95982 100.843 3.60782 89.8002C3.22382 88.4199 2.71182 87.1929 2.45582 85.6592C1.04782 76.1501 0.0238163 66.4877 1.81582 56.8253C2.71182 51.1506 3.47981 45.4759 4.75981 40.1079C5.39981 37.8073 5.14381 35.5067 4.11981 33.5129C1.94381 28.9118 0.919816 24.0039 0.919816 18.7892C0.919816 15.2617 2.07181 13.8814 5.27181 13.728C5.78381 13.728 6.16782 13.728 6.67981 13.8814ZM47.7678 18.7892C48.4078 18.7892 49.1758 18.9426 49.8158 18.6359C53.2718 17.2555 56.7278 16.642 60.3118 16.1819C60.4398 16.0286 60.8238 15.7218 60.6958 15.5684C60.6958 14.955 60.5678 14.3415 60.3118 14.0347C59.0318 12.9611 57.6238 12.6544 56.2158 12.9611C53.0158 13.8814 49.6878 15.1083 46.4878 16.1819C46.2318 16.3353 45.9758 17.1022 45.9758 17.5623C46.1038 18.0224 46.6158 18.3291 46.9998 18.6359C47.1278 18.7892 47.3838 18.7892 47.7678 18.7892ZM6.67981 13.8814V13.728L6.80782 13.8814H6.67981ZM38.4238 29.2185C41.6238 28.605 44.9518 28.1449 48.1518 27.378C49.6878 26.9179 51.2238 25.9977 52.7598 25.2308C52.8878 25.2308 53.0158 24.7707 52.8878 24.464C52.8878 24.3106 52.6318 24.0039 52.3758 24.0039C51.4798 24.0039 50.4558 23.6971 49.5598 24.1572C47.3838 25.0775 45.2078 25.8443 42.7758 25.8443C42.5198 24.1572 42.3918 22.4702 42.0078 20.9364C41.6238 19.5561 40.8558 18.7892 39.8318 18.7892C39.0638 18.7892 38.2958 19.2494 37.3998 20.0162C37.2718 20.1696 37.1438 20.4763 37.0158 20.7831C37.9118 21.5499 38.8078 22.4702 37.6558 24.0039C37.2718 24.6174 37.0158 25.3842 37.3998 26.3044C37.6558 27.2247 38.0398 28.1449 38.4238 29.2185ZM36.1198 21.0898L36.7598 20.7831C36.6318 20.7831 36.5038 20.7831 36.3758 20.7831C36.2478 20.7831 36.2478 21.0898 36.1198 21.0898ZM42.6478 25.8443H42.7758H42.6478ZM42.6478 25.8443C42.6478 25.9977 42.5198 25.9977 42.5198 25.9977L41.8798 26.3044C42.0078 26.1511 42.1358 25.9977 42.2638 25.9977C42.2638 25.9977 42.3918 25.9977 42.5198 25.9977L42.6478 25.8443Z" fill="black"/>
</svg>
