<svg width="138" height="126" viewBox="0 0 138 126" fill="none" xmlns="http://www.w3.org/2000/svg">
<path d="M81.2602 85.9574C80.1082 85.804 78.9562 85.6505 78.5722 87.1851C76.5242 92.7094 75.3722 102.991 75.1162 108.822C74.7322 112.966 72.3002 121.252 68.0762 121.713C66.6682 121.866 65.5162 121.252 64.4922 120.025C64.4922 119.718 64.4922 119.257 64.6202 119.104C73.7082 109.283 75.6282 93.3233 76.0122 79.2054C76.0122 74.6017 76.7802 70.305 78.5722 66.1617C79.2122 64.4737 79.3402 62.3253 78.7002 60.4838C76.0122 52.3507 75.5002 43.6037 73.5802 35.3172C72.6842 31.4808 71.9162 27.9513 69.8682 24.7287C68.3322 22.12 68.8442 20.2785 70.8922 17.9767C71.7882 17.2094 72.8122 16.4422 73.8362 16.7491C77.8042 17.3629 81.7722 18.2836 85.7402 19.2043C87.7882 19.8182 90.6042 21.8131 90.8602 24.5753C91.2442 27.7978 91.6282 31.0204 91.7562 34.0895C92.5242 50.6627 98.0282 62.4787 105.964 75.369C107.244 77.5174 108.78 79.0519 111.34 78.1312C111.724 77.9777 112.236 78.2846 113.004 78.4381C113.516 73.8344 112.876 68.7704 115.18 64.6271V64.4737C113.644 61.2511 113.388 57.7216 114.284 54.1922C115.436 49.1281 115.436 44.0641 115.052 39.0001C114.796 35.1637 114.796 31.3273 116.076 27.4909C116.972 24.8822 116.972 21.8131 116.588 18.8974C115.82 13.68 117.228 8.76938 118.38 3.70536C118.636 2.47771 119.66 1.71044 120.812 1.40352C121.58 1.09661 122.348 0.789707 123.116 0.94316C126.316 1.71044 129.516 2.32426 132.588 3.39844C133.996 4.01226 135.276 5.39336 136.556 6.62101C137.58 7.69519 137.836 9.38321 137.58 11.0712C137.452 12.2989 136.94 13.5265 136.556 14.7541C135.788 17.3629 134.892 20.1251 134.124 22.8873C129.644 37.1586 128.236 52.1972 126.956 67.2359C126.444 74.6017 126.06 82.121 126.444 89.4869C126.7 92.8629 127.34 95.7786 129.9 97.7735C130.54 98.2338 131.052 99.0011 131.564 99.7684C132.46 100.843 132.46 103.144 131.564 104.219C131.436 104.372 131.308 104.679 131.052 104.832C127.596 106.52 127.212 109.743 127.852 113.579C128.236 115.114 128.62 116.648 128.876 118.183C129.26 120.331 127.724 122.787 125.676 122.787C124.396 122.94 122.988 122.787 121.836 122.326C118.38 120.945 112.108 115.728 111.596 110.817C111.084 106.981 110.7 103.144 110.188 99.4615C110.06 97.7735 109.548 96.2389 108.396 95.1647C104.044 91.3284 100.588 86.4178 96.4922 82.2745C95.4682 81.2003 93.6762 82.2745 93.4202 83.809C93.2922 84.5763 93.0362 85.1901 93.0362 85.804C93.1642 92.8629 91.7562 99.7684 90.3482 106.674C89.0682 114.5 85.7402 125.702 77.6762 125.702C76.7802 125.702 75.7562 125.395 74.7322 125.089C73.0682 124.475 72.4282 122.94 73.3242 121.559C75.1162 118.336 77.2922 115.267 78.7002 111.891C81.9002 103.605 84.0762 95.1647 81.2602 85.9574ZM115.308 64.7806C115.308 65.2409 115.308 65.7013 115.308 66.1617C115.308 67.0824 115.692 67.2359 116.076 66.7755C116.076 66.622 116.076 66.1617 115.948 66.0082C115.692 65.5479 115.436 65.0875 115.308 64.7806Z" fill="black"/>
<path d="M5.99231 22.2744C5.73632 22.8882 5.35231 23.6555 5.22431 24.4228C4.84031 26.1108 5.35232 27.6454 6.24832 28.2592C7.40032 28.873 8.68032 29.0265 9.70432 28.2592C10.4723 27.7988 11.2403 26.8781 11.7523 25.9573C13.1603 23.5021 15.3363 22.7348 17.3843 23.6555C19.4323 24.7297 21.6083 25.0366 23.6563 25.0366C26.7283 25.0366 29.8003 24.2693 32.7443 23.1952C40.4243 20.5864 48.2323 19.6657 56.0403 18.1311C56.9363 17.9777 57.8323 17.8242 58.8563 17.8242C62.5683 17.8242 65.6403 20.5864 66.5363 24.2693C67.0483 26.4177 67.9443 28.4126 68.5843 30.561C69.2243 32.249 69.0963 33.937 68.9683 35.625C68.7123 37.1596 67.5603 38.2338 66.4083 37.62C63.8483 36.2389 61.4163 35.625 58.8563 35.625C56.4243 35.625 54.1203 36.0854 51.6883 36.8527C47.0803 38.0803 42.4723 39.4614 37.8643 40.6891C37.0963 40.996 36.5843 40.0752 36.8403 39.0011C37.0963 38.5407 37.3523 38.2338 37.6083 37.7734C35.4323 38.0803 33.3843 38.2338 31.3363 38.6941C26.3443 39.7683 22.5043 42.9909 20.3283 48.5153C16.7443 56.9553 14.3123 66.0092 13.2883 75.5234C12.5203 83.1962 12.6483 90.869 13.1603 98.6952C13.4163 103.299 15.4643 111.125 19.0483 113.734C19.9443 114.808 21.2243 115.115 22.3763 114.348C24.2963 113.12 26.0883 111.739 27.8803 110.358C29.5443 109.13 30.6963 107.289 31.0803 104.833C31.3363 102.225 32.6163 100.076 33.8963 97.9279C37.2243 92.557 39.2723 86.5722 40.9363 80.2805C41.4483 77.8253 42.0883 75.2165 42.7283 72.7612C42.9843 71.687 42.0883 70.4594 41.0643 70.4594C39.4003 70.6129 37.7363 70.7663 36.0723 70.6129C34.0243 70.6129 32.3603 69.6921 30.9523 67.8507C28.1363 64.3212 26.8563 60.1779 28.0083 55.2673C28.2643 54.1931 28.6483 53.1189 29.0323 52.0448C29.4163 50.8171 30.6963 50.0498 31.9763 50.2033C33.3843 50.3567 34.7923 50.6637 36.2003 50.9706C39.2723 51.2775 42.4723 51.7378 45.4163 50.0498C45.9283 49.7429 46.8243 49.7429 47.4643 49.8964C50.0243 50.5102 52.5843 51.2775 55.1443 52.1982C56.2963 52.5051 57.4483 53.1189 58.4723 53.7328C60.9043 55.4208 61.6723 57.7226 61.0323 60.9452C60.7763 61.8659 60.6483 62.6332 60.3923 63.4005C57.0643 72.7612 56.2963 82.8893 55.5283 92.8639C55.1443 97.9279 55.1443 103.145 56.2963 108.209C57.3203 112.353 57.9603 116.496 58.7283 120.793C58.8563 121.713 57.7043 123.095 56.9363 123.095C56.2963 123.095 55.4003 123.248 54.8883 122.941C51.8163 121.407 49.7683 118.644 48.1043 115.422C47.8483 114.961 47.8483 114.348 47.5923 113.887C44.3923 107.135 43.8803 99.7694 43.3683 92.2501C43.3683 90.869 43.2403 89.4879 43.2403 88.1068C43.1123 87.3395 42.8563 87.0326 42.3443 87.0326C42.0883 87.0326 41.8323 87.186 41.7043 87.3395C39.1443 92.8639 36.7123 98.3883 34.1523 103.913C33.8963 104.68 33.8963 105.601 33.7683 106.521C33.6403 107.442 34.9203 108.823 35.5603 108.516C36.3283 108.363 36.9683 108.056 37.6083 107.596C38.2483 106.982 38.8883 106.828 39.4003 106.828C40.2963 106.828 41.1923 107.442 41.9603 108.363C41.4483 116.956 34.2803 125.243 26.8563 125.243C25.1923 125.243 23.4003 124.936 21.6083 124.015C11.3683 119.258 7.27232 109.284 2.92032 98.2348C2.53632 96.8537 2.02432 95.6261 1.76832 94.0915C0.360316 84.5773 -0.663684 74.9096 1.12832 65.2419C2.02432 59.5641 2.79231 53.8862 4.07231 48.5153C4.71231 46.2135 4.45631 43.9116 3.43231 41.9167C1.25631 37.313 0.232316 32.4025 0.232316 27.185C0.232316 23.6555 1.38431 22.2744 4.58431 22.121C5.09631 22.121 5.48032 22.121 5.99231 22.2744ZM47.0803 27.185C47.7203 27.185 48.4883 27.3384 49.1283 27.0315C52.5843 25.6504 56.0403 25.0366 59.6243 24.5762C59.7523 24.4228 60.1363 24.1159 60.0083 23.9624C60.0083 23.3486 59.8803 22.7348 59.6243 22.4279C58.3443 21.3537 56.9363 21.0468 55.5283 21.3537C52.3283 22.2744 49.0003 23.5021 45.8003 24.5762C45.5443 24.7297 45.2883 25.497 45.2883 25.9573C45.4163 26.4177 45.9283 26.7246 46.3123 27.0315C46.4403 27.185 46.6963 27.185 47.0803 27.185ZM5.99231 22.2744V22.121L6.12032 22.2744H5.99231ZM37.7363 37.62C40.9363 37.0061 44.2643 36.5458 47.4643 35.7785C49.0003 35.3181 50.5363 34.3974 52.0723 33.6301C52.2003 33.6301 52.3283 33.1697 52.2003 32.8628C52.2003 32.7094 51.9443 32.4025 51.6883 32.4025C50.7923 32.4025 49.7683 32.0956 48.8723 32.5559C46.6963 33.4767 44.5203 34.2439 42.0883 34.2439C41.8323 32.5559 41.7043 30.8679 41.3203 29.3334C40.9363 27.9523 40.1683 27.185 39.1443 27.185C38.3763 27.185 37.6083 27.6454 36.7123 28.4126C36.5843 28.5661 36.4563 28.873 36.3283 29.1799C37.2243 29.9472 38.1203 30.8679 36.9683 32.4025C36.5843 33.0163 36.3283 33.7836 36.7123 34.7043C36.9683 35.625 37.3523 36.5458 37.7363 37.62ZM35.4323 29.4868L36.0723 29.1799C35.9443 29.1799 35.8163 29.1799 35.6883 29.1799C35.5603 29.1799 35.5603 29.4868 35.4323 29.4868ZM41.9603 34.2439H42.0883H41.9603ZM41.9603 34.2439C41.9603 34.3974 41.8323 34.3974 41.8323 34.3974L41.1923 34.7043C41.3203 34.5508 41.4483 34.3974 41.5763 34.3974C41.5763 34.3974 41.7043 34.3974 41.8323 34.3974L41.9603 34.2439Z" fill="black"/>
</svg>
