<svg width="1307" height="157" viewBox="0 0 1307 157" fill="none" xmlns="http://www.w3.org/2000/svg">
<path d="M1251.56 32.4414C1251.95 29.995 1252.33 26.9369 1252.97 24.0318C1253.36 22.5028 1254.25 21.2795 1255.15 20.2092C1256.3 18.6802 1257.84 17.9157 1259.63 18.3744C1266.54 20.0563 1273.58 21.5853 1280.49 23.8789C1282.67 24.6434 1284.84 24.9492 1286.89 24.9492C1289.84 24.9492 1292.78 24.1847 1295.72 22.3499C1296.88 21.7382 1298.03 20.9737 1299.31 20.6679C1299.82 20.515 1300.59 20.6679 1301.1 21.1266C1303.79 24.1847 1305.71 27.7014 1306.6 31.9827C1307.24 35.1936 1306.48 38.0988 1304.81 40.6981C1304.56 41.3097 1303.79 41.6155 1303.15 41.6155C1302.25 41.6155 1301.23 41.3097 1300.33 41.0039C1298.67 40.3923 1297 40.0865 1295.47 40.0865C1292.27 40.0865 1289.2 41.3097 1286.25 43.4504C1283.44 45.591 1280.49 46.8142 1277.17 46.9671C1274.61 46.9671 1272.05 47.5787 1269.36 47.8845C1266.54 48.1903 1263.6 48.3432 1260.65 48.3432C1252.97 48.3432 1251.95 39.6278 1251.56 32.4414ZM1296.36 61.3399C1297.39 64.7038 1298.28 66.6915 1298.67 68.985C1299.05 71.2786 1299.05 73.5721 1298.8 75.8656C1298.28 80.4527 1294.83 83.2049 1291.12 83.2049C1280.62 83.5108 1270.38 85.8043 1260.14 87.4862C1259.76 87.6391 1259.5 87.6391 1259.12 87.6391C1254.12 89.0152 1250.16 86.7217 1246.96 82.4404C1243.76 78.3121 1243.63 74.6424 1243.63 69.4437C1243.63 62.5631 1245.29 60.2696 1251.18 60.5754C1254.38 60.8812 1257.71 60.7283 1260.91 60.5754C1266.8 60.2696 1272.68 60.1167 1278.44 62.1044C1281.26 63.0218 1284.21 62.8689 1287.15 62.4102C1289.97 62.1044 1292.91 61.7986 1296.36 61.3399ZM1284.84 115.162C1284.72 116.385 1284.59 116.996 1284.72 117.761C1284.85 119.137 1284.33 120.207 1283.31 120.36C1272.68 122.042 1261.93 123.571 1251.31 125.1C1248.62 125.559 1246.06 124.641 1243.76 123.265C1240.3 121.125 1238.12 117.914 1238.12 113.021C1238.12 109.504 1238.38 106.14 1238.64 102.624C1238.89 100.636 1241.2 98.4952 1242.99 98.4952C1244.01 98.4952 1244.91 98.3423 1245.93 98.4952C1251.69 99.5655 1257.45 100.789 1263.34 101.706C1266.92 102.165 1270.64 102.624 1274.22 102.624C1277.68 102.624 1281.26 102.165 1284.72 101.095C1287.79 100.177 1291.12 100.024 1294.44 99.7184C1297.26 99.4126 1300.21 99.2597 1303.15 98.9539C1304.3 98.9539 1305.07 99.7184 1305.2 100.942C1305.45 102.012 1305.33 103.235 1304.94 104.153C1304.81 104.764 1303.92 105.376 1303.41 105.376C1301.49 105.223 1299.44 105.07 1297.65 104.611C1294.83 103.847 1292.14 103.388 1289.32 103.388C1286 103.388 1282.67 104 1279.34 105.376C1279.47 108.281 1281.13 110.88 1282.93 110.727C1284.59 110.727 1286.25 110.574 1287.79 110.269C1291.37 109.351 1294.96 108.74 1298.54 109.351C1299.44 109.504 1300.33 110.269 1300.97 111.033C1301.36 111.492 1301.49 112.409 1301.36 113.174C1301.23 113.785 1300.72 114.703 1300.2 114.703C1297.26 114.703 1294.32 114.55 1291.5 114.55C1289.2 114.703 1286.89 114.397 1284.84 115.162ZM1294.06 117.608C1293.93 117.761 1293.68 118.22 1293.42 118.22C1293.17 118.22 1292.65 118.22 1292.53 118.067C1292.14 117.302 1292.53 116.843 1293.42 116.996C1293.68 117.149 1293.93 117.455 1294.06 117.608Z" fill="black"/>
<path d="M1171 106.448C1171.26 105.377 1171.26 104.46 1171.51 104.001C1172.02 103.237 1172.54 102.319 1173.3 102.167C1174.71 101.861 1173.69 102.167 1175.22 102.014C1176.38 101.861 1176.76 100.179 1176.12 98.8027C1175.86 97.8853 1175.22 96.9679 1175.1 96.0505C1168.31 61.3416 1178.55 43.7579 1174.07 21.2813C1173.82 20.058 1175.22 18.3761 1176.38 18.2232C1176.63 18.2232 1176.89 18.0703 1177.02 18.0703C1181.5 18.9877 1189.05 20.2109 1192.5 23.5748C1194.3 25.4096 1188.28 78.008 1189.43 88.5582C1189.69 91.1576 1190.2 93.9098 1190.84 96.6621C1191.22 98.4969 1192.89 100.179 1190.97 100.179C1196.22 100.026 1198.14 100.026 1196.86 99.873C1193.78 99.4143 1202.62 99.7201 1205.69 100.485C1212.47 102.167 1219.26 103.543 1225.78 103.543C1226.42 103.543 1227.19 103.696 1227.83 104.307C1228.47 104.766 1229.37 105.683 1229.5 106.448C1230.01 109.965 1230.52 113.481 1231.29 117.151C1231.54 118.527 1230.9 119.75 1230.65 120.974C1230.26 122.044 1229.62 122.503 1228.6 122.35C1227.06 122.197 1225.4 122.044 1223.74 121.585C1219.64 120.362 1215.67 119.75 1211.83 119.75C1208.38 119.75 1204.92 120.209 1201.59 120.821C1196.6 121.891 1191.61 123.114 1186.74 124.337C1184.82 124.796 1183.03 125.255 1180.86 124.949C1179.19 124.796 1177.66 123.879 1176.25 121.891C1173.82 118.986 1171.77 114.705 1171.38 110.576C1171.26 109.2 1171.13 107.671 1171 106.448ZM1195.32 104.613C1194.94 104.001 1194.55 103.39 1194.17 103.237C1192.89 102.472 1191.86 102.778 1191.35 104.001C1191.22 104.307 1191.48 105.377 1191.74 105.53C1192.5 106.142 1193.14 106.448 1193.66 106.448C1194.42 106.448 1194.94 105.989 1195.45 105.377C1195.58 105.225 1195.45 104.766 1195.32 104.613ZM1207.1 108.13C1210.17 110.729 1213.11 112.105 1216.06 111.494C1216.44 111.494 1216.95 111.646 1217.34 111.646C1218.87 111.341 1220.28 111.035 1221.69 110.576C1221.94 110.576 1222.07 109.812 1222.07 109.353C1222.07 109.2 1221.82 108.741 1221.69 108.588C1217.72 105.683 1214.01 104.46 1210.55 104.46C1209.27 104.46 1207.99 104.613 1206.71 104.919C1206.46 105.072 1206.46 105.836 1206.58 106.448C1206.58 106.907 1206.97 107.518 1207.1 108.13ZM1206.97 108.13C1206.71 108.13 1206.33 108.13 1205.94 108.283C1205.56 108.436 1205.56 108.894 1206.07 109.353C1206.2 109.506 1206.46 109.353 1206.58 109.2C1206.71 108.894 1206.84 108.588 1206.97 108.13Z" fill="black"/>
<path d="M1142.27 19.5978C1142.91 18.8333 1143.68 18.5275 1144.83 18.5275C1145.47 18.6804 1145.85 18.9862 1145.85 19.5978C1145.72 19.9036 1145.47 20.0565 1145.21 20.0565C1144.19 19.9036 1143.16 19.7507 1142.27 19.5978ZM1094.27 118.526C1094.78 117.914 1095.29 117.302 1095.8 116.844C1096.7 115.926 1097.47 115.009 1098.24 114.091C1098.36 113.938 1098.75 113.938 1098.88 114.091C1099.52 114.397 1099.52 115.009 1099.13 115.467C1098.24 116.385 1097.21 116.844 1095.93 116.844C1095.42 117.455 1094.91 118.067 1094.27 118.526C1095.16 119.443 1096.06 119.902 1097.08 119.749C1098.36 119.596 1099.64 119.443 1100.8 119.29C1101.31 118.678 1101.82 118.22 1102.33 117.608L1104 116.079C1104.25 115.009 1104.38 113.938 1104.76 112.868C1107.2 105.529 1108.09 97.5779 1108.6 89.4741C1109.12 82.4406 1109.24 75.4071 1109.88 68.5265C1110.52 61.3401 1110.01 54.0008 1110.27 46.6615C1110.27 44.5209 1108.73 42.8389 1106.43 42.3802C1104.89 41.9215 1103.23 41.7686 1101.56 41.3099C1098.62 40.5454 1096.57 38.4048 1095.29 35.3467C1093.37 30.9126 1093.12 26.4784 1093.5 22.1971C1093.63 21.5855 1093.88 21.1268 1094.14 20.6681C1094.65 19.4449 1096.19 18.8333 1097.47 19.292C1098.49 19.7507 1099.52 20.2094 1100.54 20.6681C1101.69 21.2797 1102.84 21.5855 1103.61 20.821C1104.25 20.5152 1104.51 19.5978 1104.76 18.8333C1105.4 17.3043 1106.68 16.9985 1107.96 17.4572C1110.14 18.0688 1112.32 18.9862 1114.49 19.7507C1115.9 20.2094 1117.18 20.5152 1118.46 20.5152C1119.87 20.5152 1121.15 20.2094 1122.3 19.5978C1123.96 18.8333 1125.76 18.6804 1127.68 18.9862C1129.6 19.292 1131.39 18.9862 1133.31 18.9862C1136.12 19.1391 1139.07 19.4449 1142.01 19.7507V19.5978C1142.14 19.5978 1142.14 19.5978 1142.14 19.7507H1142.01C1141.76 21.7384 1139.2 21.5855 1138.94 23.8791C1139.32 23.8791 1139.58 24.032 1139.84 24.032C1146.11 23.7262 1152.51 23.4204 1158.78 23.1146C1158.65 22.5029 1158.65 22.1971 1158.4 22.0442C1157.24 20.821 1155.07 21.1268 1154.56 18.6804C1155.71 17.1514 1157.63 18.0688 1159.04 17.9159C1159.8 17.9159 1160.7 17.9159 1161.47 18.0688C1162.75 18.0688 1164.28 19.4449 1164.41 20.9739C1164.67 23.8791 1165.56 26.3255 1167.48 28.4661C1167.74 28.7719 1167.87 29.0777 1168 29.3835C1169.15 31.6771 1168 34.4293 1165.82 34.5822C1164.28 34.7351 1162.62 34.5822 1160.96 34.7351C1160.06 34.7351 1159.16 35.9583 1159.42 37.0287C1160.06 40.6983 1161.21 44.2151 1161.34 47.7318C1161.47 53.2363 1160.96 58.2821 1159.8 63.3278C1156.35 76.4774 1150.33 91.3089 1136.89 91.3089C1135.23 91.3089 1133.56 91.0031 1131.77 90.3915C1131 90.2386 1130.24 89.9328 1129.34 89.7799C1126.65 89.0154 1125.5 89.7799 1124.86 92.838C1124.6 94.5199 1124.48 96.2018 1124.22 97.8837C1123.84 101.095 1123.58 104.153 1123.07 107.364C1122.43 113.021 1121.15 120.055 1116.41 122.501C1113.85 123.724 1111.16 124.795 1108.35 124.795C1106.94 124.795 1105.53 124.489 1104.12 124.03C1101.95 123.266 1099.77 122.807 1097.6 122.195C1096.57 121.889 1095.42 121.584 1094.4 121.125C1094.01 120.972 1093.5 120.207 1093.5 119.749C1093.5 119.29 1094.01 118.984 1094.27 118.526ZM1127.04 59.1995H1127.16C1127.04 63.6336 1126.78 67.9149 1126.65 72.3491C1126.52 73.1136 1126.52 74.031 1126.52 74.9484C1126.52 76.4774 1128.32 77.7006 1129.6 77.089C1134.46 75.1013 1135.87 72.9607 1138.56 67.762C1141.88 60.5756 1144.19 52.7776 1146.11 44.9796C1146.36 43.6035 1146.36 42.0744 1146.36 40.5454C1146.49 38.5577 1144.96 36.8758 1143.29 36.8758C1138.68 36.8758 1134.33 37.7932 1130.11 39.0164C1128.19 39.628 1127.16 41.0041 1127.16 43.2977C1127.04 48.6492 1127.04 53.8479 1127.04 59.1995ZM1113.47 68.6794C1113.34 68.6794 1113.08 68.8323 1113.08 68.8323C1113.08 69.291 1113.21 69.7497 1113.34 70.2084C1113.47 70.2084 1113.72 70.0555 1113.72 70.0555C1113.72 69.5968 1113.6 69.1381 1113.47 68.6794ZM1114.24 81.6761C1114.11 81.0645 1113.98 80.4529 1113.98 79.9942C1113.85 79.2297 1113.47 78.771 1112.96 78.6181C1112.7 78.6181 1112.32 78.9239 1112.32 79.0768C1111.8 82.4406 1111.29 85.8045 1110.91 89.3212C1110.78 90.3915 1110.91 91.6148 1111.04 92.838C1111.16 93.2967 1111.55 93.7554 1111.8 94.367C1112.32 94.0612 1112.96 94.0612 1113.08 93.6025C1114.24 89.9328 1114.88 85.9574 1114.24 81.6761ZM1109.88 106.14C1110.91 105.07 1112.06 104 1111.68 102.012C1111.68 101.706 1111.42 101.4 1111.16 101.248C1110.91 101.248 1110.52 101.248 1110.52 101.4C1109.5 102.624 1109.76 104.459 1109.88 106.14ZM1102.46 117.761C1101.95 118.22 1101.44 118.831 1100.8 119.29C1101.69 119.902 1102.59 120.36 1103.48 120.36C1105.92 120.36 1108.6 115.773 1109.76 113.633C1111.04 111.492 1111.16 109.046 1109.88 106.446L1107.32 112.104C1106.56 113.786 1105.66 115.315 1104 116.079C1103.48 116.691 1102.97 117.149 1102.46 117.761Z" fill="black"/>
<path d="M1071.68 103.54C1070.91 105.222 1069.89 106.904 1069.5 108.586C1068.22 114.855 1064.38 118.677 1060.8 122.653C1059.52 124.029 1057.98 124.793 1056.19 124.946C1049.28 126.017 1042.88 124.029 1037.38 119.136C1031.36 113.632 1027.01 106.445 1024.32 97.8827C1021.12 87.944 1020.86 77.6996 1021.89 67.4551C1022.78 58.5868 1027.01 32.5934 1033.15 26.4773C1034.82 24.4896 1036.86 23.5722 1039.17 24.4896C1041.86 25.407 1044.42 26.6302 1046.98 27.8534C1047.74 28.1592 1048.9 27.3947 1049.15 26.6302C1049.28 26.0186 1049.28 25.407 1049.54 24.7954C1049.66 23.7251 1049.92 22.8077 1050.18 21.8903C1050.69 20.667 1051.58 19.7496 1052.61 19.2909C1054.66 18.2206 1056.96 18.0677 1059.14 18.3735C1061.82 18.6793 1064.64 19.2909 1067.33 19.7496C1067.84 19.7496 1068.48 19.9025 1068.99 20.0554C1076.42 23.4193 1082.82 28.618 1086.78 37.0276C1088.19 39.9327 1088.96 43.1437 1088.83 46.5075C1088.83 49.8714 1088.06 51.7062 1085.25 51.7062C1084.86 51.7062 1084.22 51.2475 1083.97 50.7888C1083.58 49.8714 1083.33 48.954 1083.2 47.8836C1082.69 45.743 1082.3 43.4495 1081.79 41.1559C1080.9 37.945 1079.36 35.3457 1076.8 33.8166L1078.08 41.003C1077.7 42.0734 1077.31 42.2263 1076.67 41.7676C1074.62 40.3914 1072.45 39.0153 1071.42 35.9573C1070.78 34.1224 1069.5 32.5934 1068.48 31.2173C1066.82 29.2296 1065.02 28.3122 1062.46 29.2296C1059.65 30.4528 1056.58 30.9115 1053.38 31.8289C1053.25 32.5934 1052.86 33.5108 1052.86 34.4282C1052.86 36.1102 1052.48 37.7921 1051.33 38.7095C1045.95 43.6024 1043.52 50.483 1041.09 57.6694C1037.63 67.9138 1036.35 78.617 1036.74 89.6259C1036.99 95.5891 1038.53 104.305 1041.47 109.503C1042.5 111.644 1044.03 112.714 1045.7 112.714C1050.94 112.714 1057.86 101.552 1060.54 96.9653C1061.18 95.8949 1061.44 94.3659 1062.21 93.6014C1066.3 89.0143 1068.22 82.5924 1071.68 77.5467V77.3938L1071.81 77.5467H1071.68C1071.81 79.0757 1071.81 80.7576 1071.94 82.2866C1072.19 84.4273 1072.83 85.0389 1074.62 84.7331C1075.65 84.5802 1076.8 84.2744 1077.82 84.4273C1078.08 84.4273 1078.59 85.1918 1078.59 85.8034C1078.72 86.415 1078.59 87.0266 1078.34 87.6382C1076.8 91.4608 1075.78 95.4362 1075.9 99.7175C1075.9 102.011 1075.39 104.305 1073.98 105.986C1073.6 106.445 1072.96 106.751 1072.58 106.598C1072.19 106.445 1071.94 105.681 1071.68 105.222C1071.68 104.763 1071.68 104.152 1071.68 103.54ZM1052.35 53.9997C1052.74 53.9997 1053.25 53.8468 1053.76 53.9997C1056.83 54.4584 1059.52 55.9875 1062.21 57.6694C1064 58.8926 1065.41 62.1035 1065.02 64.3971C1064 70.2074 1061.18 83.9686 1054.66 83.9686C1051.07 83.9686 1046.85 80.4518 1046.59 76.0176C1046.08 69.4429 1047.1 63.021 1049.02 56.752C1049.41 55.07 1050.69 54.1526 1052.35 53.9997ZM1085.5 60.4216C1085.76 62.1035 1085.25 63.4797 1084.48 64.7029C1084.35 65.0087 1084.1 65.1616 1083.84 65.0087C1083.58 65.0087 1083.33 64.8558 1083.33 64.55C1082.94 63.021 1082.94 61.4919 1083.71 60.1158C1083.97 59.6571 1084.61 59.6571 1085.12 59.6571C1085.25 59.6571 1085.38 60.1158 1085.5 60.4216ZM1082.94 75.406C1082.69 76.1706 1082.3 77.3938 1081.79 78.4641C1081.41 79.2286 1080.13 79.3815 1079.74 78.9228C1079.49 78.4641 1079.23 77.6996 1079.36 77.2409C1079.49 76.3235 1079.87 75.406 1080.13 74.6415C1080.64 73.4183 1081.54 72.8067 1082.05 73.4183C1082.3 73.877 1082.56 74.4886 1082.94 75.406ZM1071.94 77.088C1072.06 76.7822 1072.19 76.6293 1072.19 76.3234C1072.19 76.4764 1072.19 76.6293 1072.06 76.7822C1072.06 76.9351 1071.94 77.088 1071.94 77.088Z" fill="black"/>
<path d="M958.315 32.4414C958.699 29.995 959.083 26.9369 959.723 24.0318C960.107 22.5028 961.003 21.2795 961.899 20.2092C963.051 18.6802 964.587 17.9157 966.379 18.3744C973.291 20.0563 980.331 21.5853 987.243 23.8789C989.419 24.6434 991.595 24.9492 993.643 24.9492C996.587 24.9492 999.531 24.1847 1002.47 22.3499C1003.63 21.7382 1004.78 20.9737 1006.06 20.6679C1006.57 20.515 1007.34 20.6679 1007.85 21.1266C1010.54 24.1847 1012.46 27.7014 1013.35 31.9827C1013.99 35.1936 1013.23 38.0988 1011.56 40.6981C1011.31 41.3097 1010.54 41.6155 1009.9 41.6155C1009 41.6155 1007.98 41.3097 1007.08 41.0039C1005.42 40.3923 1003.75 40.0865 1002.22 40.0865C999.019 40.0865 995.947 41.3097 993.003 43.4504C990.187 45.591 987.243 46.8142 983.915 46.9671C981.355 46.9671 978.795 47.5787 976.107 47.8845C973.291 48.1903 970.347 48.3432 967.403 48.3432C959.723 48.3432 958.699 39.6278 958.315 32.4414ZM1003.11 61.3399C1004.14 64.7038 1005.03 66.6915 1005.42 68.985C1005.8 71.2786 1005.8 73.5721 1005.55 75.8656C1005.03 80.4527 1001.58 83.2049 997.867 83.2049C987.371 83.5108 977.131 85.8043 966.891 87.4862C966.507 87.6391 966.251 87.6391 965.867 87.6391C960.875 89.0152 956.907 86.7217 953.707 82.4404C950.507 78.3121 950.379 74.6424 950.379 69.4437C950.379 62.5631 952.043 60.2696 957.931 60.5754C961.131 60.8812 964.459 60.7283 967.659 60.5754C973.547 60.2696 979.435 60.1167 985.195 62.1044C988.011 63.0218 990.955 62.8689 993.899 62.4102C996.715 62.1044 999.659 61.7986 1003.11 61.3399ZM991.595 115.162C991.467 116.385 991.339 116.996 991.467 117.761C991.595 119.137 991.083 120.207 990.059 120.36C979.435 122.042 968.683 123.571 958.059 125.1C955.371 125.559 952.811 124.641 950.507 123.265C947.051 121.125 944.875 117.914 944.875 113.021C944.875 109.504 945.131 106.14 945.387 102.624C945.643 100.636 947.947 98.4952 949.739 98.4952C950.763 98.4952 951.659 98.3423 952.683 98.4952C958.443 99.5655 964.203 100.789 970.091 101.706C973.675 102.165 977.387 102.624 980.971 102.624C984.427 102.624 988.011 102.165 991.467 101.095C994.539 100.177 997.867 100.024 1001.19 99.7184C1004.01 99.4126 1006.96 99.2597 1009.9 98.9539C1011.05 98.9539 1011.82 99.7184 1011.95 100.942C1012.2 102.012 1012.08 103.235 1011.69 104.153C1011.56 104.764 1010.67 105.376 1010.16 105.376C1008.24 105.223 1006.19 105.07 1004.4 104.611C1001.58 103.847 998.891 103.388 996.075 103.388C992.747 103.388 989.419 104 986.091 105.376C986.219 108.281 987.883 110.88 989.675 110.727C991.339 110.727 993.003 110.574 994.539 110.269C998.123 109.351 1001.71 108.74 1005.29 109.351C1006.19 109.504 1007.08 110.269 1007.72 111.033C1008.11 111.492 1008.24 112.409 1008.11 113.174C1007.98 113.785 1007.47 114.703 1006.95 114.703C1004.01 114.703 1001.07 114.55 998.251 114.55C995.947 114.703 993.643 114.397 991.595 115.162ZM1000.81 117.608C1000.68 117.761 1000.43 118.22 1000.17 118.22C999.915 118.22 999.403 118.22 999.275 118.067C998.891 117.302 999.275 116.843 1000.17 116.996C1000.43 117.149 1000.68 117.455 1000.81 117.608Z" fill="black"/>
<path d="M916.144 19.5978C916.784 18.8333 917.552 18.5275 918.704 18.5275C919.344 18.6804 919.728 18.9862 919.728 19.5978C919.6 19.9036 919.344 20.0565 919.088 20.0565C918.064 19.9036 917.04 19.7507 916.144 19.5978ZM868.144 118.526C868.656 117.914 869.168 117.302 869.68 116.844C870.576 115.926 871.344 115.009 872.112 114.091C872.24 113.938 872.624 113.938 872.752 114.091C873.392 114.397 873.392 115.009 873.008 115.467C872.112 116.385 871.088 116.844 869.808 116.844C869.296 117.455 868.784 118.067 868.144 118.526C869.04 119.443 869.936 119.902 870.96 119.749C872.24 119.596 873.52 119.443 874.672 119.29C875.184 118.678 875.696 118.22 876.208 117.608L877.872 116.079C878.128 115.009 878.256 113.938 878.64 112.868C881.072 105.529 881.968 97.5779 882.48 89.4741C882.992 82.4406 883.12 75.4071 883.76 68.5265C884.4 61.3401 883.888 54.0008 884.144 46.6615C884.144 44.5209 882.608 42.8389 880.304 42.3802C878.768 41.9215 877.104 41.7686 875.44 41.3099C872.496 40.5454 870.448 38.4048 869.168 35.3467C867.248 30.9126 866.992 26.4784 867.376 22.1971C867.504 21.5855 867.76 21.1268 868.016 20.6681C868.528 19.4449 870.064 18.8333 871.344 19.292C872.368 19.7507 873.392 20.2094 874.416 20.6681C875.568 21.2797 876.72 21.5855 877.488 20.821C878.128 20.5152 878.384 19.5978 878.64 18.8333C879.28 17.3043 880.56 16.9985 881.84 17.4572C884.016 18.0688 886.192 18.9862 888.368 19.7507C889.776 20.2094 891.056 20.5152 892.336 20.5152C893.744 20.5152 895.024 20.2094 896.176 19.5978C897.84 18.8333 899.632 18.6804 901.552 18.9862C903.472 19.292 905.264 18.9862 907.184 18.9862C910 19.1391 912.944 19.4449 915.888 19.7507V19.5978C916.016 19.5978 916.016 19.5978 916.016 19.7507H915.888C915.632 21.7384 913.072 21.5855 912.816 23.8791C913.2 23.8791 913.456 24.032 913.712 24.032C919.984 23.7262 926.384 23.4204 932.656 23.1146C932.528 22.5029 932.528 22.1971 932.272 22.0442C931.12 20.821 928.944 21.1268 928.432 18.6804C929.584 17.1514 931.504 18.0688 932.912 17.9159C933.68 17.9159 934.576 17.9159 935.344 18.0688C936.624 18.0688 938.16 19.4449 938.288 20.9739C938.544 23.8791 939.44 26.3255 941.36 28.4661C941.616 28.7719 941.744 29.0777 941.872 29.3835C943.024 31.6771 941.872 34.4293 939.696 34.5822C938.16 34.7351 936.496 34.5822 934.832 34.7351C933.936 34.7351 933.04 35.9583 933.296 37.0287C933.936 40.6983 935.088 44.2151 935.216 47.7318C935.344 53.2363 934.832 58.2821 933.68 63.3278C930.224 76.4774 924.208 91.3089 910.768 91.3089C909.104 91.3089 907.44 91.0031 905.648 90.3915C904.88 90.2386 904.112 89.9328 903.216 89.7799C900.528 89.0154 899.376 89.7799 898.736 92.838C898.48 94.5199 898.352 96.2018 898.096 97.8837C897.712 101.095 897.456 104.153 896.944 107.364C896.304 113.021 895.024 120.055 890.288 122.501C887.728 123.724 885.04 124.795 882.224 124.795C880.816 124.795 879.408 124.489 878 124.03C875.824 123.266 873.648 122.807 871.472 122.195C870.448 121.889 869.296 121.584 868.272 121.125C867.888 120.972 867.376 120.207 867.376 119.749C867.376 119.29 867.888 118.984 868.144 118.526ZM900.912 59.1995H901.04C900.912 63.6336 900.656 67.9149 900.528 72.3491C900.4 73.1136 900.4 74.031 900.4 74.9484C900.4 76.4774 902.192 77.7006 903.472 77.089C908.336 75.1013 909.744 72.9607 912.432 67.762C915.76 60.5756 918.064 52.7776 919.984 44.9796C920.24 43.6035 920.24 42.0744 920.24 40.5454C920.368 38.5577 918.832 36.8758 917.168 36.8758C912.56 36.8758 908.208 37.7932 903.984 39.0164C902.064 39.628 901.04 41.0041 901.04 43.2977C900.912 48.6492 900.912 53.8479 900.912 59.1995ZM887.344 68.6794C887.216 68.6794 886.96 68.8323 886.96 68.8323C886.96 69.291 887.088 69.7497 887.216 70.2084C887.344 70.2084 887.6 70.0555 887.6 70.0555C887.6 69.5968 887.472 69.1381 887.344 68.6794ZM888.112 81.6761C887.984 81.0645 887.856 80.4529 887.856 79.9942C887.728 79.2297 887.344 78.771 886.832 78.6181C886.576 78.6181 886.192 78.9239 886.192 79.0768C885.68 82.4406 885.168 85.8045 884.784 89.3212C884.656 90.3915 884.784 91.6148 884.912 92.838C885.04 93.2967 885.424 93.7554 885.68 94.367C886.192 94.0612 886.832 94.0612 886.96 93.6025C888.112 89.9328 888.752 85.9574 888.112 81.6761ZM883.76 106.14C884.784 105.07 885.936 104 885.552 102.012C885.552 101.706 885.296 101.4 885.04 101.248C884.784 101.248 884.4 101.248 884.4 101.4C883.376 102.624 883.632 104.459 883.76 106.14ZM876.336 117.761C875.824 118.22 875.312 118.831 874.672 119.29C875.568 119.902 876.464 120.36 877.36 120.36C879.792 120.36 882.48 115.773 883.632 113.633C884.912 111.492 885.04 109.046 883.76 106.446L881.2 112.104C880.432 113.786 879.536 115.315 877.872 116.079C877.36 116.691 876.848 117.149 876.336 117.761Z" fill="black"/>
<path d="M777.69 32.4414C778.074 29.995 778.458 26.9369 779.098 24.0318C779.482 22.5028 780.378 21.2795 781.274 20.2092C782.426 18.6802 783.962 17.9157 785.754 18.3744C792.666 20.0563 799.706 21.5853 806.618 23.8789C808.794 24.6434 810.97 24.9492 813.018 24.9492C815.962 24.9492 818.906 24.1847 821.85 22.3499C823.002 21.7382 824.154 20.9737 825.434 20.6679C825.946 20.515 826.714 20.6679 827.226 21.1266C829.914 24.1847 831.834 27.7014 832.73 31.9827C833.37 35.1936 832.602 38.0988 830.938 40.6981C830.682 41.3097 829.914 41.6155 829.274 41.6155C828.378 41.6155 827.354 41.3097 826.458 41.0039C824.794 40.3923 823.13 40.0865 821.594 40.0865C818.394 40.0865 815.322 41.3097 812.378 43.4504C809.562 45.591 806.618 46.8142 803.29 46.9671C800.73 46.9671 798.17 47.5787 795.482 47.8845C792.666 48.1903 789.722 48.3432 786.778 48.3432C779.098 48.3432 778.074 39.6278 777.69 32.4414ZM822.49 61.3399C823.514 64.7038 824.41 66.6915 824.794 68.985C825.178 71.2786 825.178 73.5721 824.922 75.8656C824.41 80.4527 820.954 83.2049 817.242 83.2049C806.746 83.5108 796.506 85.8043 786.266 87.4862C785.882 87.6391 785.626 87.6391 785.242 87.6391C780.25 89.0152 776.282 86.7217 773.082 82.4404C769.882 78.3121 769.754 74.6424 769.754 69.4437C769.754 62.5631 771.418 60.2696 777.306 60.5754C780.506 60.8812 783.834 60.7283 787.034 60.5754C792.922 60.2696 798.81 60.1167 804.57 62.1044C807.386 63.0218 810.33 62.8689 813.274 62.4102C816.09 62.1044 819.034 61.7986 822.49 61.3399ZM810.97 115.162C810.842 116.385 810.714 116.996 810.842 117.761C810.97 119.137 810.458 120.207 809.434 120.36C798.81 122.042 788.058 123.571 777.434 125.1C774.746 125.559 772.186 124.641 769.882 123.265C766.426 121.125 764.25 117.914 764.25 113.021C764.25 109.504 764.506 106.14 764.762 102.624C765.018 100.636 767.322 98.4952 769.114 98.4952C770.138 98.4952 771.034 98.3423 772.058 98.4952C777.818 99.5655 783.578 100.789 789.466 101.706C793.05 102.165 796.762 102.624 800.346 102.624C803.802 102.624 807.386 102.165 810.842 101.095C813.914 100.177 817.242 100.024 820.57 99.7184C823.386 99.4126 826.33 99.2597 829.274 98.9539C830.426 98.9539 831.194 99.7184 831.322 100.942C831.578 102.012 831.45 103.235 831.066 104.153C830.938 104.764 830.042 105.376 829.53 105.376C827.61 105.223 825.562 105.07 823.77 104.611C820.954 103.847 818.266 103.388 815.45 103.388C812.122 103.388 808.794 104 805.466 105.376C805.594 108.281 807.258 110.88 809.05 110.727C810.714 110.727 812.378 110.574 813.914 110.269C817.498 109.351 821.082 108.74 824.666 109.351C825.562 109.504 826.458 110.269 827.098 111.033C827.482 111.492 827.61 112.409 827.482 113.174C827.354 113.785 826.842 114.703 826.33 114.703C823.386 114.703 820.442 114.55 817.626 114.55C815.322 114.703 813.018 114.397 810.97 115.162ZM820.186 117.608C820.058 117.761 819.802 118.22 819.546 118.22C819.29 118.22 818.778 118.22 818.65 118.067C818.266 117.302 818.65 116.843 819.546 116.996C819.802 117.149 820.058 117.455 820.186 117.608Z" fill="black"/>
<path d="M702.044 111.644C703.068 110.115 703.58 108.433 703.708 106.751H703.836C702.94 105.681 702.428 104.458 702.812 103.082C703.324 100.635 704.092 98.3417 704.732 95.8952C705.372 93.7546 706.012 91.7669 705.5 89.4733C705.5 89.3204 705.244 89.0146 704.988 89.0146C704.732 89.0146 704.348 89.1675 704.22 89.3204C703.836 90.5437 703.196 91.9198 703.068 93.143C701.66 100.635 697.948 107.057 694.364 113.479C692.444 117.149 688.604 123.112 685.276 124.947L685.404 125.1L685.148 124.947C685.404 125.405 685.66 125.864 685.788 126.476C686.044 127.24 685.788 128.005 685.02 128.463C684.252 129.075 682.844 128.922 682.204 128.005C681.948 127.699 681.564 127.087 681.692 126.781C682.204 125.558 682.972 124.488 683.612 123.265H683.484L685.148 124.794L683.612 123.265C684.892 121.277 686.172 118.983 687.708 116.996C691.932 111.644 700.252 97.5772 700.636 89.6262C700.764 88.5559 699.868 87.3327 698.844 87.1798C696.668 86.7211 694.492 86.874 692.316 86.1095C688.348 84.5805 686.428 81.8282 686.172 77.8528C686.044 76.3237 686.3 74.6418 686.556 72.9599C687.196 69.1373 688.988 67.7612 692.828 68.2199C695.9 68.5257 698.972 68.3728 702.172 68.3728C704.604 68.2199 706.396 66.538 706.652 64.2445C706.908 60.4219 707.164 56.4465 706.268 52.6239C705.628 49.413 705.244 46.202 704.988 42.8382C704.604 39.6272 703.836 36.4163 703.068 33.2053C702.812 31.6763 701.916 31.3705 700.124 32.135C698.588 32.7466 697.692 32.4408 697.18 31.5234C695.644 28.6183 694.492 25.4073 694.492 22.0435C694.364 21.7376 695.004 21.2789 695.388 20.8202C695.516 20.6673 695.772 20.6673 696.028 20.5144C700.892 20.0557 705.5 20.9731 709.852 23.2667C715.868 26.3247 719.58 36.875 720.348 44.0614C720.988 50.6362 722.14 57.211 721.244 63.9387C720.732 66.8438 721.372 69.9019 721.628 72.9599C721.884 76.3237 727.132 76.4766 729.18 76.4766C733.148 76.4766 740.188 74.7947 741.596 69.596C742.364 66.538 742.876 63.1742 743.26 59.9632C743.644 57.8226 743.388 55.529 743.516 53.3884C743.516 52.3181 743.644 51.0949 744.284 50.1775C747.1 45.7433 747.1 40.8504 746.332 35.8047C745.564 30.606 745.18 25.4073 745.692 20.2086C745.692 19.4441 745.948 18.5267 746.076 17.7622C746.332 16.8448 747.484 15.6216 748.252 15.4687C754.012 14.5512 759.388 15.7745 764.508 18.2209C766.684 19.4441 767.452 21.5847 766.556 23.8783C765.788 25.4073 765.148 26.9363 764.252 28.3125C762.716 30.7589 761.82 33.3582 761.052 35.9576C757.084 50.1775 755.292 64.7032 756.06 79.3818C756.572 90.3908 757.596 101.4 760.796 111.95C761.692 115.161 762.844 118.219 763.74 121.43C764.252 122.959 762.588 124.794 760.796 124.641C760.54 124.641 760.284 124.794 760.028 124.641C754.78 124.182 751.196 121.736 749.532 116.537C747.228 109.504 745.436 102.317 744.284 94.8249C743.772 91.3082 743.26 87.7914 742.492 84.2747C741.98 82.2869 740.7 80.9108 738.524 80.605C733.66 79.9934 728.924 80.1463 724.316 81.2166C722.652 81.6753 721.244 82.7456 720.732 84.4276C720.092 86.2624 719.708 88.0972 719.196 90.0849C718.556 92.9901 718.044 96.0481 717.276 98.9533C715.868 104.611 709.468 114.702 706.396 119.442C703.836 123.418 699.868 126.17 695.004 127.087C693.724 127.393 692.188 126.017 692.316 124.641C693.212 119.442 696.412 114.396 699.612 110.88C699.868 110.574 700.636 110.421 701.148 110.574C701.532 110.727 701.788 111.338 702.044 111.644Z" fill="black"/>
<path d="M647.303 98.802V107.059C647.815 106.141 648.455 105.224 648.711 104.306C650.759 94.5207 652.039 84.735 651.143 74.6435C650.759 69.4448 650.503 64.0932 650.631 58.8945C650.759 54.1546 649.991 49.5675 648.583 45.1333C647.047 40.0875 646.151 39.9346 642.055 40.6992C638.215 41.6166 634.375 42.6869 630.535 43.9101C628.103 44.5217 625.671 44.6746 623.239 44.063C622.471 43.9101 621.703 43.6043 621.319 42.9927C619.271 40.6992 618.119 37.794 618.375 34.2773C618.503 33.3599 618.759 32.5953 619.015 31.6779C620.935 23.5741 619.911 23.2683 628.103 22.3509C634.119 21.5864 640.391 21.4335 646.407 19.9045C647.047 19.5987 647.815 19.9045 648.455 19.9045C648.967 20.5161 648.839 20.669 648.071 20.9748C646.279 21.7393 646.023 22.5038 646.663 23.8799C647.687 26.1735 649.095 27.8554 651.399 27.5496C655.751 26.938 660.103 26.1735 664.455 25.256C664.839 25.256 665.351 24.6444 665.351 24.1857C665.351 23.727 664.839 23.1154 664.455 22.9625C663.303 22.8096 662.023 22.8096 660.871 22.6567C659.719 22.6567 659.207 21.4335 659.975 20.2103C660.359 19.4458 660.871 18.5283 661.383 18.3754C665.095 17.9167 668.807 18.2225 672.135 20.3632C672.903 20.8219 672.775 21.5864 672.263 22.5038C671.495 23.8799 671.623 24.3386 672.391 24.4915C672.903 24.4915 673.287 24.6444 673.799 24.6444C676.103 24.3386 678.279 24.6444 679.815 26.938C679.943 27.0909 680.327 27.2438 680.583 27.0909C680.967 26.938 681.479 26.6322 681.735 26.3264C681.863 25.8676 681.863 25.1031 681.607 24.6444C680.711 23.1154 678.919 23.4212 677.639 22.3509C677.127 22.0451 676.999 20.669 677.511 20.0574C678.407 18.987 679.431 18.2225 680.711 18.2225C684.167 18.5283 687.495 18.6812 690.951 18.3754C692.103 18.3754 693.383 18.987 694.407 19.9045C696.071 21.1277 697.223 23.1154 697.607 25.5618C698.247 28.3141 698.375 31.2192 697.863 34.1244C697.607 35.6534 696.071 36.7237 695.047 36.265C694.791 36.1121 694.535 35.9592 694.407 35.8063C690.567 32.5953 686.215 31.8308 681.735 31.8308C679.047 31.6779 676.359 31.6779 673.671 31.8308C673.287 31.8308 672.903 32.2895 672.391 32.4424C672.903 32.7482 673.159 33.3599 673.671 33.3599C675.975 33.6657 678.535 32.7482 680.839 33.8186C681.223 34.2773 681.095 34.8889 680.327 34.8889C674.951 35.5005 669.575 36.1121 664.199 36.7237C662.919 37.0295 660.999 36.265 660.487 38.2527C660.103 39.6288 661.511 40.6992 662.407 41.6166C664.583 43.6043 665.351 46.2036 665.223 49.4146C665.223 49.8733 665.223 50.4849 665.223 51.0965C666.503 60.4235 665.735 69.9035 665.095 79.2305C664.327 89.3221 662.279 109.964 656.391 117.762C652.551 123.419 647.687 126.172 641.543 124.948C640.263 124.795 639.111 124.49 637.959 124.184C637.575 124.031 637.191 123.266 637.191 122.808C637.063 122.349 637.191 121.584 637.319 121.126C637.703 120.055 638.087 118.832 638.599 117.915C641.671 112.257 644.231 106.141 646.535 100.025C646.663 99.5665 647.047 99.2607 647.303 98.802V98.6491H647.431L647.303 98.802ZM655.751 18.3754L655.495 18.8341L655.239 18.3754H655.751ZM687.623 25.256L687.879 25.8676L688.135 25.256H687.623ZM686.471 29.0786L686.599 28.6199L686.087 28.7728L686.471 29.0786ZM663.943 29.2315L664.455 29.3844L664.327 28.7728L663.943 29.2315ZM660.615 31.6779C659.207 32.9011 657.415 32.4424 655.879 33.054C655.623 33.054 655.495 33.8186 655.367 34.2773C655.239 34.4302 655.623 34.736 655.751 34.8889C658.823 35.5005 661.895 35.1947 664.967 34.736C665.223 34.736 665.607 33.8186 665.607 33.5128C665.607 33.054 665.095 32.5953 664.711 32.2895C663.431 31.525 662.023 31.525 660.615 31.6779ZM647.431 98.4962C647.431 97.4259 647.431 96.5085 647.559 95.4382C647.559 95.2853 647.815 94.8265 647.815 94.8265C648.455 94.8265 648.583 95.1323 648.583 95.8969C648.455 96.9672 648.199 97.8846 647.431 98.4962ZM647.303 107.517C646.279 109.046 646.023 110.728 645.895 112.563C646.919 111.034 647.303 109.352 647.303 107.517ZM645.767 112.869C644.359 114.092 643.463 115.774 642.951 117.762C644.615 116.844 645.383 115.01 645.767 112.869ZM642.823 118.221L641.671 121.126C642.311 120.361 642.567 119.291 642.823 118.221Z" fill="black"/>
<path d="M532.488 60.8779C532.104 60.2663 531.592 59.5018 531.08 58.7373C530.44 57.8199 529.8 58.1257 529.16 59.0431C528.776 59.6547 528.136 59.6547 527.88 59.0431C527.624 58.1257 527.496 57.2083 527.496 56.2909C527.624 53.3857 527.624 50.3277 528.008 47.2696C528.264 44.0587 527.112 42.5297 524.424 41.1535C518.664 38.4013 516.488 33.3555 517.384 26.322C517.64 24.6401 519.688 22.3466 521.352 22.0408C522.504 21.8879 523.656 22.0408 524.808 22.0408C526.984 21.8879 528.392 20.9704 529.416 18.8298C529.928 17.7595 530.824 16.6892 531.848 16.5363C533.768 16.0776 535.688 15.7718 537.608 15.7718C542.216 15.7718 546.44 16.995 550.024 20.2059C553.992 24.4872 558.856 25.2517 563.976 24.4872C565.768 24.1814 567.176 23.1111 567.816 21.2763C568.328 19.9001 568.968 18.524 569.48 17.1479C569.864 16.3834 571.784 15.7718 572.552 16.3834C573.96 17.3008 575.368 18.2182 576.776 19.1356C577.544 19.5943 578.312 19.9001 578.824 19.9001C579.848 19.9001 580.616 19.1356 580.872 17.1479C581 16.3834 581.512 15.466 582.024 14.8544C582.152 14.5485 583.176 14.5485 583.432 14.8544C585.736 17.6066 586.888 20.9704 587.4 24.4872C587.528 24.9459 587.144 25.7104 586.76 26.0162C585.864 26.6278 584.84 27.0865 583.688 27.6981C584.84 32.2852 585.096 34.5787 585.096 39.3187C585.224 42.3768 584.584 45.2819 583.432 48.0341C580.488 55.5263 576.648 62.5599 570.76 67.9114C567.688 70.6637 565.384 74.1804 561.928 76.321C561.8 76.4739 561.672 76.9327 561.8 77.0856C562.184 77.5443 562.568 78.1559 562.952 78.3088C563.976 78.6146 565.128 78.7675 566.152 79.0733V78.9204C566.28 78.9204 566.408 78.9204 566.408 78.9204C567.304 78.4617 568.2 78.003 568.968 77.6972C569.224 77.5443 569.608 77.5443 569.736 77.8501C570.248 78.3088 570.12 78.7675 569.352 78.7675C568.328 78.9204 567.432 78.9204 566.28 79.0733H566.152C566.28 79.2262 566.408 79.532 566.664 79.6849C569.096 82.59 569.992 85.6481 569.736 89.6235C569.352 93.4461 569.48 97.4216 569.48 101.397C569.352 110.265 571.4 118.675 575.24 126.626C579.848 136.106 585.352 146.809 593.928 151.396C594.696 151.855 595.08 153.842 594.696 154.76C594.184 155.371 593.544 156.289 592.904 156.442C592.008 156.748 591.112 156.901 590.216 156.901C588.936 156.901 587.656 156.595 586.376 155.83C579.336 152.161 567.048 142.069 565.256 133.659C561.032 125.403 558.088 116.687 556.04 107.513C555.656 105.678 555.016 103.996 553.736 102.773C551.944 101.244 551.048 98.9506 550.664 96.657C550.024 93.9048 549.384 91.3055 548.872 88.7061C548.616 87.7887 547.208 86.8713 546.184 87.0242C540.936 87.0242 539.912 91.3055 539.912 96.657C539.656 102.773 539.656 108.736 539.528 114.7C539.4 117.146 539.272 119.592 539.016 121.886C539.016 122.803 537.48 124.027 536.584 124.027C534.536 124.332 532.616 124.027 530.824 123.109C527.496 121.274 525.192 118.216 523.016 115.158C522.632 114.547 522.76 113.323 522.888 112.559C522.888 111.489 523.4 110.877 524.424 111.183C525.448 111.336 526.088 110.877 526.472 109.96C526.856 108.583 527.112 107.054 527.496 105.678C527.88 104.608 528.136 103.232 528.776 102.467C530.312 100.633 530.568 98.7977 529.672 96.657C528.904 94.8222 528.264 92.8345 527.624 91.1526C524.936 89.4706 522.376 88.2474 520.072 86.5655C518.024 85.1894 517.256 82.8958 517.384 80.2965C517.512 78.9204 518.664 77.5443 520.072 77.2385C522.248 76.7798 524.424 76.474 526.6 75.8623C528.904 75.4036 530.568 73.7217 531.592 71.4282C532.232 70.0521 532.744 68.6759 532.232 67.1469C531.464 65.0063 531.976 63.0186 532.488 60.8779ZM549.512 69.8992L551.048 66.3824C550.664 65.465 550.664 64.5476 551.176 64.5476C551.688 63.936 552.2 63.3244 552.84 62.7128C553.352 62.4069 553.992 62.254 554.504 62.7128C558.344 61.0308 561.032 57.8199 562.696 53.9973C564.232 50.4806 566.408 47.2696 567.944 43.7529C569.48 40.5419 570.76 37.331 571.912 33.9671C572.424 32.591 572.296 30.9091 572.168 29.533C572.168 29.0743 571.4 28.3098 571.144 28.4627C568.84 29.6859 566.152 28.3098 563.72 29.2272C560.008 30.4504 556.296 31.6736 552.584 32.8968C551.816 33.2026 551.304 33.8142 550.536 34.4258C552.2 36.1078 554.248 35.1903 555.912 35.6491C553.992 37.331 552.584 37.9426 550.28 38.7071C547.976 39.6245 546.568 41.4593 546.184 44.0587C545.16 50.7864 544.264 57.667 543.368 64.3947C543.112 66.5353 544.264 67.6056 546.056 68.2172L546.184 69.8992H549.512ZM564.744 33.6613C564.744 33.8142 564.616 33.8142 564.36 33.8142C561.928 35.802 559.112 35.802 556.296 35.4962C557.448 34.4258 558.984 33.9671 560.52 33.9671C561.8 33.8142 563.464 33.6613 564.744 33.6613C565 33.5084 565.256 33.3555 565.512 33.2026C565.384 33.3555 565.256 33.5084 565.128 33.6613C565 33.6613 564.872 33.6613 564.744 33.6613ZM556.168 35.6491H555.912L556.04 35.4962C556.168 35.4962 556.168 35.4962 556.296 35.4962L556.168 35.6491ZM531.592 51.0922L531.336 50.3277C530.952 50.6335 530.568 50.7864 530.184 51.0922C530.184 51.0922 530.44 51.5509 530.44 51.7038C530.824 51.5509 531.208 51.2451 531.592 51.0922ZM533.512 60.4192L532.872 60.8779C532.872 60.8779 533 60.8779 533.128 60.8779C533.256 60.725 533.384 60.5721 533.512 60.4192ZM552.84 64.5476L554.376 62.8657H552.84C552.84 63.3244 552.84 63.936 552.84 64.5476ZM551.176 66.3824L552.712 64.7005C552.2 64.7005 551.688 64.7005 551.176 64.7005V66.3824ZM549.512 70.0521C549.512 70.6637 549.384 71.1224 549.512 71.5811C549.64 72.0398 550.024 72.3456 550.28 72.6514C550.28 72.6514 550.792 72.3456 550.792 72.1927C550.92 71.734 550.92 71.1224 550.792 70.8166C550.408 70.5108 549.896 70.3579 549.512 70.0521Z" fill="black"/>
<path d="M499.804 103.54C499.036 105.222 498.012 106.904 497.628 108.586C496.348 114.855 492.508 118.677 488.924 122.653C487.644 124.029 486.108 124.793 484.316 124.946C477.404 126.017 471.004 124.029 465.5 119.136C459.484 113.632 455.132 106.445 452.444 97.8827C449.244 87.944 448.988 77.6996 450.012 67.4551C450.908 58.5868 455.132 32.5934 461.276 26.4773C462.94 24.4896 464.988 23.5722 467.292 24.4896C469.98 25.407 472.54 26.6302 475.1 27.8534C475.868 28.1592 477.02 27.3947 477.276 26.6302C477.404 26.0186 477.404 25.407 477.66 24.7954C477.788 23.7251 478.044 22.8077 478.3 21.8903C478.812 20.667 479.708 19.7496 480.732 19.2909C482.78 18.2206 485.084 18.0677 487.26 18.3735C489.948 18.6793 492.764 19.2909 495.452 19.7496C495.964 19.7496 496.604 19.9025 497.116 20.0554C504.54 23.4193 510.94 28.618 514.908 37.0276C516.316 39.9327 517.084 43.1437 516.956 46.5075C516.956 49.8714 516.188 51.7062 513.372 51.7062C512.988 51.7062 512.348 51.2475 512.092 50.7888C511.708 49.8714 511.452 48.954 511.324 47.8836C510.812 45.743 510.428 43.4495 509.916 41.1559C509.02 37.945 507.484 35.3457 504.924 33.8166L506.204 41.003C505.82 42.0734 505.436 42.2263 504.796 41.7676C502.748 40.3914 500.572 39.0153 499.548 35.9573C498.908 34.1224 497.628 32.5934 496.604 31.2173C494.94 29.2296 493.148 28.3122 490.588 29.2296C487.772 30.4528 484.7 30.9115 481.5 31.8289C481.372 32.5934 480.988 33.5108 480.988 34.4282C480.988 36.1102 480.604 37.7921 479.452 38.7095C474.076 43.6024 471.644 50.483 469.212 57.6694C465.756 67.9138 464.476 78.617 464.86 89.6259C465.116 95.5891 466.652 104.305 469.596 109.503C470.62 111.644 472.156 112.714 473.82 112.714C479.068 112.714 485.98 101.552 488.668 96.9653C489.308 95.8949 489.564 94.3659 490.332 93.6014C494.428 89.0143 496.348 82.5924 499.804 77.5467V77.3938L499.932 77.5467H499.804C499.932 79.0757 499.932 80.7576 500.06 82.2866C500.316 84.4273 500.956 85.0389 502.748 84.7331C503.772 84.5802 504.924 84.2744 505.948 84.4273C506.204 84.4273 506.716 85.1918 506.716 85.8034C506.844 86.415 506.716 87.0266 506.46 87.6382C504.924 91.4608 503.9 95.4362 504.028 99.7175C504.028 102.011 503.516 104.305 502.108 105.986C501.724 106.445 501.084 106.751 500.7 106.598C500.316 106.445 500.06 105.681 499.804 105.222C499.804 104.763 499.804 104.152 499.804 103.54ZM480.476 53.9997C480.86 53.9997 481.372 53.8468 481.884 53.9997C484.956 54.4584 487.644 55.9875 490.332 57.6694C492.124 58.8926 493.532 62.1035 493.148 64.3971C492.124 70.2074 489.308 83.9686 482.78 83.9686C479.196 83.9686 474.972 80.4518 474.716 76.0176C474.204 69.4429 475.228 63.021 477.148 56.752C477.532 55.07 478.812 54.1526 480.476 53.9997ZM513.628 60.4216C513.884 62.1035 513.372 63.4797 512.604 64.7029C512.476 65.0087 512.22 65.1616 511.964 65.0087C511.708 65.0087 511.452 64.8558 511.452 64.55C511.068 63.021 511.068 61.4919 511.836 60.1158C512.092 59.6571 512.732 59.6571 513.244 59.6571C513.372 59.6571 513.5 60.1158 513.628 60.4216ZM511.068 75.406C510.812 76.1706 510.428 77.3938 509.916 78.4641C509.532 79.2286 508.252 79.3815 507.868 78.9228C507.612 78.4641 507.356 77.6996 507.484 77.2409C507.612 76.3235 507.996 75.406 508.252 74.6415C508.764 73.4183 509.66 72.8067 510.172 73.4183C510.428 73.877 510.684 74.4886 511.068 75.406ZM500.06 77.088C500.188 76.7822 500.316 76.6293 500.316 76.3234C500.316 76.4764 500.316 76.6293 500.188 76.7822C500.188 76.9351 500.06 77.088 500.06 77.088Z" fill="black"/>
<path d="M383.3 105.071C381.124 108.434 379.716 112.257 378.18 116.08C377.796 117.15 376.9 118.22 376.132 118.679C374.596 119.291 373.572 120.514 372.548 121.89C371.14 123.572 369.348 123.572 367.556 122.96C367.3 122.807 367.044 122.501 367.044 122.349C366.916 121.737 366.788 120.972 367.044 120.667C369.732 117.914 372.548 115.315 375.364 112.716C376.388 111.645 377.284 110.575 377.796 109.199C382.276 98.9545 384.324 88.2514 385.988 76.9366C386.116 75.4076 385.988 73.8785 385.86 72.3495C385.732 70.6676 384.324 68.9857 382.916 68.6799C380.356 68.2212 377.796 68.527 375.236 69.2915C373.828 69.7502 372.292 69.9031 370.884 69.9031C368.068 69.9031 365.252 69.1386 362.564 67.6096C362.18 67.4567 362.052 66.6921 361.924 66.2334C361.924 66.0805 362.18 65.6218 362.308 65.4689C364.228 64.5515 366.148 63.1754 368.196 63.1754C368.836 63.1754 369.476 63.3283 370.244 63.6341C370.884 63.9399 371.524 63.6341 371.524 63.0225C371.524 62.5638 371.012 62.1051 370.628 61.7993C369.86 61.3406 369.092 61.1877 368.452 60.7289C368.196 60.7289 368.068 60.4231 368.068 60.1173C368.068 59.9644 368.196 59.5057 368.452 59.5057C373.444 58.5883 378.564 57.8238 383.556 56.9064C385.732 56.6006 387.268 55.2245 388.036 52.4722C388.42 50.7903 389.316 49.1084 389.7 47.4265C389.956 46.0503 390.212 44.3684 390.084 42.9923C389.572 39.1697 388.932 37.182 385.22 37.7936C384.196 37.9465 383.172 38.0994 382.148 38.0994C380.1 37.7936 379.076 34.5827 379.076 32.442C379.076 26.9376 380.356 22.1976 384.452 18.9866C385.86 17.7634 386.372 16.2344 386.5 14.3996C386.5 12.8706 386.5 11.3415 386.628 9.8125C386.756 8.13058 388.292 6.60156 389.828 6.60156C394.692 6.60156 403.78 8.74219 405.956 14.8583C406.98 17.9163 409.156 18.6808 411.588 18.5279C412.868 18.375 414.148 18.375 415.428 18.0692C419.652 16.9989 424.004 16.6931 428.356 16.6931C431.94 16.6931 435.524 16.9989 439.108 17.3047C440.516 17.4576 442.18 17.6105 443.588 17.3047C447.3 16.3873 447.94 18.0692 448.452 22.1976C448.708 24.4911 449.092 26.9376 449.22 29.384C449.476 31.2188 449.092 33.0536 448.452 34.7356C447.3 37.4878 445.38 39.0168 442.948 38.8639C442.18 38.711 441.412 38.711 440.644 38.5581C431.172 36.1117 421.444 35.5001 411.716 35.653C410.436 35.653 409.156 35.653 407.876 35.9588C405.188 36.2646 404.932 39.9342 404.932 42.3807C405.06 44.3684 406.34 45.8974 407.876 46.0503C410.948 46.3561 414.02 46.2032 416.964 45.1329C419.524 44.0626 421.956 44.0626 424.516 44.3684C426.18 44.5213 427.716 45.5916 428.1 47.4265C428.996 51.5548 429.764 55.6832 430.404 59.8115C430.788 62.1051 428.484 65.316 426.308 65.9276C424.9 66.2334 423.364 66.3863 421.828 66.3863C417.988 66.3863 414.148 66.0805 410.308 66.2334C402.5 66.5392 402.116 67.4566 400.964 76.0192C399.94 83.8172 398.788 91.6152 397.124 99.2603C396.228 102.93 395.332 106.294 394.564 109.811C393.668 114.092 391.492 117.609 389.316 120.972C387.396 123.725 384.964 125.101 381.892 125.254C380.612 125.254 379.332 125.254 378.564 123.725C377.924 122.654 378.564 121.431 378.948 120.361C381.508 114.703 383.044 111.492 383.3 105.071ZM419.908 20.3628V20.5157C416.324 20.5157 412.74 20.5157 409.284 20.5157C408.516 20.5157 407.748 20.9744 406.98 21.1273C406.468 21.2802 405.956 22.8092 406.468 23.4208C406.852 24.0324 407.492 24.7969 408.132 24.9498C409.028 25.2556 410.18 25.4085 411.204 25.2556C418.756 23.8795 426.308 22.8092 433.988 23.5737C434.628 23.5737 435.012 23.115 434.884 22.5034C434.884 22.1976 434.628 21.7389 434.5 21.7389C429.636 21.2802 424.772 20.8215 419.908 20.3628ZM409.924 49.1084C408.772 49.4142 407.236 49.72 405.828 50.1787C405.188 50.3316 405.06 51.0961 405.316 51.7077C405.444 52.0135 405.7 52.3193 405.828 52.3193C408.004 52.9309 409.796 52.0135 411.716 51.0961C411.844 50.9432 411.972 50.6374 411.972 50.3316C411.972 50.1787 411.844 49.72 411.716 49.72C411.204 49.4142 410.692 49.4142 409.924 49.1084ZM390.468 72.9611L390.34 72.3495L389.956 72.9611H390.468ZM386.628 88.0984C385.988 91.0036 385.732 91.7681 385.604 92.6855C385.604 93.2971 385.732 93.7558 385.86 94.3674C386.244 94.0616 386.884 94.0616 387.14 93.6029C388.42 91.0036 389.316 88.0984 389.06 85.0404C389.06 84.7346 388.804 84.2759 388.676 84.2759C388.292 84.4288 387.652 84.5817 387.524 84.8875C387.012 86.5694 386.5 88.2513 386.628 88.0984ZM383.428 104.765C383.684 104.306 383.94 103.847 384.068 103.542C384.452 102.777 384.324 102.318 383.684 102.471C383.556 102.471 383.556 102.93 383.556 103.236C383.428 103.694 383.428 104.153 383.428 104.765Z" fill="black"/>
<path d="M318.17 18.3726C318.938 18.3726 321.37 18.2197 323.802 18.3726C326.746 18.5255 328.922 20.3603 329.818 23.7242C330.458 25.8648 330.842 28.1584 331.226 30.299C331.482 32.1338 330.202 34.2745 328.666 34.5803C326.234 34.8861 323.802 35.1919 321.37 35.3448C318.938 35.4977 316.634 35.8035 314.33 37.0267C311.386 38.7086 308.314 39.9318 305.37 41.308C304.858 41.4609 304.218 41.6138 303.834 41.308C302.81 40.6963 301.914 40.5434 300.89 40.5434C298.97 40.5434 297.05 41.308 295.13 41.308C294.874 41.1551 294.362 42.0725 294.362 42.6841C294.234 43.1428 294.618 43.7544 295.002 44.2131C295.13 44.5189 295.386 44.5189 295.642 44.6718C300.762 46.5066 306.01 48.4944 311.13 50.3292C312.666 50.9408 313.178 50.1763 312.794 48.0357C312.794 47.7298 312.666 47.1182 312.794 47.1182C313.178 46.9653 313.818 46.6595 314.074 46.8124C315.098 47.2711 315.994 47.8827 317.018 48.6473C325.978 54.9163 325.978 54.9163 330.586 65.4665C333.146 71.4297 333.53 77.6987 333.018 84.2735C332.378 89.3193 331.226 94.6708 327.77 98.0347C324.058 101.551 320.346 105.374 317.146 109.655C316.25 110.878 315.098 111.796 313.946 112.407C311.258 113.937 308.442 115.313 305.754 116.536C303.194 117.759 300.634 118.524 298.074 119.747C296.794 120.206 295.258 120.817 294.618 122.04C293.082 124.487 291.418 125.251 289.626 125.251C288.474 125.251 287.194 124.945 285.914 124.487C284.634 124.028 283.354 123.569 281.946 123.264C275.93 121.735 272.218 113.172 271.834 106.291C271.322 96.6586 273.498 87.7902 277.85 79.8393C278.234 78.9219 279.002 78.4632 279.642 77.8516C280.026 77.6987 280.794 77.5458 281.178 77.6987C281.434 78.0045 281.818 78.769 281.818 79.3806C281.69 80.298 281.306 81.2154 281.05 81.9799C279.258 86.1083 278.618 90.5425 278.362 94.9766C278.362 96.9644 278.746 98.9521 279.77 100.481C281.946 103.233 284.378 105.068 287.194 105.068C288.09 105.068 288.986 104.915 289.882 104.609C297.178 102.163 304.474 99.7166 311.13 95.2824C311.77 94.8237 312.666 94.5179 313.178 93.9063C317.274 89.6251 321.498 85.6496 324.954 80.7567C325.21 80.4509 325.338 80.1451 325.466 79.9922C327.002 77.3929 327.13 74.1819 325.466 71.8884C319.834 62.1027 300.25 53.5401 290.906 53.2343C286.042 53.2343 281.178 53.0814 276.442 52.164C270.81 51.0937 267.226 44.6718 268.506 37.9441C269.018 34.8861 270.17 31.828 270.81 28.77C271.834 23.5713 275.162 22.3481 279.13 22.0423H281.562C281.946 22.0423 282.33 21.8894 282.714 21.8894C286.17 21.5836 289.754 20.972 293.21 20.6662C301.018 19.7487 308.698 17.761 318.17 18.3726ZM316.378 22.3481C312.666 22.1952 309.082 23.7242 305.498 24.6416C303.834 25.1003 303.45 27.6997 304.602 29.2287C305.498 30.6048 306.778 31.2164 308.058 31.2164C313.306 31.6751 318.17 29.9932 322.778 27.6997C323.162 27.3938 323.418 26.7822 323.674 26.1706C323.93 25.559 323.29 24.3358 322.522 23.8771C322.138 23.5713 321.626 23.1126 321.114 23.1126C319.578 22.8068 318.042 22.501 316.378 22.3481ZM289.882 112.866C292.826 112.713 295.642 112.407 297.562 109.197C294.746 109.655 292.186 110.878 289.882 112.866ZM289.498 113.019C289.114 113.019 288.602 113.019 288.218 113.019C287.45 113.172 287.194 113.478 287.706 114.089C287.834 114.242 288.218 114.089 288.474 113.937C288.858 113.784 289.114 113.325 289.498 113.019Z" fill="black"/>
<path d="M241.004 67.6056C240.492 68.0643 239.98 68.523 239.468 68.9817C238.956 69.2875 238.444 69.1346 238.188 68.6759C237.932 68.2172 237.804 67.7585 237.804 67.2998C237.804 62.5598 237.676 57.667 238.828 52.927C239.724 49.1044 239.468 45.2819 239.468 41.3064C239.468 39.3187 238.7 37.6368 236.524 36.7194C234.732 35.802 233.708 34.4258 232.684 33.0497C229.868 29.533 229.612 25.7104 231.02 21.8878C231.404 20.6646 232.3 19.9001 233.58 19.4414C234.22 19.2885 235.116 19.1356 235.884 18.9827C242.412 18.8298 248.94 18.524 255.596 18.3711C258.412 18.3711 261.356 18.6769 264.3 18.9827C268.908 19.4414 270.188 24.6401 270.828 29.2272C270.956 29.533 270.444 30.1446 269.932 30.1446C268.012 30.6033 265.964 31.062 263.916 31.5207C260.972 32.1323 258.924 33.6613 257.9 36.1078C256.236 39.9303 254.572 43.7529 253.932 47.8812C252.78 55.0676 251.116 62.254 250.22 69.4404C248.94 79.8378 248.556 90.388 249.452 101.091C249.58 101.703 249.58 102.467 249.708 103.079C250.092 105.525 250.988 106.443 253.548 107.054C254.316 107.207 255.084 107.36 255.98 107.513C258.796 108.125 260.588 109.807 260.716 112.406C260.844 113.476 260.716 114.7 260.588 115.77C260.46 117.146 259.692 117.91 258.284 118.063C255.212 118.522 252.012 118.828 248.94 119.134C247.916 119.287 246.892 119.439 245.868 119.592C245.1 119.745 245.1 120.357 245.868 121.121C246.252 121.427 246.508 121.733 246.892 122.345C242.668 123.415 238.316 124.332 234.092 125.25C232.812 125.556 231.532 125.403 230.124 125.403C227.436 125.403 223.98 121.121 223.852 118.063C223.724 116.687 223.724 115.158 223.98 113.935C224.62 109.96 225.644 109.195 230.636 109.042C231.532 108.889 232.3 108.889 233.068 108.889C234.86 108.736 236.012 107.666 235.884 106.137C235.884 105.067 235.756 103.843 235.628 102.773C235.116 98.1861 234.732 93.599 235.628 89.0119C236.14 85.9539 235.244 82.59 236.14 79.532C236.268 79.2262 236.524 79.0733 236.652 79.0733C237.164 79.2262 237.932 79.3791 237.932 79.6849C238.316 80.7552 238.572 81.9784 238.572 83.0487C238.572 84.5778 238.188 86.2597 237.932 87.7887C237.932 88.7061 237.932 89.6235 238.06 90.541C238.06 90.6939 238.444 90.9997 238.444 90.9997C238.956 90.9997 239.596 90.8468 239.724 90.6939C239.98 89.7764 240.364 89.0119 240.364 88.0945C240.492 82.59 240.364 77.0856 241.132 71.5811C241.388 70.3579 241.132 68.9817 241.004 67.6056ZM241.004 67.4527C242.924 64.7005 242.54 61.4895 243.052 58.4315C243.052 58.1257 242.54 57.8199 242.284 57.5141C241.9 57.667 241.388 57.9728 241.26 58.2786C240.236 61.3366 239.724 64.2418 241.004 67.4527ZM253.42 111.03C253.292 111.183 253.164 111.336 253.164 111.489C253.292 111.641 253.548 111.641 253.804 111.794C253.804 111.489 253.932 111.336 253.932 111.336C253.804 111.183 253.548 111.183 253.42 111.03Z" fill="black"/>
<path d="M120.17 123.264C120.682 122.805 121.066 122.193 121.45 122.04C123.114 121.582 124.65 121.123 126.314 120.664C129.898 119.747 132.458 117.606 133.354 113.172C136.81 107.209 138.73 97.1174 139.242 90.2368C139.37 88.2491 139.37 86.2614 139.498 84.2736C140.522 71.4298 139.882 58.5861 137.834 45.8952C137.578 43.9074 135.914 39.4733 135.53 37.6385C134.762 34.5804 133.866 31.6753 131.434 29.8404C129.898 28.6172 128.746 26.4766 127.594 24.6418C127.082 23.8773 127.082 22.5011 126.954 21.4308C126.954 20.5134 128.106 18.9844 128.746 18.9844C131.69 19.1373 134.506 18.9844 137.45 19.4431C140.394 20.0547 144.234 22.3482 145.386 25.865C148.97 37.4856 153.834 51.3997 154.218 63.9376C154.346 65.3138 154.73 66.6899 155.114 68.066C155.242 68.6776 156.394 68.8305 156.906 68.3718C158.186 67.4544 158.954 65.9254 159.466 64.3963C163.562 54.4577 166.122 38.5559 166.89 27.6998C167.018 26.3237 166.762 24.9476 165.738 23.8773C164.33 22.5011 164.33 20.3605 164.202 18.3728C164.202 17.4554 165.226 16.2321 165.994 16.0792C166.25 15.9263 166.506 15.7734 166.762 15.7734C171.626 16.385 180.714 17.7612 181.354 25.2534C181.482 28.1585 181.738 31.0637 181.482 33.8159C180.842 39.932 177.77 59.6564 174.058 64.0905C173.546 64.5492 173.034 65.3138 172.778 66.0783C172.522 66.8428 172.266 67.7602 172.394 68.5247C172.522 69.4421 173.29 69.7479 174.058 69.7479C175.722 69.7479 177.386 69.4421 179.05 69.595C180.33 69.595 181.482 69.9008 182.634 70.2066C183.53 70.5124 184.426 71.8886 184.298 72.6531C184.17 73.7234 183.658 74.1821 182.89 74.4879C179.178 76.1698 177.002 77.393 176.106 82.2859C173.93 92.8362 174.57 103.386 177.77 113.478C180.074 120.511 182.762 127.239 186.986 132.897C188.138 134.273 189.034 135.955 189.93 137.789C190.698 139.166 189.93 141.459 188.394 141.918C187.498 142.224 186.602 142.529 185.706 142.376C180.586 141 174.698 135.802 171.754 130.909C163.946 118.218 161.642 107.973 158.698 92.9891C158.442 91.9187 158.186 90.8484 157.93 89.7781C157.674 88.5549 156.65 87.9433 155.754 88.0962C154.858 88.2491 154.346 88.8607 154.218 89.7781C153.834 92.2246 153.578 94.8239 153.194 97.4232C152.682 101.399 150.762 108.585 150.25 112.561C148.97 122.805 141.162 126.016 133.61 126.016C131.69 126.016 129.77 125.71 127.85 124.946C126.058 124.181 124.138 124.334 122.218 123.875C121.578 123.875 120.938 123.57 120.17 123.264ZM141.418 91.0013L141.546 91.6129L141.802 91.0013H141.418ZM138.858 108.126C138.986 107.973 139.37 107.973 139.37 107.821C139.626 106.75 141.418 102.469 141.546 101.399C141.674 100.787 141.29 100.328 140.778 100.481C140.65 100.481 140.394 100.787 140.394 101.093C140.138 102.163 138.474 106.444 138.474 107.515C138.346 107.668 138.73 107.973 138.858 108.126Z" fill="black"/>
<path d="M66.8852 85.6508C65.7332 85.4979 64.5812 85.345 64.1972 86.8741C62.1492 92.3785 60.9972 102.623 60.7412 108.433C60.3572 112.562 57.9252 120.818 53.7012 121.277C52.2932 121.43 51.1412 120.818 50.1172 119.595C50.1172 119.289 50.1172 118.831 50.2452 118.678C59.3332 108.892 61.2532 92.9902 61.6372 78.9231C61.6372 74.3361 62.4052 70.0548 64.1972 65.9265C64.8372 64.2445 64.9652 62.1039 64.3252 60.2691C61.6372 52.1653 61.1252 43.4498 59.2052 35.1931C58.3092 31.3706 57.5412 27.8538 55.4932 24.6429C53.9572 22.0435 54.4692 20.2087 56.5172 17.9152C57.4132 17.1507 58.4372 16.3861 59.4612 16.6919C63.4292 17.3036 67.3972 18.221 71.3652 19.1384C73.4132 19.75 76.2292 21.7377 76.4852 24.49C76.8692 27.7009 77.2532 30.9118 77.3812 33.9699C78.1492 50.4833 83.6532 62.2568 91.5892 75.1006C92.8692 77.2412 94.4052 78.7702 96.9652 77.8528C97.3492 77.6999 97.8612 78.0057 98.6292 78.1586C99.1412 73.5716 98.5012 68.5258 100.805 64.3974V64.2445C99.2692 61.0336 99.0132 57.5168 99.9092 54.0001C101.061 48.9543 101.061 43.9085 100.677 38.8628C100.421 35.0402 100.421 31.2177 101.701 27.3951C102.597 24.7958 102.597 21.7377 102.213 18.8326C101.445 13.6339 102.853 8.74103 104.005 3.69525C104.261 2.47203 105.285 1.70752 106.437 1.40171C107.205 1.09591 107.973 0.790113 108.741 0.943013C111.941 1.70752 115.141 2.31913 118.213 3.38944C119.621 4.00105 120.901 5.37718 122.181 6.6004C123.205 7.67071 123.461 9.35264 123.205 11.0346C123.077 12.2578 122.565 13.481 122.181 14.7042C121.413 17.3036 120.517 20.0558 119.749 22.808C115.269 37.0279 113.861 52.0123 112.581 66.9968C112.069 74.3361 111.685 81.8283 112.069 89.1676C112.325 92.5314 112.965 95.4366 115.525 97.4243C116.165 97.883 116.677 98.6475 117.189 99.412C118.085 100.482 118.085 102.776 117.189 103.846C117.061 103.999 116.933 104.305 116.677 104.458C113.221 106.14 112.837 109.351 113.477 113.173C113.861 114.702 114.245 116.231 114.501 117.76C114.885 119.901 113.349 122.347 111.301 122.347C110.021 122.5 108.613 122.347 107.461 121.889C104.005 120.513 97.7332 115.314 97.2212 110.421C96.7092 106.598 96.3252 102.776 95.8132 99.1062C95.6852 97.4243 95.1732 95.8953 94.0212 94.825C89.6692 91.0024 86.2132 86.1096 82.1172 81.9812C81.0932 80.9109 79.3012 81.9812 79.0452 83.5102C78.9172 84.2747 78.6612 84.8863 78.6612 85.4979C78.7892 92.5314 77.3812 99.412 75.9732 106.293C74.6932 114.091 71.3652 125.253 63.3012 125.253C62.4052 125.253 61.3812 124.947 60.3572 124.641C58.6932 124.029 58.0532 122.5 58.9492 121.124C60.7412 117.913 62.9172 114.855 64.3252 111.491C67.5252 103.235 69.7012 94.825 66.8852 85.6508ZM100.933 64.5503C100.933 65.009 100.933 65.4677 100.933 65.9265C100.933 66.8439 101.317 66.9968 101.701 66.5381C101.701 66.3852 101.701 65.9265 101.573 65.7736C101.317 65.3148 101.061 64.8561 100.933 64.5503Z" fill="black"/>
<path d="M17.8787 67.6056C17.3667 68.0643 16.8547 68.523 16.3427 68.9817C15.8307 69.2875 15.3187 69.1346 15.0627 68.6759C14.8067 68.2172 14.6787 67.7585 14.6787 67.2998C14.6787 62.5598 14.5507 57.667 15.7027 52.927C16.5987 49.1044 16.3427 45.2819 16.3427 41.3064C16.3427 39.3187 15.5747 37.6368 13.3987 36.7194C11.6067 35.802 10.5827 34.4258 9.55865 33.0497C6.74265 29.533 6.48666 25.7104 7.89466 21.8878C8.27866 20.6646 9.17466 19.9001 10.4547 19.4414C11.0947 19.2885 11.9907 19.1356 12.7587 18.9827C19.2867 18.8298 25.8147 18.524 32.4707 18.3711C35.2867 18.3711 38.2307 18.6769 41.1747 18.9827C45.7827 19.4414 47.0627 24.6401 47.7027 29.2272C47.8307 29.533 47.3187 30.1446 46.8067 30.1446C44.8867 30.6033 42.8387 31.062 40.7907 31.5207C37.8467 32.1323 35.7987 33.6613 34.7747 36.1078C33.1107 39.9303 31.4467 43.7529 30.8067 47.8812C29.6547 55.0676 27.9907 62.254 27.0947 69.4404C25.8147 79.8378 25.4307 90.388 26.3267 101.091C26.4547 101.703 26.4547 102.467 26.5827 103.079C26.9667 105.525 27.8627 106.443 30.4227 107.054C31.1907 107.207 31.9587 107.36 32.8547 107.513C35.6707 108.125 37.4627 109.807 37.5907 112.406C37.7187 113.476 37.5907 114.7 37.4627 115.77C37.3347 117.146 36.5667 117.91 35.1587 118.063C32.0867 118.522 28.8867 118.828 25.8147 119.134C24.7907 119.287 23.7667 119.439 22.7427 119.592C21.9747 119.745 21.9747 120.357 22.7427 121.121C23.1267 121.427 23.3827 121.733 23.7667 122.345C19.5427 123.415 15.1907 124.332 10.9667 125.25C9.68665 125.556 8.40666 125.403 6.99866 125.403C4.31066 125.403 0.854656 121.121 0.726656 118.063C0.598656 116.687 0.598654 115.158 0.854654 113.935C1.49465 109.96 2.51866 109.195 7.51066 109.042C8.40666 108.889 9.17466 108.889 9.94266 108.889C11.7347 108.736 12.8867 107.666 12.7587 106.137C12.7587 105.067 12.6307 103.843 12.5027 102.773C11.9907 98.1861 11.6067 93.599 12.5027 89.0119C13.0147 85.9539 12.1187 82.59 13.0147 79.532C13.1427 79.2262 13.3987 79.0733 13.5267 79.0733C14.0387 79.2262 14.8067 79.3791 14.8067 79.6849C15.1907 80.7552 15.4467 81.9784 15.4467 83.0487C15.4467 84.5778 15.0627 86.2597 14.8067 87.7887C14.8067 88.7061 14.8067 89.6235 14.9347 90.541C14.9347 90.6939 15.3187 90.9997 15.3187 90.9997C15.8307 90.9997 16.4707 90.8468 16.5987 90.6939C16.8547 89.7764 17.2387 89.0119 17.2387 88.0945C17.3667 82.59 17.2387 77.0856 18.0067 71.5811C18.2627 70.3579 18.0067 68.9817 17.8787 67.6056ZM17.8787 67.4527C19.7987 64.7005 19.4147 61.4895 19.9267 58.4315C19.9267 58.1257 19.4147 57.8199 19.1587 57.5141C18.7747 57.667 18.2627 57.9728 18.1347 58.2786C17.1107 61.3366 16.5987 64.2418 17.8787 67.4527ZM30.2947 111.03C30.1667 111.183 30.0387 111.336 30.0387 111.489C30.1667 111.641 30.4227 111.641 30.6787 111.794C30.6787 111.489 30.8067 111.336 30.8067 111.336C30.6787 111.183 30.4227 111.183 30.2947 111.03Z" fill="black"/>
</svg>
