<?xml version="1.0" encoding="UTF-8" standalone="no" ?>
<!DOCTYPE svg PUBLIC "-//W3C//DTD SVG 1.1//EN" "http://www.w3.org/Graphics/SVG/1.1/DTD/svg11.dtd">
<svg xmlns="http://www.w3.org/2000/svg" xmlns:xlink="http://www.w3.org/1999/xlink" version="1.1" width="1080" height="1080" viewBox="0 0 1080 1080" xml:space="preserve">
<desc>Created with Fabric.js 5.2.4</desc>
<defs>
</defs>
<g transform="matrix(1 0 0 1 540 540)" id="6ecf8830-d20a-441d-8b1e-463efe438031"  >
<rect style="stroke: none; stroke-width: 1; stroke-dasharray: none; stroke-linecap: butt; stroke-dashoffset: 0; stroke-linejoin: miter; stroke-miterlimit: 4; fill: rgb(255,255,255); fill-rule: nonzero; opacity: 1; visibility: hidden;" vector-effect="non-scaling-stroke"  x="-540" y="-540" rx="0" ry="0" width="1080" height="1080" />
</g>
<g transform="matrix(1 0 0 1 540 540)" id="ee70ce79-764b-4830-bc74-2f43053e1644"  >
</g>
<g transform="matrix(1.2 0 0 1.2 669.64 592.19)"  >
<path style="stroke: none; stroke-width: 1; stroke-dasharray: none; stroke-linecap: butt; stroke-dashoffset: 0; stroke-linejoin: miter; stroke-miterlimit: 4; fill: rgb(0,0,0); fill-rule: nonzero; opacity: 1;" vector-effect="non-scaling-stroke"  transform=" translate(-687.11, -71.06)" d="M 704.545 17.4356 C 705.313 17.4356 707.745 17.282 710.177 17.4356 C 713.121 17.5892 715.297 19.4324 716.193 22.8115 C 716.833 24.9619 717.217 27.2658 717.601 29.4162 C 717.857 31.2593 716.577 33.4097 715.041 33.7169 C 712.609 34.0241 710.177 34.3313 707.745 34.4849 C 705.313 34.6385 703.009 34.9457 700.705 36.1744 C 697.761 37.864 694.689 39.0928 691.745 40.4751 C 691.233 40.6287 690.593 40.7823 690.209 40.4751 C 689.185 39.8607 688.289 39.7071 687.265 39.7071 C 685.345 39.7071 683.425 40.4751 681.505 40.4751 C 681.249 40.3215 680.737 41.2431 680.737 41.8575 C 680.609 42.3183 680.993 42.9327 681.377 43.3935 C 681.505 43.7007 681.761 43.7007 682.017 43.8543 C 687.137 45.6974 692.385 47.6942 697.505 49.5373 C 699.041 50.1517 699.553 49.3837 699.169 47.2334 C 699.169 46.9262 699.041 46.3118 699.169 46.3118 C 699.553 46.1582 700.193 45.851 700.449 46.0046 C 701.473 46.4654 702.369 47.0798 703.393 47.8478 C 712.353 54.1452 712.353 54.1452 716.961 64.7434 C 719.521 70.7337 719.905 77.0311 719.393 83.6358 C 718.753 88.7045 717.601 94.0803 714.145 97.4595 C 710.433 100.992 706.721 104.832 703.521 109.133 C 702.625 110.362 701.473 111.283 700.321 111.898 C 697.633 113.434 694.817 114.816 692.129 116.045 C 689.569 117.273 687.009 118.041 684.449 119.27 C 683.169 119.731 681.633 120.345 680.993 121.574 C 679.457 124.032 677.793 124.8 676.001 124.8 C 674.849 124.8 673.569 124.492 672.289 124.032 C 671.009 123.571 669.729 123.11 668.321 122.803 C 662.305 121.267 658.593 112.666 658.209 105.754 C 657.697 96.0771 659.873 87.1685 664.225 79.1815 C 664.609 78.2599 665.377 77.7991 666.017 77.1847 C 666.401 77.0311 667.169 76.8775 667.553 77.0311 C 667.809 77.3383 668.193 78.1063 668.193 78.7207 C 668.065 79.6423 667.681 80.5638 667.425 81.3318 C 665.633 85.4789 664.993 89.9332 664.737 94.3875 C 664.737 96.3843 665.121 98.381 666.145 99.917 C 668.321 102.682 670.753 104.525 673.569 104.525 C 674.465 104.525 675.361 104.371 676.257 104.064 C 683.553 101.607 690.849 99.149 697.505 94.6947 C 698.145 94.2339 699.041 93.9267 699.553 93.3124 C 703.649 89.0116 707.873 85.0181 711.329 80.1031 C 711.585 79.7959 711.713 79.4887 711.841 79.3351 C 713.377 76.7239 713.505 73.4984 711.841 71.1945 C 706.209 61.3643 686.625 52.7629 677.281 52.4557 C 672.417 52.4557 667.553 52.3021 662.817 51.3805 C 657.185 50.3053 653.601 43.8543 654.881 37.096 C 655.393 34.0241 656.545 30.9521 657.185 27.8802 C 658.209 22.6579 661.537 21.4292 665.505 21.122 L 667.937 21.122 C 668.321 21.122 668.705 20.9684 669.089 20.9684 C 672.545 20.6612 676.129 20.0468 679.585 19.7396 C 687.393 18.818 695.073 16.8213 704.545 17.4356 Z M 702.753 21.4292 C 699.041 21.2756 695.457 22.8115 691.873 23.7331 C 690.209 24.1939 689.825 26.805 690.977 28.341 C 691.873 29.7234 693.153 30.3378 694.433 30.3378 C 699.681 30.7985 704.545 29.109 709.153 26.805 C 709.537 26.4978 709.793 25.8835 710.049 25.2691 C 710.305 24.6547 709.665 23.4259 708.897 22.9651 C 708.513 22.6579 708.001 22.1971 707.489 22.1971 C 705.953 21.8899 704.417 21.5827 702.753 21.4292 Z M 676.257 112.358 C 679.201 112.205 682.017 111.898 683.937 108.672 C 681.121 109.133 678.561 110.362 676.257 112.358 Z M 675.873 112.512 C 675.489 112.512 674.977 112.512 674.593 112.512 C 673.825 112.666 673.569 112.973 674.081 113.587 C 674.209 113.741 674.593 113.587 674.849 113.434 C 675.233 113.28 675.489 112.819 675.873 112.512 Z" stroke-linecap="round" />
</g>
<g transform="matrix(1.2 0 0 1.2 569.24 582.95)"  >
<path style="stroke: none; stroke-width: 1; stroke-dasharray: none; stroke-linecap: butt; stroke-dashoffset: 0; stroke-linejoin: miter; stroke-miterlimit: 4; fill: rgb(0,0,0); fill-rule: nonzero; opacity: 1;" vector-effect="non-scaling-stroke"  transform=" translate(-616.26, -71.01)" d="M 605.303 98.2267 L 605.303 106.521 C 605.815 105.599 606.455 104.678 606.711 103.756 C 608.759 93.926 610.039 84.0958 609.143 73.9584 C 608.759 68.7361 608.503 63.3602 608.631 58.138 C 608.759 53.3765 607.991 48.7686 606.583 44.3143 C 605.047 39.2456 604.151 39.092 600.055 39.86 C 596.215 40.7815 592.375 41.8567 588.535 43.0855 C 586.103 43.6999 583.671 43.8535 581.239 43.2391 C 580.471 43.0855 579.703 42.7783 579.319 42.1639 C 577.271 39.86 576.119 36.9416 576.375 33.4089 C 576.503 32.4873 576.759 31.7194 577.015 30.7978 C 578.935 22.6571 577.911 22.35 586.103 21.4284 C 592.119 20.6604 598.391 20.5068 604.407 18.9708 C 605.047 18.6636 605.815 18.9708 606.455 18.9708 C 606.967 19.5852 606.839 19.7388 606.071 20.046 C 604.279 20.814 604.023 21.582 604.663 22.9643 C 605.687 25.2683 607.095 26.9579 609.399 26.6507 C 613.751 26.0363 618.103 25.2683 622.455 24.3467 C 622.839 24.3467 623.351 23.7323 623.351 23.2715 C 623.351 22.8107 622.839 22.1964 622.455 22.0428 C 621.303 21.8892 620.023 21.8892 618.871 21.7356 C 617.719 21.7356 617.207 20.5068 617.975 19.278 C 618.359 18.51 618.871 17.5885 619.383 17.4349 C 623.095 16.9741 626.807 17.2813 630.135 19.4316 C 630.903 19.8924 630.775 20.6604 630.263 21.582 C 629.495 22.9643 629.623 23.4251 630.391 23.5787 C 630.903 23.5787 631.287 23.7323 631.799 23.7323 C 634.103 23.4251 636.279 23.7323 637.815 26.0363 C 637.943 26.1899 638.327 26.3435 638.583 26.1899 C 638.967 26.0363 639.479 25.7291 639.735 25.4219 C 639.863 24.9611 639.863 24.1931 639.607 23.7323 C 638.711 22.1964 636.919 22.5036 635.639 21.4284 C 635.127 21.1212 634.999 19.7388 635.511 19.1244 C 636.407 18.0492 637.431 17.2813 638.711 17.2813 C 642.167 17.5885 645.495 17.7421 648.951 17.4349 C 650.103 17.4349 651.383 18.0492 652.407 18.9708 C 654.071 20.1996 655.223 22.1964 655.607 24.6539 C 656.247 27.4186 656.375 30.337 655.863 33.2553 C 655.607 34.7913 654.071 35.8665 653.047 35.4057 C 652.791 35.2521 652.535 35.0985 652.407 34.9449 C 648.567 31.7194 644.215 30.9514 639.735 30.9514 C 637.047 30.7978 634.359 30.7978 631.671 30.9514 C 631.287 30.9514 630.903 31.4122 630.391 31.5657 C 630.903 31.8729 631.159 32.4873 631.671 32.4873 C 633.975 32.7945 636.535 31.8729 638.839 32.9481 C 639.223 33.4089 639.095 34.0233 638.327 34.0233 C 632.951 34.6377 627.575 35.2521 622.199 35.8665 C 620.919 36.1736 618.999 35.4057 618.487 37.4024 C 618.103 38.7848 619.511 39.86 620.407 40.7815 C 622.583 42.7783 623.351 45.3894 623.223 48.615 C 623.223 49.0758 623.223 49.6901 623.223 50.3045 C 624.503 59.6739 623.735 69.1969 623.095 78.5663 C 622.327 88.7037 620.279 109.439 614.391 117.273 C 610.551 122.956 605.687 125.72 599.543 124.492 C 598.263 124.338 597.111 124.031 595.959 123.724 C 595.575 123.57 595.191 122.802 595.191 122.341 C 595.063 121.881 595.191 121.113 595.319 120.652 C 595.703 119.577 596.087 118.348 596.599 117.426 C 599.671 111.743 602.231 105.599 604.535 99.4554 C 604.663 98.9947 605.047 98.6875 605.303 98.2267 L 605.303 98.0731 L 605.431 98.0731 L 605.303 98.2267 Z M 613.751 17.4349 L 613.495 17.8957 L 613.239 17.4349 L 613.751 17.4349 Z M 645.623 24.3467 L 645.879 24.9611 L 646.135 24.3467 L 645.623 24.3467 Z M 644.471 28.1866 L 644.599 27.7258 L 644.087 27.8794 L 644.471 28.1866 Z M 621.943 28.3402 L 622.455 28.4938 L 622.327 27.8794 L 621.943 28.3402 Z M 618.615 30.7978 C 617.207 32.0265 615.415 31.5657 613.879 32.1801 C 613.623 32.1801 613.495 32.9481 613.367 33.4089 C 613.239 33.5625 613.623 33.8697 613.751 34.0233 C 616.823 34.6377 619.895 34.3305 622.967 33.8697 C 623.223 33.8697 623.607 32.9481 623.607 32.6409 C 623.607 32.1801 623.095 31.7194 622.711 31.4122 C 621.431 30.6442 620.023 30.6442 618.615 30.7978 Z M 605.431 97.9195 C 605.431 96.8443 605.431 95.9227 605.559 94.8475 C 605.559 94.694 605.815 94.2332 605.815 94.2332 C 606.455 94.2332 606.583 94.5403 606.583 95.3083 C 606.455 96.3835 606.199 97.3051 605.431 97.9195 Z M 605.303 106.982 C 604.279 108.518 604.023 110.207 603.895 112.05 C 604.919 110.514 605.303 108.825 605.303 106.982 Z M 603.767 112.358 C 602.359 113.586 601.463 115.276 600.951 117.273 C 602.615 116.351 603.383 114.508 603.767 112.358 Z M 600.823 117.733 L 599.671 120.652 C 600.311 119.884 600.567 118.809 600.823 117.733 Z" stroke-linecap="round" />
</g>
<g transform="matrix(1.2 0 0 1.2 457.15 583.55)"  >
<path style="stroke: none; stroke-width: 1; stroke-dasharray: none; stroke-linecap: butt; stroke-dashoffset: 0; stroke-linejoin: miter; stroke-miterlimit: 4; fill: rgb(0,0,0); fill-rule: nonzero; opacity: 1;" vector-effect="non-scaling-stroke"  transform=" translate(-537.88, -66.4)" d="M 507.624 108.367 L 507.496 108.214 C 508.008 107.292 508.52 106.371 508.904 105.449 C 509.544 103.759 510.44 102.377 511.848 101.302 L 511.848 100.995 L 511.848 101.302 C 511.08 104.067 510.44 106.831 509.8 109.596 C 509.672 110.057 509.544 110.825 509.672 111.286 C 509.8 111.746 510.44 112.207 510.696 112.207 C 511.464 112.054 512.36 111.746 512.616 111.132 C 514.792 107.446 517.224 103.913 518.632 99.9196 C 520.296 95.6189 522.344 91.4717 524.52 87.6318 C 525.416 86.0959 525.928 84.5599 526.056 82.7167 C 526.312 78.7232 527.08 75.0369 528.616 71.5042 C 529.128 70.2754 529 68.7395 529.128 67.2035 C 529.256 66.4355 528.872 65.9747 528.36 65.9747 C 528.104 65.9747 527.848 66.2819 527.72 66.4355 C 526.312 71.965 524.008 76.7265 520.68 81.0272 C 520.296 81.6416 519.912 82.256 519.528 82.8703 L 519.528 83.1775 C 518.504 85.6351 517.48 88.0926 516.456 90.5502 L 516.328 90.243 C 516.456 89.9358 516.584 89.7822 516.712 89.475 L 517.48 87.6318 C 517.608 87.3246 517.736 87.0174 517.864 86.7102 L 519.016 84.0991 C 519.144 83.7919 519.272 83.4847 519.4 83.1775 L 519.528 82.8703 C 519.784 79.6448 520.68 76.7265 521.448 73.6545 C 523.112 67.3571 524.648 61.0596 526.184 54.7622 C 526.568 53.0726 526.824 51.383 526.952 49.5399 C 527.208 48.3111 526.312 47.0823 525.416 46.9287 C 524.392 46.9287 523.496 46.7751 522.472 46.9287 C 519.272 47.2359 517.352 45.2392 516.072 42.0136 C 515.688 40.6313 515.176 39.0953 515.048 37.7129 C 514.92 35.409 515.048 32.9514 515.048 30.6475 C 515.176 28.8043 516.456 27.1148 517.864 26.8076 C 520.296 26.3468 522.728 26.0396 525.16 25.5788 C 527.336 25.2716 527.848 24.5036 527.976 21.2781 C 528.104 18.3598 528.616 17.131 530.024 17.131 C 530.536 17.131 531.176 17.2846 531.944 17.5918 C 534.76 18.9742 537.448 20.2029 540.264 21.5853 C 542.696 22.8141 545.128 24.1964 547.56 25.5788 C 549.224 23.8893 549.864 21.5853 550.632 19.4349 C 551.784 16.2094 552.936 12.8303 553.96 9.45116 C 554.344 8.52959 555.752 7.76161 556.52 8.06879 C 557.032 8.22239 557.544 8.22239 557.928 8.52959 C 561.768 10.8335 565.48 12.9839 569.192 15.4414 C 570.472 16.363 571.752 17.131 573.288 17.4382 C 574.568 17.5918 574.696 18.5134 573.928 20.0493 C 573.672 20.5101 573.288 20.9709 573.032 21.4317 C 573.672 21.8925 574.44 22.1997 574.952 22.6605 C 576.232 24.1964 575.72 26.0396 575.336 27.7292 C 575.08 28.9579 574.184 29.5723 573.16 29.8795 C 572.904 29.8795 572.648 30.0331 572.52 29.8795 C 570.216 29.5723 567.912 29.1115 565.992 30.9547 C 562.536 34.4874 560.36 52.151 559.72 57.3733 C 559.208 61.674 558.952 66.1283 558.568 70.5826 C 558.44 71.8114 558.312 73.0402 558.568 74.2689 C 559.208 77.1873 558.952 80.1056 558.568 83.0239 C 558.44 84.5599 558.184 86.0959 558.44 87.4782 C 559.208 92.2397 559.336 97.0012 559.848 101.763 C 560.36 106.985 561.64 114.358 563.56 118.966 C 563.944 119.734 564.072 120.501 564.328 121.423 C 564.584 122.498 563.944 124.034 563.176 124.341 C 562.28 124.649 561.384 124.802 560.488 124.802 C 554.728 124.802 550.632 118.044 548.456 112.514 C 548.072 111.746 546.792 111.593 546.536 112.207 C 546.152 112.975 545.768 113.743 545.384 114.665 C 544.744 116.201 544.104 117.737 543.208 119.273 C 541.8 122.191 539.88 122.959 536.808 122.191 C 536.424 122.037 535.912 121.73 535.4 121.577 C 533.992 120.809 530.152 119.734 530.152 117.583 C 530.024 114.358 530.28 111.593 530.536 108.367 C 530.792 104.22 531.304 100.073 531.816 95.926 C 532.2 93.7757 535.784 92.2397 537.576 92.8541 C 538.728 93.1613 539.88 93.9293 541.032 94.3901 C 541.416 94.5437 541.928 94.6973 542.44 94.6973 C 543.464 95.0045 544.616 94.0829 544.744 93.0077 C 544.744 91.011 544.872 88.8606 544.872 86.7102 C 544.872 79.952 544.744 73.0402 544.616 66.2819 C 544.488 57.5269 545.128 48.9255 546.28 40.3241 C 546.408 39.2489 546.536 38.0201 546.408 36.7914 C 546.408 36.4842 545.768 35.8698 545.512 35.8698 C 545 35.8698 544.36 36.177 544.232 36.6378 C 543.848 37.7129 543.592 38.7881 543.464 40.0169 C 541.288 64.1316 529.896 100.841 517.48 120.041 C 515.688 122.652 513.256 123.113 510.696 122.191 C 506.088 120.655 502.632 116.201 500.072 111.593 C 499.816 110.979 500.2 109.443 500.712 109.135 C 502.376 108.521 503.912 107.753 505.576 107.446 C 506.216 107.292 506.984 107.907 507.624 108.367 Z M 530.792 47.8503 C 530.664 47.6967 530.28 47.8503 530.152 48.0039 C 530.152 48.6183 530.152 49.2327 530.152 49.6935 C 530.152 49.8471 530.536 50.0007 530.664 50.0007 C 531.304 49.5399 531.304 48.1575 530.792 47.8503 Z M 531.432 61.2132 C 531.304 59.6773 531.432 57.9877 530.408 56.7589 C 530.152 56.4517 529.384 56.4517 529.128 56.7589 C 528.36 57.9877 528.616 59.5237 529.64 60.4452 C 530.152 60.7524 530.792 60.906 531.432 61.2132 Z M 516.328 90.7038 C 516.328 91.4717 516.328 92.0861 516.2 92.8541 C 516.072 96.5404 514.664 99.3052 511.976 100.995 C 512.104 98.998 512.872 97.3084 513.768 95.6189 C 514.664 93.9293 515.432 92.3933 516.328 90.7038 Z" stroke-linecap="round" />
</g>
<g transform="matrix(1.2 0 0 1.2 350.34 592.19)"  >
<path style="stroke: none; stroke-width: 1; stroke-dasharray: none; stroke-linecap: butt; stroke-dashoffset: 0; stroke-linejoin: miter; stroke-miterlimit: 4; fill: rgb(0,0,0); fill-rule: nonzero; opacity: 1;" vector-effect="non-scaling-stroke"  transform=" translate(-471.61, -71.06)" d="M 489.045 17.4356 C 489.813 17.4356 492.245 17.282 494.677 17.4356 C 497.621 17.5892 499.797 19.4324 500.693 22.8115 C 501.333 24.9619 501.717 27.2658 502.101 29.4162 C 502.357 31.2593 501.077 33.4097 499.541 33.7169 C 497.109 34.0241 494.677 34.3313 492.245 34.4849 C 489.813 34.6385 487.509 34.9457 485.205 36.1744 C 482.261 37.864 479.189 39.0928 476.245 40.4751 C 475.733 40.6287 475.093 40.7823 474.709 40.4751 C 473.685 39.8607 472.789 39.7071 471.765 39.7071 C 469.845 39.7071 467.925 40.4751 466.005 40.4751 C 465.749 40.3215 465.237 41.2431 465.237 41.8575 C 465.109 42.3183 465.493 42.9327 465.877 43.3935 C 466.005 43.7007 466.261 43.7007 466.517 43.8543 C 471.637 45.6974 476.885 47.6942 482.005 49.5373 C 483.541 50.1517 484.053 49.3837 483.669 47.2334 C 483.669 46.9262 483.541 46.3118 483.669 46.3118 C 484.053 46.1582 484.693 45.851 484.949 46.0046 C 485.973 46.4654 486.869 47.0798 487.893 47.8478 C 496.853 54.1452 496.853 54.1452 501.461 64.7434 C 504.021 70.7337 504.405 77.0311 503.893 83.6358 C 503.253 88.7045 502.101 94.0803 498.645 97.4595 C 494.933 100.992 491.221 104.832 488.021 109.133 C 487.125 110.362 485.973 111.283 484.821 111.898 C 482.133 113.434 479.317 114.816 476.629 116.045 C 474.069 117.273 471.509 118.041 468.949 119.27 C 467.669 119.731 466.133 120.345 465.493 121.574 C 463.957 124.032 462.293 124.8 460.501 124.8 C 459.349 124.8 458.069 124.492 456.789 124.032 C 455.509 123.571 454.229 123.11 452.821 122.803 C 446.805 121.267 443.093 112.666 442.709 105.754 C 442.197 96.0771 444.373 87.1685 448.725 79.1815 C 449.109 78.2599 449.877 77.7991 450.517 77.1847 C 450.901 77.0311 451.669 76.8775 452.053 77.0311 C 452.309 77.3383 452.693 78.1063 452.693 78.7207 C 452.565 79.6423 452.181 80.5638 451.925 81.3318 C 450.133 85.4789 449.493 89.9332 449.237 94.3875 C 449.237 96.3843 449.621 98.381 450.645 99.917 C 452.821 102.682 455.253 104.525 458.069 104.525 C 458.965 104.525 459.861 104.371 460.757 104.064 C 468.053 101.607 475.349 99.149 482.005 94.6947 C 482.645 94.2339 483.541 93.9267 484.053 93.3124 C 488.149 89.0116 492.373 85.0181 495.829 80.1031 C 496.085 79.7959 496.213 79.4887 496.341 79.3351 C 497.877 76.7239 498.005 73.4984 496.341 71.1945 C 490.709 61.3643 471.125 52.7629 461.781 52.4557 C 456.917 52.4557 452.053 52.3021 447.317 51.3805 C 441.685 50.3053 438.101 43.8543 439.381 37.096 C 439.893 34.0241 441.045 30.9521 441.685 27.8802 C 442.709 22.6579 446.037 21.4292 450.005 21.122 L 452.437 21.122 C 452.821 21.122 453.205 20.9684 453.589 20.9684 C 457.045 20.6612 460.629 20.0468 464.085 19.7396 C 471.893 18.818 479.573 16.8213 489.045 17.4356 Z M 487.253 21.4292 C 483.541 21.2756 479.957 22.8115 476.373 23.7331 C 474.709 24.1939 474.325 26.805 475.477 28.341 C 476.373 29.7234 477.653 30.3378 478.933 30.3378 C 484.181 30.7985 489.045 29.109 493.653 26.805 C 494.037 26.4978 494.293 25.8835 494.549 25.2691 C 494.805 24.6547 494.165 23.4259 493.397 22.9651 C 493.013 22.6579 492.501 22.1971 491.989 22.1971 C 490.453 21.8899 488.917 21.5827 487.253 21.4292 Z M 460.757 112.358 C 463.701 112.205 466.517 111.898 468.437 108.672 C 465.621 109.133 463.061 110.362 460.757 112.358 Z M 460.373 112.512 C 459.989 112.512 459.477 112.512 459.093 112.512 C 458.325 112.666 458.069 112.973 458.581 113.587 C 458.709 113.741 459.093 113.587 459.349 113.434 C 459.733 113.28 459.989 112.819 460.373 112.512 Z" stroke-linecap="round" />
</g>
<g transform="matrix(1.2 0 0 1.2 726.81 428.71)"  >
<path style="stroke: none; stroke-width: 1; stroke-dasharray: none; stroke-linecap: butt; stroke-dashoffset: 0; stroke-linejoin: miter; stroke-miterlimit: 4; fill: rgb(0,0,0); fill-rule: nonzero; opacity: 1;" vector-effect="non-scaling-stroke"  transform=" translate(-375.32, -62.4)" d="M 364.578 74.8812 C 364.834 72.27 364.066 69.8125 363.17 67.5085 C 357.666 51.9953 353.826 41.7043 344.354 28.1878 C 343.074 26.191 341.538 24.8087 339.234 24.0407 C 337.954 23.5799 336.802 22.6583 335.778 21.7367 C 334.242 20.6616 334.498 18.3576 336.034 17.436 C 336.802 17.1288 337.57 16.5145 338.338 16.5145 C 341.794 16.0537 345.122 15.5929 348.578 15.5929 C 352.162 15.5929 354.85 17.1288 357.282 20.0472 C 366.114 31.2597 369.442 42.0115 373.666 55.8352 C 374.306 57.5247 377.25 59.2143 379.17 58.9071 C 379.682 58.9071 380.194 58.2927 380.322 57.8319 C 380.578 57.064 380.706 56.1424 380.45 55.3744 C 379.426 52.4561 379.938 49.6913 380.962 47.0802 C 384.162 39.0932 387.362 30.9525 390.818 22.9655 C 393.89 15.7465 396.962 8.52743 400.29 1.46199 C 400.802 0.233215 402.722 -0.381173 404.002 0.233215 C 407.33 1.61558 410.53 3.45875 413.346 5.91629 C 416.162 8.37384 416.674 11.753 414.754 15.1321 C 413.346 17.7432 411.81 20.508 410.018 23.1191 C 406.434 28.0342 403.49 33.5637 400.93 39.0932 C 399.394 42.7795 397.602 46.3122 395.938 49.8449 C 391.202 59.5215 388.258 69.6589 385.826 80.1034 C 385.826 80.257 385.826 80.5642 385.826 80.8714 C 385.698 81.9466 386.85 83.1754 387.874 83.1754 C 390.306 82.8682 392.866 82.561 395.426 82.4074 C 395.554 82.4074 395.938 82.7146 395.938 82.8682 C 395.938 83.1754 395.682 83.4826 395.554 83.6362 C 392.61 84.5577 389.666 85.6329 386.722 86.5545 C 384.29 87.3225 382.882 89.012 382.626 91.4696 C 381.602 100.685 379.682 109.748 380.194 118.963 C 380.322 120.346 379.938 121.728 379.682 123.11 C 379.426 124.032 377.762 124.8 376.866 124.8 C 374.306 124.493 369.058 122.65 367.522 119.731 C 366.626 118.349 365.73 116.813 364.962 115.431 C 364.194 114.202 363.938 112.82 364.194 111.284 C 364.706 108.058 365.346 104.679 365.73 101.453 C 365.986 99.1494 365.986 96.9991 365.986 94.6951 C 365.986 93.1592 364.194 91.6232 362.402 91.9304 C 359.714 92.2376 356.898 92.852 354.082 93.4664 C 351.394 94.2343 348.706 95.1559 345.89 95.6167 C 341.154 96.5383 337.57 93.4664 337.442 88.5513 C 337.442 88.0905 337.442 87.4761 337.442 86.8617 C 337.698 83.1754 339.874 80.4106 343.586 79.9498 C 347.81 79.1819 352.034 78.5675 356.258 78.2603 C 359.458 77.9531 362.146 76.8779 364.578 74.8812 Z M 389.154 55.3744 L 388.77 56.1424 C 388.898 55.9888 389.026 55.9888 389.026 55.8352 C 389.154 55.6816 389.154 55.528 389.154 55.3744 Z M 388.514 56.6032 C 388.258 56.9104 387.874 57.2176 387.746 57.5247 C 387.362 58.1391 387.618 58.5999 388.13 58.4463 C 388.258 58.4463 388.386 58.1391 388.386 57.8319 C 388.514 57.3711 388.514 57.064 388.514 56.6032 Z M 385.442 66.2797 C 385.57 66.1261 385.698 66.1262 385.826 65.9726 C 385.826 65.819 385.826 65.5118 385.826 65.3582 C 385.698 65.6654 385.57 65.9726 385.442 66.2797 Z M 383.522 71.1948 C 384.546 69.8125 384.93 68.2765 385.186 66.7405 C 384.034 67.9693 383.522 69.5053 383.522 71.1948 Z M 406.178 76.1099 C 405.794 76.5707 405.666 77.3387 405.282 77.3387 C 402.466 77.6459 399.778 77.0315 397.218 76.1099 C 397.09 75.9563 396.962 75.6491 396.962 75.4956 C 396.962 75.1884 397.218 74.8812 397.474 74.8812 C 399.522 73.9596 401.698 73.3452 404.002 73.806 C 404.898 74.1132 405.922 75.0348 406.178 76.1099 Z" stroke-linecap="round" />
</g>
<g transform="matrix(1.2 0 0 1.2 632.34 437.3)"  >
<path style="stroke: none; stroke-width: 1; stroke-dasharray: none; stroke-linecap: butt; stroke-dashoffset: 0; stroke-linejoin: miter; stroke-miterlimit: 4; fill: rgb(0,0,0); fill-rule: nonzero; opacity: 1;" vector-effect="non-scaling-stroke"  transform=" translate(-301.07, -69.58)" d="M 310.562 104.222 C 310.562 105.144 310.69 105.912 310.69 106.833 C 310.818 108.676 311.458 109.291 312.482 108.369 C 314.402 106.68 316.322 105.144 318.242 103.608 C 318.626 103.3 319.266 103.454 319.778 103.608 C 320.418 103.608 320.802 105.144 320.418 106.065 C 320.034 107.294 319.65 108.676 319.138 109.752 C 317.218 113.438 315.298 116.817 313.506 120.503 C 310.818 125.418 302.754 126.186 298.402 126.186 C 286.754 126.186 279.074 117.585 273.442 106.065 C 268.834 96.5422 267.298 85.9441 268.834 73.9635 C 270.242 63.0582 273.058 52.46 276.642 41.8618 C 278.178 37.7147 279.202 33.5676 278.818 29.2669 C 278.69 27.5774 279.202 25.5806 280.482 24.8126 C 284.322 22.6623 286.114 18.976 287.266 14.5216 C 287.394 13.7537 288.802 12.8321 289.314 12.9857 C 289.826 13.1393 290.338 13.1393 290.85 13.2929 C 294.562 14.6753 298.274 16.0576 301.858 17.44 C 302.882 17.7472 303.906 18.0544 304.93 18.3616 C 306.21 18.6688 307.49 18.8224 308.642 18.8224 C 311.458 18.8224 314.146 18.0544 316.834 15.904 C 319.01 14.3681 321.058 14.0609 323.106 14.5216 C 324.258 14.6753 325.154 15.136 326.306 15.136 C 330.402 14.9824 332.322 17.9008 333.602 21.8943 C 334.114 23.891 333.986 25.7342 332.834 27.4238 C 327.97 34.7964 325.41 43.2442 321.442 51.0776 C 318.114 57.6823 315.81 64.7477 315.042 72.1204 C 314.914 73.1955 313.378 74.4243 312.354 74.2707 C 309.666 73.6564 306.722 72.7348 305.186 69.8164 C 301.858 62.751 300.322 63.9798 303.906 53.996 C 305.314 49.8489 306.722 45.7018 308.13 41.5547 C 308.514 40.3259 308.642 38.9435 308.898 37.7147 C 309.154 36.486 308.002 35.2572 307.106 35.2572 C 301.474 36.0252 295.458 39.0971 292.898 45.5482 C 290.978 50.924 289.314 56.4535 287.01 61.6758 C 283.17 70.738 283.17 79.8002 282.53 89.016 C 283.554 98.539 285.218 107.601 290.594 114.513 C 291.874 116.049 293.282 116.971 294.818 116.971 C 295.842 116.971 296.866 116.663 297.89 116.049 C 300.706 114.359 303.394 112.363 306.21 110.52 C 308.258 108.984 309.154 106.372 310.562 104.222 L 310.562 103.915 C 310.562 103.915 310.562 103.915 310.69 104.068 L 310.562 104.222 Z M 311.586 19.8975 C 311.074 20.5119 310.69 20.8191 310.306 21.2799 C 310.562 21.5871 310.69 22.2015 311.074 22.3551 C 311.842 22.5087 312.61 22.3551 313.25 22.0479 C 313.634 22.0479 313.89 21.1263 314.018 20.6655 C 314.146 20.5119 313.89 20.0511 313.762 20.0511 C 312.994 19.8975 312.226 19.8975 311.586 19.8975 Z M 309.666 31.2637 C 309.41 31.2637 309.282 31.1101 309.026 31.2637 C 308.386 31.5709 308.386 32.0317 309.026 32.1853 C 309.154 32.3389 309.538 32.0317 309.666 31.8781 C 309.666 31.7245 309.666 31.4173 309.666 31.2637 Z M 305.57 59.6791 C 306.082 59.3719 306.85 59.0647 306.978 58.6039 C 309.538 53.228 312.098 47.8521 314.018 42.3226 C 314.402 41.0939 314.786 39.7115 314.914 38.4827 C 314.914 38.0219 314.402 37.4076 314.146 37.1004 C 314.018 36.9468 313.506 37.2539 313.378 37.4076 C 309.282 43.8586 306.978 51.0776 304.802 58.2967 C 304.802 58.6039 304.93 58.9111 305.058 59.0647 C 305.186 59.3719 305.442 59.5255 305.57 59.6791 Z M 272.418 68.2805 C 273.826 66.4373 273.698 64.4406 273.442 62.4438 C 272.162 64.287 272.034 66.2837 272.418 68.2805 Z M 271.522 72.1204 C 271.778 71.6596 272.418 71.3524 272.418 71.0452 C 272.546 70.2772 272.418 69.5092 272.418 68.7413 C 271.906 69.3556 271.394 69.97 271.138 70.738 C 271.01 71.0452 271.394 71.6596 271.522 72.1204 Z M 310.946 103.915 L 310.562 103.915 L 310.946 103.915 L 311.842 103.454 C 311.714 103.608 311.586 103.761 311.33 103.761 C 311.202 103.915 311.074 103.915 310.946 103.915 Z" stroke-linecap="round" />
</g>
<g transform="matrix(1.2 0 0 1.2 558.42 433.5)"  >
<path style="stroke: none; stroke-width: 1; stroke-dasharray: none; stroke-linecap: butt; stroke-dashoffset: 0; stroke-linejoin: miter; stroke-miterlimit: 4; fill: rgb(0,0,0); fill-rule: nonzero; opacity: 1;" vector-effect="non-scaling-stroke"  transform=" translate(-239.25, -66.4)" d="M 208.999 108.367 L 208.871 108.214 C 209.383 107.292 209.895 106.371 210.279 105.449 C 210.919 103.759 211.815 102.377 213.223 101.302 L 213.223 100.995 L 213.223 101.302 C 212.455 104.067 211.815 106.831 211.175 109.596 C 211.047 110.057 210.919 110.825 211.047 111.286 C 211.175 111.746 211.815 112.207 212.071 112.207 C 212.839 112.054 213.735 111.746 213.991 111.132 C 216.167 107.446 218.599 103.913 220.007 99.9196 C 221.671 95.6189 223.719 91.4717 225.895 87.6318 C 226.791 86.0959 227.303 84.5599 227.431 82.7167 C 227.687 78.7232 228.455 75.0369 229.991 71.5042 C 230.503 70.2754 230.375 68.7395 230.503 67.2035 C 230.631 66.4355 230.247 65.9747 229.735 65.9747 C 229.479 65.9747 229.223 66.2819 229.095 66.4355 C 227.687 71.965 225.383 76.7265 222.055 81.0272 C 221.671 81.6416 221.287 82.256 220.903 82.8703 L 220.903 83.1775 C 219.879 85.6351 218.855 88.0926 217.831 90.5502 L 217.703 90.243 C 217.831 89.9358 217.959 89.7822 218.087 89.475 L 218.855 87.6318 C 218.983 87.3246 219.111 87.0174 219.239 86.7102 L 220.391 84.0991 C 220.519 83.7919 220.647 83.4847 220.775 83.1775 L 220.903 82.8703 C 221.159 79.6448 222.055 76.7265 222.823 73.6545 C 224.487 67.3571 226.023 61.0596 227.559 54.7622 C 227.943 53.0726 228.199 51.383 228.327 49.5399 C 228.583 48.3111 227.687 47.0823 226.791 46.9287 C 225.767 46.9287 224.871 46.7751 223.847 46.9287 C 220.647 47.2359 218.727 45.2392 217.447 42.0136 C 217.063 40.6313 216.551 39.0953 216.423 37.7129 C 216.295 35.409 216.423 32.9514 216.423 30.6475 C 216.551 28.8043 217.831 27.1148 219.239 26.8076 C 221.671 26.3468 224.103 26.0396 226.535 25.5788 C 228.711 25.2716 229.223 24.5036 229.351 21.2781 C 229.479 18.3598 229.991 17.131 231.399 17.131 C 231.911 17.131 232.551 17.2846 233.319 17.5918 C 236.135 18.9742 238.823 20.2029 241.639 21.5853 C 244.071 22.8141 246.503 24.1964 248.935 25.5788 C 250.599 23.8893 251.239 21.5853 252.007 19.4349 C 253.159 16.2094 254.311 12.8303 255.335 9.45116 C 255.719 8.52959 257.127 7.76161 257.895 8.06879 C 258.407 8.22239 258.919 8.22239 259.303 8.52959 C 263.143 10.8335 266.855 12.9839 270.567 15.4414 C 271.847 16.363 273.127 17.131 274.663 17.4382 C 275.943 17.5918 276.071 18.5134 275.303 20.0493 C 275.047 20.5101 274.663 20.9709 274.407 21.4317 C 275.047 21.8925 275.815 22.1997 276.327 22.6605 C 277.607 24.1964 277.095 26.0396 276.711 27.7292 C 276.455 28.9579 275.559 29.5723 274.535 29.8795 C 274.279 29.8795 274.023 30.0331 273.895 29.8795 C 271.591 29.5723 269.287 29.1115 267.367 30.9547 C 263.911 34.4874 261.735 52.151 261.095 57.3733 C 260.583 61.674 260.327 66.1283 259.943 70.5826 C 259.815 71.8114 259.687 73.0402 259.943 74.2689 C 260.583 77.1873 260.327 80.1056 259.943 83.0239 C 259.815 84.5599 259.559 86.0959 259.815 87.4782 C 260.583 92.2397 260.711 97.0012 261.223 101.763 C 261.735 106.985 263.015 114.358 264.935 118.966 C 265.319 119.734 265.447 120.501 265.703 121.423 C 265.959 122.498 265.319 124.034 264.551 124.341 C 263.655 124.649 262.759 124.802 261.863 124.802 C 256.103 124.802 252.007 118.044 249.831 112.514 C 249.447 111.746 248.167 111.593 247.911 112.207 C 247.527 112.975 247.143 113.743 246.759 114.665 C 246.119 116.201 245.479 117.737 244.583 119.273 C 243.175 122.191 241.255 122.959 238.183 122.191 C 237.799 122.037 237.287 121.73 236.775 121.577 C 235.367 120.809 231.527 119.734 231.527 117.583 C 231.399 114.358 231.655 111.593 231.911 108.367 C 232.167 104.22 232.679 100.073 233.191 95.926 C 233.575 93.7757 237.159 92.2397 238.951 92.8541 C 240.103 93.1613 241.255 93.9293 242.407 94.3901 C 242.791 94.5437 243.303 94.6973 243.815 94.6973 C 244.839 95.0045 245.991 94.0829 246.119 93.0077 C 246.119 91.011 246.247 88.8606 246.247 86.7102 C 246.247 79.952 246.119 73.0402 245.991 66.2819 C 245.863 57.5269 246.503 48.9255 247.655 40.3241 C 247.783 39.2489 247.911 38.0201 247.783 36.7914 C 247.783 36.4842 247.143 35.8698 246.887 35.8698 C 246.375 35.8698 245.735 36.177 245.607 36.6378 C 245.223 37.7129 244.967 38.7881 244.839 40.0169 C 242.663 64.1316 231.271 100.841 218.855 120.041 C 217.063 122.652 214.631 123.113 212.071 122.191 C 207.463 120.655 204.007 116.201 201.447 111.593 C 201.191 110.979 201.575 109.443 202.087 109.135 C 203.751 108.521 205.287 107.753 206.951 107.446 C 207.591 107.292 208.359 107.907 208.999 108.367 Z M 232.167 47.8503 C 232.039 47.6967 231.655 47.8503 231.527 48.0039 C 231.527 48.6183 231.527 49.2327 231.527 49.6935 C 231.527 49.8471 231.911 50.0007 232.039 50.0007 C 232.679 49.5399 232.679 48.1575 232.167 47.8503 Z M 232.807 61.2132 C 232.679 59.6773 232.807 57.9877 231.783 56.7589 C 231.527 56.4517 230.759 56.4517 230.503 56.7589 C 229.735 57.9877 229.991 59.5237 231.015 60.4452 C 231.527 60.7524 232.167 60.906 232.807 61.2132 Z M 217.703 90.7038 C 217.703 91.4717 217.703 92.0861 217.575 92.8541 C 217.447 96.5404 216.039 99.3052 213.351 100.995 C 213.479 98.998 214.247 97.3084 215.143 95.6189 C 216.039 93.9293 216.807 92.3933 217.703 90.7038 Z" stroke-linecap="round" />
</g>
<g transform="matrix(1.2 0 0 1.2 484.42 438.49)"  >
<path style="stroke: none; stroke-width: 1; stroke-dasharray: none; stroke-linecap: butt; stroke-dashoffset: 0; stroke-linejoin: miter; stroke-miterlimit: 4; fill: rgb(0,0,0); fill-rule: nonzero; opacity: 1;" vector-effect="non-scaling-stroke"  transform=" translate(-177.37, -70.58)" d="M 148.742 21.2746 C 148.486 21.889 148.102 22.657 147.974 23.425 C 147.59 25.1145 148.102 26.6505 148.998 27.2649 C 150.15 27.8793 151.43 28.0329 152.454 27.2649 C 153.222 26.8041 153.99 25.8825 154.502 24.9609 C 155.91 22.5034 158.086 21.7354 160.134 22.657 C 162.182 23.7322 164.358 24.0394 166.406 24.0394 C 169.478 24.0394 172.55 23.2714 175.494 22.1962 C 183.174 19.585 190.982 18.6635 198.79 17.1275 C 199.686 16.9739 200.582 16.8203 201.606 16.8203 C 205.318 16.8203 208.39 19.585 209.286 23.2714 C 209.798 25.4217 210.694 27.4185 211.334 29.5688 C 211.974 31.2584 211.846 32.9479 211.718 34.6375 C 211.462 36.1735 210.31 37.2487 209.158 36.6343 C 206.598 35.2519 204.166 34.6375 201.606 34.6375 C 199.174 34.6375 196.87 35.0983 194.438 35.8663 C 189.83 37.0951 185.222 38.4774 180.614 39.7062 C 179.846 40.0134 179.334 39.0918 179.59 38.0166 C 179.846 37.5559 180.102 37.2487 180.358 36.7879 C 178.182 37.0951 176.134 37.2487 174.086 37.7094 C 169.094 38.7846 165.254 42.0102 163.078 47.5396 C 159.494 55.9874 157.062 65.0496 156.038 74.5726 C 155.27 82.2525 155.398 89.9323 155.91 97.7657 C 156.166 102.374 158.214 110.207 161.798 112.818 C 162.694 113.893 163.974 114.201 165.126 113.433 C 167.046 112.204 168.838 110.821 170.63 109.439 C 172.294 108.21 173.446 106.367 173.83 103.91 C 174.086 101.298 175.366 99.1481 176.646 96.9977 C 179.974 91.6219 182.022 85.6316 183.686 79.3341 C 184.198 76.8766 184.838 74.2654 185.478 71.8079 C 185.734 70.7327 184.838 69.5039 183.814 69.5039 C 182.15 69.6575 180.486 69.8111 178.822 69.6575 C 176.774 69.6575 175.11 68.736 173.702 66.8928 C 170.886 63.3601 169.606 59.213 170.758 54.2979 C 171.014 53.2227 171.398 52.1475 171.782 51.0724 C 172.166 49.8436 173.446 49.0756 174.726 49.2292 C 176.134 49.3828 177.542 49.69 178.95 49.9972 C 182.022 50.3044 185.222 50.7652 188.166 49.0756 C 188.678 48.7684 189.574 48.7684 190.214 48.922 C 192.774 49.5364 195.334 50.3044 197.894 51.2259 C 199.046 51.5331 200.198 52.1475 201.222 52.7619 C 203.654 54.4515 204.422 56.7554 203.782 59.981 C 203.526 60.9025 203.398 61.6705 203.142 62.4385 C 199.814 71.8079 199.046 81.9453 198.278 91.9291 C 197.894 96.9977 197.894 102.22 199.046 107.289 C 200.07 111.436 200.71 115.583 201.478 119.884 C 201.606 120.805 200.454 122.188 199.686 122.188 C 199.046 122.188 198.15 122.341 197.638 122.034 C 194.566 120.498 192.518 117.733 190.854 114.508 C 190.598 114.047 190.598 113.433 190.342 112.972 C 187.142 106.214 186.63 98.8409 186.118 91.3147 C 186.118 89.9323 185.99 88.5499 185.99 87.1676 C 185.862 86.3996 185.606 86.0924 185.094 86.0924 C 184.838 86.0924 184.582 86.246 184.454 86.3996 C 181.894 91.9291 179.462 97.4585 176.902 102.988 C 176.646 103.756 176.646 104.678 176.518 105.599 C 176.39 106.521 177.67 107.903 178.31 107.596 C 179.078 107.442 179.718 107.135 180.358 106.674 C 180.998 106.06 181.638 105.906 182.15 105.906 C 183.046 105.906 183.942 106.521 184.71 107.442 C 184.198 116.044 177.03 124.338 169.606 124.338 C 167.942 124.338 166.15 124.031 164.358 123.109 C 154.118 118.348 150.022 108.364 145.67 97.3049 C 145.286 95.9226 144.774 94.6938 144.518 93.1578 C 143.11 83.6348 142.086 73.9582 143.878 64.2817 C 144.774 58.5986 145.542 52.9155 146.822 47.5396 C 147.462 45.2357 147.206 42.9317 146.182 40.935 C 144.006 36.3271 142.982 31.412 142.982 26.1897 C 142.982 22.657 144.134 21.2746 147.334 21.121 C 147.846 21.121 148.23 21.121 148.742 21.2746 Z M 189.83 26.1897 C 190.47 26.1897 191.238 26.3433 191.878 26.0361 C 195.334 24.6537 198.79 24.0394 202.374 23.5786 C 202.502 23.425 202.886 23.1178 202.758 22.9642 C 202.758 22.3498 202.63 21.7354 202.374 21.4282 C 201.094 20.353 199.686 20.0458 198.278 20.353 C 195.078 21.2746 191.75 22.5034 188.55 23.5786 C 188.294 23.7322 188.038 24.5001 188.038 24.9609 C 188.166 25.4217 188.678 25.7289 189.062 26.0361 C 189.19 26.1897 189.446 26.1897 189.83 26.1897 Z M 148.742 21.2746 L 148.742 21.121 L 148.87 21.2746 L 148.742 21.2746 Z M 180.486 36.6343 C 183.686 36.0199 187.014 35.5591 190.214 34.7911 C 191.75 34.3303 193.286 33.4087 194.822 32.6408 C 194.95 32.6408 195.078 32.18 194.95 31.8728 C 194.95 31.7192 194.694 31.412 194.438 31.412 C 193.542 31.412 192.518 31.1048 191.622 31.5656 C 189.446 32.4872 187.27 33.2551 184.838 33.2551 C 184.582 31.5656 184.454 29.876 184.07 28.3401 C 183.686 26.9577 182.918 26.1897 181.894 26.1897 C 181.126 26.1897 180.358 26.6505 179.462 27.4185 C 179.334 27.5721 179.206 27.8793 179.078 28.1865 C 179.974 28.9544 180.87 29.876 179.718 31.412 C 179.334 32.0264 179.078 32.7944 179.462 33.7159 C 179.718 34.6375 180.102 35.5591 180.486 36.6343 Z M 178.182 28.4937 L 178.822 28.1865 C 178.694 28.1865 178.566 28.1865 178.438 28.1865 C 178.31 28.1865 178.31 28.4937 178.182 28.4937 Z M 184.71 33.2551 L 184.838 33.2551 L 184.71 33.2551 Z M 184.71 33.2551 C 184.71 33.4087 184.582 33.4087 184.582 33.4087 L 183.942 33.7159 C 184.07 33.5623 184.198 33.4087 184.326 33.4087 C 184.326 33.4087 184.454 33.4087 184.582 33.4087 L 184.71 33.2551 Z" stroke-linecap="round" />
</g>
<g transform="matrix(1.2 0 0 1.2 393.82 439.04)"  >
<path style="stroke: none; stroke-width: 1; stroke-dasharray: none; stroke-linecap: butt; stroke-dashoffset: 0; stroke-linejoin: miter; stroke-miterlimit: 4; fill: rgb(0,0,0); fill-rule: nonzero; opacity: 1;" vector-effect="non-scaling-stroke"  transform=" translate(-101.6, -71.04)" d="M 80.69 31.5684 C 81.074 29.1108 81.458 26.0389 82.098 23.1206 C 82.482 21.5846 83.378 20.3558 84.274 19.2807 C 85.426 17.7447 86.962 16.9767 88.754 17.4375 C 95.666 19.1271 102.706 20.663 109.618 22.967 C 111.794 23.735 113.97 24.0422 116.018 24.0422 C 118.962 24.0422 121.906 23.2742 124.85 21.431 C 126.002 20.8166 127.154 20.0486 128.434 19.7414 C 128.946 19.5878 129.714 19.7414 130.226 20.2022 C 132.914 23.2742 134.834 26.8069 135.73 31.1076 C 136.37 34.3331 135.602 37.2515 133.938 39.8626 C 133.682 40.477 132.914 40.7842 132.274 40.7842 C 131.378 40.7842 130.354 40.477 129.458 40.1698 C 127.794 39.5554 126.13 39.2482 124.594 39.2482 C 121.394 39.2482 118.322 40.477 115.378 42.6273 C 112.562 44.7777 109.618 46.0065 106.29 46.1601 C 103.73 46.1601 101.17 46.7744 98.482 47.0816 C 95.666 47.3888 92.722 47.5424 89.778 47.5424 C 82.098 47.5424 81.074 38.7874 80.69 31.5684 Z M 125.49 60.5981 C 126.514 63.9773 127.41 65.974 127.794 68.278 C 128.178 70.5819 128.178 72.8859 127.922 75.1898 C 127.41 79.7977 123.954 82.5625 120.242 82.5625 C 109.746 82.8697 99.506 85.1736 89.266 86.8632 C 88.882 87.0168 88.626 87.0168 88.242 87.0168 C 83.25 88.3991 79.282 86.0952 76.082 81.7945 C 72.882 77.6474 72.754 73.961 72.754 68.7388 C 72.754 61.8269 74.418 59.523 80.306 59.8302 C 83.506 60.1373 86.834 59.9838 90.034 59.8302 C 95.922 59.523 101.81 59.3694 107.57 61.3661 C 110.386 62.2877 113.33 62.1341 116.274 61.6733 C 119.09 61.3661 122.034 61.0589 125.49 60.5981 Z M 113.97 114.664 C 113.842 115.893 113.714 116.507 113.842 117.275 C 113.97 118.658 113.458 119.733 112.434 119.886 C 101.81 121.576 91.058 123.112 80.434 124.648 C 77.746 125.109 75.186 124.187 72.882 122.805 C 69.426 120.654 67.25 117.429 67.25 112.514 C 67.25 108.981 67.506 105.602 67.762 102.069 C 68.018 100.072 70.322 97.9221 72.114 97.9221 C 73.138 97.9221 74.034 97.7685 75.058 97.9221 C 80.818 98.9973 86.578 100.226 92.466 101.148 C 96.05 101.608 99.762 102.069 103.346 102.069 C 106.802 102.069 110.386 101.608 113.842 100.533 C 116.914 99.6117 120.242 99.4581 123.57 99.1509 C 126.386 98.8437 129.33 98.6901 132.274 98.3829 C 133.426 98.3829 134.194 99.1509 134.322 100.38 C 134.578 101.455 134.45 102.684 134.066 103.605 C 133.938 104.22 133.042 104.834 132.53 104.834 C 130.61 104.68 128.562 104.527 126.77 104.066 C 123.954 103.298 121.266 102.837 118.45 102.837 C 115.122 102.837 111.794 103.452 108.466 104.834 C 108.594 107.752 110.258 110.363 112.05 110.21 C 113.714 110.21 115.378 110.056 116.914 109.749 C 120.498 108.827 124.082 108.213 127.666 108.827 C 128.562 108.981 129.458 109.749 130.098 110.517 C 130.482 110.978 130.61 111.899 130.482 112.667 C 130.354 113.282 129.842 114.203 129.33 114.203 C 126.386 114.203 123.442 114.05 120.626 114.05 C 118.322 114.203 116.018 113.896 113.97 114.664 Z M 123.186 117.122 C 123.058 117.275 122.802 117.736 122.546 117.736 C 122.29 117.736 121.778 117.736 121.65 117.582 C 121.266 116.814 121.65 116.354 122.546 116.507 C 122.802 116.661 123.058 116.968 123.186 117.122 Z" stroke-linecap="round" />
</g>
<g transform="matrix(1.2 0 0 1.2 308.57 438.84)"  >
<path style="stroke: none; stroke-width: 1; stroke-dasharray: none; stroke-linecap: butt; stroke-dashoffset: 0; stroke-linejoin: miter; stroke-miterlimit: 4; fill: rgb(0,0,0); fill-rule: nonzero; opacity: 1;" vector-effect="non-scaling-stroke"  transform=" translate(-30.3, -70.86)" d="M 0.125 105.912 C 0.381 104.836 0.381 103.915 0.637 103.454 C 1.149 102.686 1.661 101.765 2.429 101.611 C 3.837 101.304 2.813 101.611 4.349 101.457 C 5.501 101.304 5.885 99.6142 5.245 98.2318 C 4.989 97.3102 4.349 96.3887 4.221 95.4671 C -2.563 60.6007 7.677 42.937 3.197 20.3583 C 2.941 19.1296 4.349 17.44 5.501 17.2864 C 5.757 17.2864 6.013 17.1328 6.141 17.1328 C 10.621 18.0544 18.173 19.2832 21.629 22.6623 C 23.421 24.5054 17.405 77.3427 18.557 87.9409 C 18.813 90.552 19.325 93.3167 19.965 96.0815 C 20.349 97.9246 22.013 99.6142 20.093 99.6142 C 25.341 99.4606 27.261 99.4606 25.981 99.307 C 22.909 98.8462 31.741 99.1534 34.813 99.9214 C 41.597 101.611 48.381 102.993 54.909 102.993 C 55.549 102.993 56.317 103.147 56.957 103.761 C 57.597 104.222 58.493 105.144 58.621 105.912 C 59.133 109.444 59.645 112.977 60.413 116.663 C 60.669 118.046 60.029 119.275 59.773 120.503 C 59.389 121.579 58.749 122.039 57.725 121.886 C 56.189 121.732 54.525 121.579 52.861 121.118 C 48.765 119.889 44.797 119.275 40.957 119.275 C 37.501 119.275 34.045 119.735 30.717 120.35 C 25.725 121.425 20.733 122.654 15.869 123.882 C 13.949 124.343 12.157 124.804 9.981 124.497 C 8.317 124.343 6.781 123.422 5.373 121.425 C 2.941 118.507 0.893 114.206 0.509 110.059 C 0.381 108.676 0.253 107.14 0.125 105.912 Z M 24.445 104.068 C 24.061 103.454 23.677 102.84 23.293 102.686 C 22.013 101.918 20.989 102.225 20.477 103.454 C 20.349 103.761 20.605 104.836 20.861 104.99 C 21.629 105.604 22.269 105.912 22.781 105.912 C 23.549 105.912 24.061 105.451 24.573 104.836 C 24.701 104.683 24.573 104.222 24.445 104.068 Z M 36.221 107.601 C 39.293 110.212 42.237 111.595 45.181 110.98 C 45.565 110.98 46.077 111.134 46.461 111.134 C 47.997 110.827 49.405 110.52 50.813 110.059 C 51.069 110.059 51.197 109.291 51.197 108.83 C 51.197 108.676 50.941 108.216 50.813 108.062 C 46.845 105.144 43.133 103.915 39.677 103.915 C 38.397 103.915 37.117 104.068 35.837 104.376 C 35.581 104.529 35.581 105.297 35.709 105.912 C 35.709 106.372 36.093 106.987 36.221 107.601 Z M 36.093 107.601 C 35.837 107.601 35.453 107.601 35.069 107.755 C 34.685 107.908 34.685 108.369 35.197 108.83 C 35.325 108.984 35.581 108.83 35.709 108.676 C 35.837 108.369 35.965 108.062 36.093 107.601 Z" stroke-linecap="round" />
</g>
</svg>